<?xml version="1.0" encoding="utf-8"?>
<!-- Generator: Adobe Illustrator 22.1.0, SVG Export Plug-In . SVG Version: 6.00 Build 0)  -->
<svg version="1.1" id="Слой_1" xmlns="http://www.w3.org/2000/svg" xmlns:xlink="http://www.w3.org/1999/xlink" x="0px" y="0px"
	 viewBox="0 0 500 500" style="enable-background:new 0 0 500 500;" xml:space="preserve">
<style type="text/css">
	.st0{fill:#333333;}
</style>
<path id="finish" class="st0" d="M500,444.2c-20.3,25.4-60,35.8-93.1,30.5c-35.1-5.6-58.4-30.5-102.1-29.4
	c-29.8,0.7-80.2,26.9-112.4,28c-34.9,1.2-62.5-23.7-97.7-29.1C66.9,439.9,20,453.8,0,477v23h500V444.2z"/>
<path id="start" class="st0" d="M500,444.2c-17.3,19.9-67.3,28-93.1,26.5c-35.4-2-58.4-12.4-102.1-11.3c-29.8,0.7-80.2,15.6-112.4,16.7c-34.9,1.2-62.5-12.4-97.7-17.7C66.9,454.1,19,459.3,0,477v23h500V444.2z"/>
<rect x="0" y="345" class="st0" width="500" height="155"/>
</svg>
