<svg xmlns="http://www.w3.org/2000/svg" xmlns:xlink="http://www.w3.org/1999/xlink" viewBox="0 0 3875.13 1907.27"><defs><style>.cls-1{fill:none;}.cls-2{fill:url(#Безымянный_градиент_22);}.cls-3{clip-path:url(#clip-path);}.cls-4{fill:#ff8200;}</style><linearGradient id="Безымянный_градиент_22" x1="2085.12" y1="1790.9" x2="2085.12" y2="847.58" gradientUnits="userSpaceOnUse"><stop offset="0" stop-color="#ff8900"/><stop offset="1" stop-color="#ffb300"/></linearGradient><clipPath id="clip-path" transform="translate(1125.07 847.58)"><rect class="cls-1" width="1920" height="943.32"/></clipPath></defs><g id="Слой_2" data-name="Слой 2"><g id="фон"><rect class="cls-2" x="1125.12" y="847.58" width="1920" height="943.32"/><g class="cls-3"><path class="cls-4" d="M1037.36-31.8C1027.53-14.34,1018.69.83,1017.69,2c-1.75,2-5.17,2.33-39,2.68l-37,.39L923.42,37.16c-10.2,17.72-19,32.63-19.8,33.15S886,71.5,866.14,71.71l-36.1.37-18.41,32.5c-15.18,26.51-19,32.63-21.83,33.42-3.41.92-68.41.08-70.06-.92-.51-.25-8.63-13.72-18-29.84s-17.92-30.22-19-31.47c-1.79-1.88-5.22-2.1-38.15-1.76-19.89.21-36.87-.12-37.63-.62s-8.5-13.09-17.27-27.95-17.15-29.21-18.83-31.85l-3.09-4.66-38.25.65-38.12.78L473.73,41.58c-9.83,17.2-18.41,32-19.17,32.76-1.12,1.28-10.49,1.75-38.49,2L379,76.77,360.05,110l-18.92,33.14,18.19,31.1c10.06,17.12,19.21,32.1,20.23,33.23,1.8,2,5.22,2.23,38.28,1.89s36.49-.13,38.28,1.75c4.36,4.9,37.14,62.71,36.52,64.36-.37,1-8.58,15.8-18.28,32.87l-17.67,31.1L420,340.1l-36.73.77-17.54,30.71c-9.58,16.95-18.17,31.61-19.17,32.88-1.5,1.79-5.81,2.09-38.74,2.43l-37.12.39-17.17,30.2c-9.33,16.69-18,31.86-19.28,33.65-1.63,2.42-1.87,3.69-.84,4.69.77.76,9.66,15.36,19.72,32.61l18.44,31.23,37.76.24,37.88.24L365.47,571c10.06,17,18.31,31.6,18.32,32.49s-7.69,15.41-17.4,32.23-17.79,31.48-18.16,32.5,7.64,16,18.48,34.52l19.09,32.74,36.86-.39c33.7-.35,37.12-.13,38.91,1.75,3.21,3.64,37.13,61.82,37.15,63.72,0,1-8.07,16.05-18,33.51s-17.78,32.23-17.52,33,8.9,15.36,19.09,32.74l18.57,31.48,37.5.24c20.65.17,37.88.62,38.4,1.13s9.15,14.85,19.21,32.1L614.26,996,653,996l38.76-.15,17.92-31.35c9.7-17.33,18.92-32.13,20.3-33.15,2-1.42,9.49-1.62,37.49-1.28l35,.4,18.7,31.6,18.57,31.61,37.88.24,37.88.24,18.83,32.11,18.83,32.11,5.58.82c3.17.35,20.28.68,38.27.49l32.43-.21,16.42-28.92c9.08-16.06,17.79-31.23,19.41-33.78l3-4.84,37.49-.65,37.62-.77,17.55-30.71c9.58-17,18.29-31.74,19.29-32.89,1.5-1.91,5.55-2.08,37.22-2.16H1253l19,32.11,18.83,32.11,37.88.24,37.88.24,17,29c9.28,15.87,18.18,30.85,19.6,33l2.7,4.15,37.87-.39c35.09-.36,38-.52,38.62-2.68.49-1.15,8.7-16.18,18.53-33.39l17.79-31.22,38-1,37.87-1,18.29-31.87c10.08-17.58,18.29-32.49,18.28-33.25.11-1.4-35.24-62.85-37.54-65.36-.65-.75-16.11-1.35-38.79-1.5l-37.5-.24-17.15-29c-9.41-16-18.05-30.73-19.22-32.87l-2.19-3.9,17.79-31.1c9.71-17.07,18.3-31.48,19.18-32s18-1.2,38.12-1.41l36.73-.38,16.67-29.69c9.21-16.18,17.79-31.09,19-33.13l2.37-3.45,37-.38,37-.39,18.54-32.5c14.8-26.25,19-32.62,21.69-33.41,1.65-.4,18.37-.57,36.87-.26,31.67.56,34,.41,35.7-1.76,1.13-1.28,9.72-15.94,19.18-32.63s17.54-30.59,18-30.85-.92-3.92-3.37-8-11.22-18.76-19.47-33l-15.22-25.81-37.63-.24c-20.65-.17-38-.62-38.4-1.12s-9.15-15-19.21-32.11l-18.31-31.23-38.77,0-38.76.15-17.79,31.47c-9.83,17.21-18.67,32.12-19.55,33.14-1.88,1.8-27,2.31-57.88,1.11l-16.48-.59L1493,426.25l-19-32.1-37.76-.25-37.88-.24-15.22-25.81c-23.21-39.16-21.78-36.13-19.42-40.84,4.71-9.43,33.21-58.88,34.47-59.65.75-.51,18.61-1.21,39.64-1.43l38.13-.39,18.91-33,18.78-33.13-19-32.49c-10.44-17.88-19.08-32.62-19.09-32.74s-17.23-.46-38.26-.74l-38.14-.5-2.5,3.7c-1.37,2.05-10,16.7-18.91,32.63l-16.55,29.06-37.75.39-37.87.39-2.45-3.52c-1.28-1.88-10-16.49-19.47-32.61-15.47-26.57-16.9-29.47-15.53-32.14.87-1.66,8.33-15,16.79-29.69s15.92-28.42,16.79-30.33c1.36-3.18.32-5.32-17.73-36.17L1244.84,1.9l-36.73.38c-20.14.21-37.38-.12-38.14-.62s-9.92-15.48-20.37-33.36l-19.08-32.36-37.62.39-37.75.39Zm90.53-28.94c2.16.61,7.57,8.79,21,31.58,9.93,17,18.06,31.49,18.07,32.25,0,1.26-32,58-35.33,62.69-1.62,2.3-3.52,2.45-37.6,2.42-19.76.08-36.61-.51-37.38-1.13C1054.33,65.32,1020,6.39,1020,4.23s33.31-61.28,35.82-63.46c1.51-1.15,10.63-1.63,35.58-1.89C1109.9-61.31,1126.37-61.1,1127.89-60.74ZM567.94,12.6c2,1.88,36,60.57,36,62.21,0,2-32.57,59.88-35.82,63.59-1.63,2-4.79,2.33-28.73,2.58-14.83.15-31.17-.06-36.37-.38l-9.51-.79-18.31-31.1C465.26,91.58,457,76.85,457,76.09c0-1.91,34.82-62.95,36.58-64.11S566.79,11.47,567.94,12.6Zm449.81-4.92c3.72,4.27,35.85,60.05,35.87,62.33,0,2-27.71,52.11-33.82,61.17l-2.37,3.57-36.11.37-36,.38-3.09-4.79c-8-12-34.31-58.3-34.33-60.32,0-2.28,33.19-61.54,35.33-63.08.75-.51,17.34-1.19,37-1.4C1012.54,5.58,1016,5.8,1017.75,7.68Zm225.47-3c2.69,2.25,37.12,60.81,37.15,63.34,0,1.65-33.31,61.91-35.57,64.22-.25.25-16.84.55-36.86.63-32.55.09-36.74-.12-38.53-2-1.15-1.13-9.79-15.36-19.2-31.47-15.1-26.07-16.91-29.73-15.8-32.4,2.23-5.09,32.84-58.49,34.84-60.92,1.76-1.92,5.17-2.2,37-2.53C1232.31,3.29,1241.69,3.58,1243.22,4.7ZM454.74,79.4C458,82.92,492,141.47,491.5,142.49c-.24.51-8.46,15-18.28,32.5l-17.79,31.47-37.5.14H380.56L362,174.87l-18.58-31.73,16.42-29c9.09-15.93,17.68-30.59,18.92-32.63L381.12,78,417,77.64C449.53,77.3,453,77.52,454.74,79.4ZM667.8,76.18l13.81.61,17.93,30.6,17.8,30.47-2,4.21c-4.22,8.27-33.21,59-35.21,61.3s-3.78,2.32-36.72,2c-26.86-.23-35-.65-36.25-1.91-1.67-1.75-34.93-57.53-36.23-60.94-.78-1.89,33.17-62.67,36.56-65.37C609.64,75.51,641.69,74.93,667.8,76.18Zm237.51-1.84c.77.88,9.54,15.36,19.47,32.23,15.47,26.32,17.8,31,16.56,33.27-.74,1.53-8.83,16.06-18,32.24l-16.8,29.7-36.35.37c-33.19.35-36.62.13-38.41-1.88-3.33-3.76-35.85-60.31-35.87-62.33,0-1.78,31.82-59,35.07-63.08C833,72.56,903.26,72,905.31,74.34Zm225.09-3.1c2.43,1.5,38.16,63.33,37.54,64.86-.37.89-8.45,15.29-18,32.11l-17.42,30.59-37.12.38-37.24.39-18.31-30.85c-10.06-17-18.32-31.73-18.33-32.75-.14-1.52,26.47-49.93,34.2-62.18,1.74-2.8,1.87-2.8,37.59-3.17C1112.91,70.41,1129.64,70.74,1130.4,71.24ZM567.39,143c1.53,1,37.9,62.57,37.92,64.09,0,.63-8.08,15-17.79,32.23l-17.79,31.23-37.75.39-37.87.39-17.8-30.22c-9.8-16.62-17.81-31.23-17.82-32.5-.15-2.4,32.44-60.76,35.57-64.09,1.5-1.41,8.59-1.86,36.84-2.16C550.16,142.13,566.63,142.47,567.39,143Zm225.48-2.34c2.17,1.37,36.61,60.68,36.64,63.09,0,1.14-7.94,16.17-17.78,33.25l-17.66,31.22-35.47.62c-19.5.46-36.1.37-36.86-.25s-9.66-14.85-19.72-32l-18.44-31.1,15.8-27.79c8.71-15.29,17.17-29.95,18.79-32.62l3-4.72,35.22-.37C775.63,139.79,792.11,140.13,792.87,140.63Zm226.25-1.21c1,1.25,9.92,16,19.6,32.61l17.67,30.47-17.92,31.6-18,31.74-36.73.76-36.73.63-2.44-3.39c-4.89-6.92-35.2-59.18-35.22-60.7,0-1.9,34.69-62.94,36.58-64.1.76-.52,17.09-1.19,36.35-1.39C1013.9,137.32,1017.33,137.54,1019.12,139.42Zm226.74-2.49c1.92,1.13,35.85,60.44,35.87,62.72s-34.18,63.19-36.57,64.87-72.08.62-73.74-1.27c-4-4-36.63-62.07-36-63.85,1.23-3.31,33.21-59.13,35.34-61.68,1.87-2.3,3.77-2.32,38.11-1.79C1228.75,136.23,1245.35,136.69,1245.86,136.93Zm246.08,29c9.8,16.62,18.06,31.11,18.45,32.24.65,2-33,63.18-35.94,65.11-1.76,1.29-71.94,2-73.85.77-1.27-.75-35.7-58.41-37.26-62.58-.52-1.26,18.13-35.66,33.31-61.53l2.49-4.08,37.5-.14h37.5ZM906.29,205.33c.77.49,9.66,14.84,19.72,32.1,16.25,27.82,18.06,31.48,16.82,34-4.47,8.66-32.84,58-34.47,59.77-1.75,2-5.17,2.33-36.84,2.66-19.25.2-35.6-.13-36.36-.63-1.79-1.12-37.9-62.57-37.92-64.47,0-1.52,31.83-58.1,34.58-61.55,1.76-1.92,5.17-2.21,37.48-2.54C888.93,204.49,905.53,204.83,906.29,205.33Zm226.25-1.85c3.06,2.5,37.51,62.45,36.77,64.23-.37.89-8.45,15.42-18,32.24l-17.42,30.59-37,.38-37.12.38-18.44-31.48c-10.19-17.37-18.57-32-18.58-32.49,0-1.52,35.08-62.56,36.59-63.59.75-.52,17.09-1.19,36.34-1.39C1121.63,202.08,1131,202.36,1132.54,203.48Zm224.33-2.71c2.42.86,7.69,8.92,20.72,31.21,9.55,16.49,17.68,30.85,18.07,31.86s-7.31,15.91-17.14,33.12l-17.79,31.22-37.88.39-37.75.39-18.44-31.35c-15.73-27.07-18.06-31.74-17-34,6.09-12.1,34.09-60.4,35.59-61.68C1287.69,200,1351.91,198.92,1356.87,200.77ZM700.28,240c10.19,17.25,18.45,32,18.46,32.75s-8,15.29-17.78,32.49l-17.67,31.22-36.22.76c-33.31.6-36.35.5-38.15-1.51-1.54-1.88-31.07-51.74-35.72-60.56-1.55-3-2.42-1.5,28.06-54.77L608,208.68l37-.13h36.87ZM569,274.71c2.8,1.74,37.76,62.31,37.28,64.47-1.1,4.19-34.95,62.57-36.84,63.6-1.14.52-17.86.82-37.11.77l-35.1-.15-17.67-30.47c-9.8-16.62-18.31-31.23-19-32.36-1-1.51,2.82-9.15,15.88-32.22,9.46-16.57,17.92-31.1,18.93-32.12,1.5-1.41,8.08-1.86,36.84-2.16C551.52,273.87,568.12,274.21,569,274.71Zm226.51-.46c.89.88,9.4,15,19.07,31.6,15.23,26.2,17.3,30.36,16,32.78-5.58,11.08-34.08,60.4-35.59,61.55s-10.62,1.76-36,2c-31.16.32-34.07.22-36.25-1.91-3.33-3.26-36.35-59.92-36.37-62.46,0-3.29,35-64.34,37.33-64.74,1-.27,17.35-.44,36.1-.38C783.6,272.86,794.5,273.25,795.53,274.25ZM1019.72,270c.76.5,9.65,15,19.84,32.23L1058,333.6l-3.22,6.5c-1.87,3.56-10,18-18,32l-14.56,25.49-37.37.39-37.24.39-17.79-30.22c-9.81-16.62-18.07-31.23-18.46-32.37-.78-2.15,32.92-62.92,35.94-65,.76-.52,17.09-1.19,36.22-1.39S1019,269.53,1019.72,270Zm237.19,15.28c5.8,9.82,14.18,24.05,18.57,31.6l7.87,13.86-15.8,27.78c-8.71,15.29-17.17,29.95-18.79,32.5l-3,4.84-35.22.37c-19.25.2-35.73-.14-36.49-.64s-9.66-14.84-19.72-32.1c-16.25-27.7-18.06-31.48-16.82-34,5-9.68,34.09-60.27,35.22-61.05.75-.64,17.6-1.06,37.49-1l36-.12ZM683,339.91c2.55,2,37.12,61,37.15,63.59,0,1.9-31.33,57.84-34.58,61.8-1.75,2-5.17,2.33-37.6,2.67-26.73.28-36,0-37.26-1.26-2.94-2.76-36.23-60.69-36.25-63.09,0-2.16,30.82-57.71,34.57-62.31,1.75-1.92,5.17-2.21,37-2.54C672,338.5,681.42,338.78,683,339.91Zm244.17,28.24c11.09,18.77,18.19,32.12,17.82,33.39-1.23,3.31-33.21,59.13-35.21,61.43-1.75,2-5.17,2.33-36.84,2.66-19.25.2-35.6-.13-36.24-.63-2-1.25-36.73-60.69-36.75-62.84,0-1.27,21.62-40.64,33.82-61.29l2.49-4.08,36.23-.12h36.23Zm206.15-33.43c2.55,1.62,36.61,60.81,36.25,63.1-.24,1.14-8.44,16.3-18.27,33.63l-17.92,31.48-36.1.12h-36.11l-18.7-31.73-18.57-31.6,15.8-27.91c8.71-15.29,17.17-29.95,18.79-32.63l3-4.72,35.22-.36C1115.9,333.89,1132.38,334.22,1133.27,334.72ZM1362.2,336c4.51,6.92,34.3,58,34.32,59.06,0,.76-29.6,53.13-34.34,60.66l-3,4.84-35.34.37c-31.8.33-35.6.12-37.9-1.89-2.68-2.25-36.34-59.42-36.37-61.7,0-.76,8.2-15.66,18.15-33.25l18.17-32,36.61-.38,36.6-.38Zm-903.44,8.12c3.59,4.14,35.85,60.43,35.87,62.59s-30.95,57.83-34.57,62.18c-1.76,2-5.17,2.33-37.73,2.67l-36,.37-3.09-4.78c-7.86-11.82-34.31-58.3-34.33-60.2,0-1.14,7.94-16.17,17.65-33.12l17.66-31.09,36.36-.38C453.54,342,457,342.25,458.76,344.14Zm767.65,54.48,20.4-.21,18.18,31c10.06,17.13,18.19,31.74,18.2,32.62,0,2.66-34.32,62.18-36.83,63.86-1.76,1.16-11.39,1.38-37.24,1l-34.84-.4-17.66-29.59c-9.68-16.24-17.68-30.85-17.7-32.37-.16-3.3,32.43-61.15,36.32-64.61,2.52-2.18,4.16-2.32,16.71-1.69C1199.68,398.52,1215.14,398.74,1226.41,398.62Zm247-.92c.77.88,9.4,15,19.08,31.6,16,27.2,17.54,30.35,16.31,33.15-2.48,5.47-32.59,58.23-34.72,60.53-1.75,2-5.17,2.34-37,2.67-26,.27-35.47,0-37.13-1.26-2.55-1.88-37-60.55-37-63.09,0-3,34.31-62.43,37-63.85C1403.61,395.51,1471.52,395.69,1473.44,397.7ZM333,409l13.82.61,17.79,30.22c9.8,16.63,17.81,31.24,17.82,32.5.16,2.54-33.93,63.19-36.44,65-.76.64-17.22.94-36.6.89-28.13-.09-35.61-.52-37-1.9-.89-1-9.66-15.22-19.33-31.72-15.6-26.32-17.55-30.48-16.43-33,2.35-5.09,32.84-58.49,34.84-60.92,1.62-1.92,4.41-2.2,24.8-2.28C308.92,408.4,325.39,408.61,333,409Zm461.34-5.17c1.78.48,8.08,10.05,20.85,31.83,10.06,17.25,18.32,32,18.33,32.88s-7.94,15.53-17.52,32.74c-12.69,22.3-18.42,31.23-20.32,31.63-1.52.39-18.24.31-37.37,0l-34.72-.52L705,500.7,686.44,469l16.43-29c9.08-15.93,17.54-30.59,18.79-32.63l2.37-3.44,33.82-.35C776.47,403.29,792.81,403.5,794.34,403.87Zm246.19,28.35c10.06,17,18.32,31.74,18.33,32.75s-7.94,15.92-17.77,33.12l-17.79,31.22-36.1.76c-33.06.6-36.23.5-38-1.51S919,478.71,914.1,469.26l-2.19-4,9.58-17c5.22-9.18,13.43-23.58,18.16-31.86l8.59-14.91,37-.13h37Zm659-36.74c1,.87,9.79,15.35,19.59,32.1l17.8,30.47-17.17,30.2c-9.33,16.57-17.91,31.23-18.92,32.38-1.75,2-5.17,2.33-37.47,2.67-19.63.2-36.23-.13-37-.63s-9.65-14.85-19.71-32.1c-16.38-27.83-18.07-31.48-16.83-34,4.6-8.79,32.85-58,34.47-59.9s5.18-2.21,37.73-2.55C1690.67,393.8,1698.15,394.1,1699.55,395.48ZM572.18,408.83c2.05,2.26,32.23,53.38,34.82,58.93,1.17,2.65-.44,6.09-15.12,32.08-9.09,15.93-17.67,30.59-18.92,32.51l-2.37,3.57-34.58.36c-25.72.26-35,0-36.5-1.27-2.3-1.75-37.12-60.81-37.14-63,0-1.27,32.45-59.25,35.2-63.07.87-1.15,9.86-1.63,37-1.91C567,406.73,570.39,407,572.18,408.83Zm787.42,54.53c1.15.88,9.91,15.1,19.58,31.73,12.13,20.52,17.43,31,17.2,32.88-.37,1.53-8.32,16.43-17.78,33l-17,30.07-37,.14H1287.7l-18.31-30.85c-10.06-17-18.32-31.86-18.33-33-.15-1.77,31.32-58.6,34.94-63.2,1-1.15,9.87-1.62,36.34-1.9C1348.44,462,1357.94,462.24,1359.6,463.36Zm-899,12c2.69,2.89,35.33,59.81,35.35,61.71,0,2.16-32.57,60.14-35.57,63.34-1.51,1.53-7.46,1.85-37.61,1.78-25.21,0-36.11-.39-37.26-1.39-.77-.88-9.4-15-19.08-31.47-15.6-26.57-17.29-30.23-16-32.77,5.84-11.46,34.21-60.53,35.85-61.82C388.89,472.43,458.45,473.11,460.63,475.36Zm226.51-.58c6.82,10.45,34.3,58.3,34.32,59.82,0,.89-8.07,15.67-17.9,32.87L685.77,598.7l-35.85.75c-25.2.52-36.36.25-37.51-.75-1.66-1.38-34.28-56.27-36.1-60.69-.52-1.51,4.57-11.7,16.39-32.47C602,489,610.61,474.31,611.62,473c1.75-1.91,5.17-2.2,37.09-2.53l35.34-.37Zm222.66-5.35c.9,1,9.79,15.48,19.59,32.1L947.19,532,928.77,564.5,910.36,597l-36.35.38-36.36.37L819.47,566.9C809.41,549.78,801.28,535,801.26,534c0-2.16,32.82-60.77,35.7-63.72C839.6,467.75,907.24,466.92,909.8,469.43Zm225.48-1.83c2.18,2.51,37.13,62.07,37.14,63.21,0,.5-8,14.9-17.78,32L1137,594l-37.24.39-37.24.38-18.44-31.48c-10.19-17.37-18.58-31.85-18.58-32.49s8.2-15.29,18.15-32.74l18.17-31.87,35.72-.37C1130.06,465.5,1133.49,465.71,1135.28,467.6Zm453-3.44c4.37,6.29,35.07,59.18,35.09,60.7,0,1.9-34.7,62.94-36.58,64.1s-70.67,2-72.46.75c-2.93-1.87-38.16-63.33-37.42-65.23.86-2.42,33-59.13,34.71-61.43.87-1.15,10-1.62,37.73-1.91l36.48-.38Zm243.38,26.35c10.19,17.25,18.45,32,18.46,32.75s-8.08,15.29-17.91,32.49L1814.42,587l-36.61.64c-20.13.46-37.24.38-37.88-.24-2.17-1.37-36.73-60.81-36.76-63,0-1.65,23.61-44.72,33.2-60.52l2.86-4.72,37-.13h37ZM572.26,538.69c2.3,1.87,37.13,61.43,37.15,63.71,0,1.4-29.09,53.39-33.83,60.41l-2.37,3.57-35.72.37c-19.64.2-36.36-.13-37.13-.63-2.16-1.37-36.6-60.3-36.63-62.71,0-1.9,31.57-59.11,35.19-64,.88-1.15,9.74-1.62,36.21-1.9C561.35,537.28,570.73,537.56,572.26,538.69Zm228.3.79c8.37,12.84,34.3,58.18,34.32,60.08,0,2.15-30.94,57.83-34.57,62.18-1.75,2-5.17,2.33-37.6,2.67s-35.85.12-37.64-1.89c-3-3.26-36.23-60.94-36.25-62.59s31.95-58.6,34.95-62.18c1.76-1.92,5.17-2.21,37.73-2.55l36-.37ZM1026,537.14c9.91,15.23,34.44,58.81,33.82,60.46-1.23,3.18-33.33,59.51-35.34,61.81-1.75,2-5,2.33-36.33,2.66-25.59.26-34.84,0-36.37-1.27-2.43-1.75-37.11-60.43-37.14-62.71,0-1.52,4.34-9.16,27.61-49.94l8.58-14.92,36-.37,36.1-.37Zm222.28-5.48c2.56,2.64,36.23,60.69,36.25,62.84,0,1-7.94,15.92-17.77,33l-17.67,31.22-35.47.62c-19.5.46-36.1.38-36.86-.25s-9.66-15-19.72-32.1l-18.31-31.22,17-30.21c9.45-16.56,17.92-31.22,18.92-32.5,1.75-1.92,5.17-2.2,37-2.54C1237.91,530.25,1247,530.54,1248.32,531.66Zm244.54,27.62c10.05,17,18.31,31.48,18.32,32.36.15,1.78-34.56,63.07-36.45,64.36-.75.51-17.09,1.19-36.34,1.39-26,.27-35.35,0-36.88-1.26-2.3-1.75-37.13-61.31-37.15-63.47,0-1.26,32.58-59.37,35.08-62.57,1-1.15,9.74-1.62,38.24-1.66h36.87Zm208.07-31.68c3.33,3.89,35.84,60.43,35.86,62.46,0,1.77-31.82,59-35.07,63-1,1.28-10,1.75-37,2-19.51.2-36.23-.13-37-.63s-8.37-12.84-16.88-27.32c-21.92-37.39-21.15-35.76-19.53-38.94.74-1.53,8.83-16,18-32.36l16.8-29.57,36.48-.38C1695.71,525.5,1699.13,525.72,1700.93,527.6ZM1139.46,602c7.08,10.69,34.3,57.92,34.32,59.44,0,1.9-33.2,60.52-35.7,63.2-2.51,2.44-69.77,3.39-72.84.89-1.15-.75-10.3-15.61-20.35-32.73l-18.19-31.36,17.66-31.22c9.83-17.2,18.8-31.61,19.94-32.13s18-.82,37.11-.77l35,0Zm209.72-7.12,13.31.62,18.32,31.35,18.31,31.23-2,4.08c-5.59,11.2-33.34,59-35,60.28-2.13,1.8-29.36,2.33-57.75,1.11l-15.09-.6-17.79-30.22c-9.8-16.63-17.81-31.24-17.82-32.5-.16-2.41,34-63.45,36.44-64.87C1291.79,594.18,1330,593.91,1349.18,594.85ZM463,608.87c6.05,9.43,34.3,58,34.31,59.31,0,1.77-34.94,63.07-36.57,64.23-.76.51-17.48,1.19-37.11,1.4l-35.85.37-3.09-4.78c-7.21-10.95-34.3-58.3-34.32-59.95s32-59,35.07-63c1-1.15,10.12-1.62,37.86-1.91l36.61-.38Zm241.34,24.47c10.06,17,18.32,31.86,18.33,33.13.15,2.28-30.44,57.58-34.44,62.31-1.76,2-5.17,2.33-37.47,2.67-19.64.2-36.24-.13-37-.63-2.17-1.37-36.61-60.68-36.64-63.09,0-1.9,31.57-59,35.19-63.58.88-1.15,9.49-1.62,37.49-1.66h36.23ZM892.92,600.6l19.13.56,18.32,31.36c10.06,17.25,18.32,32.11,18.33,33,0,2.4-34.32,62.05-36.34,63.21-1.13.52-18.1.82-37.61.65l-35.61-.27L820.83,698c-9.93-17.13-18.19-31.86-18.2-32.75,0-1.77,33.19-60.52,35.7-63.21C840.34,600,859.84,599.42,892.92,600.6Zm697.37-3.44c8.24,12.71,34.43,58.42,34.45,60.07,0,.88-7.94,15.66-17.78,32.74l-17.66,31.1-36.1.62c-19.89.46-36.74.26-37.63-.24-1.27-.74-35.7-58.41-37.26-62.57-.39-.89,7.56-16,17.51-33.63l18.29-32,36.61-.38,36.61-.38Zm-114.5,63.64c.9,1,9.79,15.36,19.47,32,16.24,27.57,17.54,30.22,16.18,33.28-3.84,8.65-34.09,60.27-35.85,61.3-1.26.65-18,.95-37.37.77l-35.09-.27L1384.43,756c-10.32-17.63-18.71-32.24-18.71-32.62,0-1.39,35.2-62.44,36.59-63.47.75-.52,17.22-.94,36.47-1C1468.05,659,1474.26,659.3,1475.79,660.8ZM574.91,671.05c3.33,3.89,35.84,60.43,35.86,62.46,0,1-7.94,15.79-17.77,32.87l-17.67,31.1-37,.76-37.11.64-3-4.66c-6.95-10.69-34.43-58.3-34.44-59.56,0-.76,8.2-15.67,18.15-33.13l18.17-31.86,36.35-.38C569.69,669,573.11,669.17,574.91,671.05Zm225.47-2.35c3.21,3.52,36,59.81,36.25,62s-31.32,58.47-35,62.94c-1.75,2-4.79,2.21-38.11,2.3H727.34L709,765.05c-10.06-17-18.32-31.74-18.33-32.75-.14-1.52,27.21-51.34,34.19-62.18,1.75-2.8,1.87-2.8,37.72-3.18C795.17,666.61,798.59,666.82,800.38,668.7Zm222.3-3.7c2.16.61,7.57,8.79,21,31.58,9.93,17,18.06,31.49,18.07,32.37s-8.07,15.42-17.9,32.62L1026,792.79l-36.22.76-36.1.63-2.57-3.4c-7.59-10.81-35.2-59.81-34.59-61.59,1.23-3.18,33.33-59.5,35.33-62.06,1.76-1.92,5-2.2,34.94-2.52C1005.06,664.43,1021.16,664.64,1022.68,665Zm226.75-2.1c1.65,1,36.47,59.92,37.39,63.34.66,2.14-29.3,56.93-34.18,62.55-1.76,2.05-5.17,2.34-37.6,2.67s-35.85.12-37.65-1.88c-3.46-3.9-35.84-60.32-35.87-62.47s31.07-58,34.58-62.31c1.75-1.92,5-2.2,36.83-2.53C1232.19,662.07,1248.54,662.4,1249.43,662.9Zm-561.1,72.85c1,1.25,9.92,16,19.6,32.73l17.67,30.35-18.17,32-18.29,32-36.48.38-36.61.38L613.61,860c-5-6.91-35.08-59.18-35.09-60.95s31.94-59.11,35.07-63.2c1-1.15,10-1.63,37.09-1.91C683.11,733.65,686.54,733.86,688.33,735.75ZM913,732.27c.77.5,9.66,15,19.72,32.1l18.32,31.23-16.43,28.93C925.56,840.46,917.1,855,915.85,857l-2.5,3.45-36.23.12H840.89l-18.44-31.22c-10.19-17.25-18.45-32-18.46-32.62,0-1.27,25.36-47,33.21-60l2.86-4.71,35.85-.38C895.54,731.44,912.27,731.77,913,732.27Zm225.48-2.34c2,1.37,36.61,60.56,36.63,62.84s-32.81,60.64-35.82,63.58c-1.38,1.54-8,1.86-37.35,1.91h-35.73l-18.31-30.84c-10.06-17-18.31-31.36-18.32-32-.14-1.52,32.94-60.27,35.7-63.59,1.75-1.92,5-2.21,36.84-2.54C1121.4,729.09,1137.75,729.43,1138.51,729.93Zm243.67,28.76c10.18,17.25,18.45,32.24,18.46,33.25,0,1.9-31.45,58-34.58,61.55-1.75,2-5.17,2.34-37.73,2.67l-35.85.38L1290,853c-5-7.3-35.07-59.06-35.09-60.7s4.09-9.17,27.61-50.08l8.58-14.91,36.36-.12h36.23Zm-806.68,43c2.3,1.37,36.61,60.69,36.64,63.22,0,1.27-7.94,16.17-17.77,33.25l-17.67,31.1-36.1.62c-19.88.46-36.73.39-37.5-.24-1.4-.87-33.76-54.63-36.74-61.06-1.3-2.78.44-6.34,16.86-35.14l18.29-32,36.23-.38C557.76,800.83,574.74,801.16,575.5,801.65Zm226.25-1.21c2.57,2.89,34.68,57.79,35.47,60.7.27,1.26-6.68,15-17.63,34.26L801.3,927.52l-36,.37-36,.37-3.09-4.78c-5.67-8.55-34.3-58-34.32-59.31,0-1.77,34.95-62.95,36.58-64.1.76-.52,17.09-1.2,36.35-1.4C796.54,798.35,800,798.56,801.75,800.44Zm225.48-2.34c3.33,3.9,35.85,60.44,35.87,62.47,0,1.77-31.82,59-35.07,62.94-1,1.28-10,1.75-37.1,2-32.43.33-35.85.12-37.65-1.89-3.07-3.52-35.84-60.19-35.86-62.09,0-1.39,24.48-45.61,33.2-60.14l2.86-4.72,36-.37C1022,796,1025.44,796.22,1027.23,798.1Zm243.13,26.49c10.06,17.12,18.2,31.86,18.21,33,0,2-32.94,60.52-35.7,63.46-2.51,2.43-69.77,3.39-72.84.89-2.68-2-37.12-60.94-37.14-63.6,0-1,7.94-15.91,17.64-32.86l17.67-31.1,37-.38,37-.39Zm209.86-29.93c1.29,2,9.8,16.12,19,31.61,14.7,25.05,16.25,28.46,15.14,31.13-2.23,5.09-32.84,58.49-34.84,60.79-1.75,2-5.17,2.34-37.72,2.67l-36,.38-3.09-4.78c-6.43-9.69-34.3-58.18-34.32-59.57s4.34-9.29,27.61-49.95l8.59-14.91,36.6-.38,36.61-.38Zm-772,102.78c10.19,17.25,18.58,31.86,18.58,32.24,0,1.27-35.2,63-36.58,63.85-.76.52-17.47,1.2-37.11,1.4-28.5.3-36,0-37.39-1.38-1-.88-9.78-15.36-19.46-32L578.5,931.22l16.42-29.05c9.08-15.93,17.54-30.59,18.79-32.63l2.49-3.44,36.62-.13h36.73ZM932.83,894C942.89,911.1,951,925.71,951,926.59c0,2.16-34.69,63.33-36.57,64.61-1.64,1.16-55.73,1.85-66.25.95l-7.61-.81L823.06,961.5c-9.8-16.37-17.67-30.73-17.69-31.87s8.2-16.3,18.15-33.89l18.16-32,36.48-.38,36.49-.37Zm207.82-31.17c1.8,2.14,30.68,50.74,35.08,59.18l2.07,4.16L1160.25,957c-9.7,17.08-18.17,31.35-19,31.87s-17.47,1.19-37.1,1.4l-35.85.37-3.09-4.66c-6.82-10.57-34.3-58.29-34.32-59.94s32.07-59.24,35.07-63.08c1-1.15,10-1.62,37.1-1.9C1135.44,860.7,1138.86,860.92,1140.65,862.8ZM1384,889.16c9.8,16.62,17.81,31.23,17.82,32.62.15,2.41-32.31,60.64-35.57,64-1.5,1.41-8.47,1.86-36.84,2.16-19.26.2-35.73-.14-36.49-.64-2.17-1.24-38.16-62.94-37.54-64.09.25-.51,8.46-15.16,18.42-32.62l17.78-31.48,37.25-.13h37.37Zm208.83-31.06c3.21,3.64,35.85,60.31,35.87,62.21,0,1-8.07,15.8-17.77,33l-17.8,31.22-37.24.39-37.37.39-18.31-30.85c-10-17-18.31-31.61-18.32-32.62-.15-1.65,3.83-8.78,27.47-50.2l8.59-14.91,36.48-.38C1587.66,856,1591.08,856.22,1592.87,858.1Zm-564.41,70.6c2.82,2.76,36,60.95,36,63,0,4.06-34.56,63.71-37.59,64.62-1.39.52-18.36.7-37.75.4L954,1056l-18.31-31.1c-9.93-17.13-18.19-31.49-18.19-32,0-1,34.45-61.68,36.57-64.36,1.13-1.41,7.46-1.6,37.49-1.15C1011.47,927.61,1028.08,928.33,1028.46,928.7Zm451.6-3.67c.77.88,9.41,15.35,19.21,32l17.67,30.22-17,30.2c-9.45,16.69-18,31.35-19,32.5-1.75,2-5,2.33-36.21,2.66-24.7.25-35.22-.14-37.38-1.26-1.91-1-9.12-11.82-20.34-31.08C1377.25,1004,1369.25,990,1369,989.4c-.52-1.26,34.68-64.34,36.69-65.5.63-.51,17.35-.82,37.11-.77C1471.81,923.21,1478.9,923.52,1480.06,925Z" transform="translate(1125.07 847.58)"/><path class="cls-4" d="M-320.46-280.33c-9.82,17.45-18.66,32.62-19.66,33.77-1.76,2.05-5.17,2.34-39,2.69l-37,.38-18.29,32.12c-10.21,17.71-19.05,32.63-19.8,33.14s-17.6,1.2-37.49,1.4l-36.1.38L-546.19-144c-15.18,26.51-19,32.63-21.82,33.42-3.41.93-68.41.08-70.07-.92-.51-.24-8.63-13.72-18-29.83s-17.92-30.22-19-31.48c-1.79-1.88-5.21-2.1-38.15-1.76-19.88.21-36.86-.12-37.63-.62s-8.5-13.09-17.27-27.94-17.15-29.22-18.82-31.86L-790-239.6l-38.25.65-38.13.77L-884.08-207c-9.83,17.21-18.42,32-19.17,32.76-1.13,1.28-10.5,1.76-38.49,2l-37.12.38-18.91,33.27-18.91,33.13,18.18,31.1c10.06,17.13,19.21,32.11,20.24,33.24,1.79,2,5.22,2.22,38.28,1.88s36.48-.12,38.27,1.76c4.36,4.89,37.14,62.7,36.52,64.35-.36,1-8.57,15.8-18.28,32.88l-17.66,31.09-36.74.64-36.73.76L-992.14,123c-9.58,17-18.17,31.61-19.17,32.89-1.5,1.79-5.8,2.09-38.74,2.43l-37.11.38L-1104.33,189c-9.33,16.69-18,31.86-19.29,33.64-1.62,2.43-1.86,3.7-.84,4.7.77.75,9.66,15.35,19.72,32.61l18.44,31.22,37.76.24,37.88.24,18.31,30.85c10.06,17,18.32,31.61,18.33,32.5s-7.7,15.41-17.4,32.23-17.79,31.47-18.16,32.49,7.64,16,18.47,34.52L-972,486.93l36.86-.38c33.7-.35,37.12-.13,38.91,1.75,3.21,3.64,37.13,61.82,37.15,63.72,0,1-8.07,16-18,33.5s-17.78,32.24-17.52,33,8.9,15.36,19.09,32.74L-857,682.74l37.5.24c20.65.16,37.89.62,38.4,1.12s9.15,14.85,19.21,32.11l18.31,31.22,38.77,0,38.76-.15,17.92-31.35c9.7-17.33,18.92-32.12,20.31-33.15,2-1.41,9.48-1.62,37.48-1.27l35,.39,18.7,31.61,18.57,31.6,37.88.24,37.88.24,18.83,32.11,18.83,32.11,5.59.83c3.17.35,20.27.68,38.26.49l32.43-.21L-312,782c9.08-16.06,17.79-31.22,19.42-33.77l3-4.85,37.49-.64,37.62-.77,17.54-30.72c9.58-16.94,18.29-31.73,19.29-32.88,1.5-1.92,5.56-2.09,37.23-2.16h35.6l19,32.11L-67,740.41l37.88.24,37.89.24,17,29c9.29,15.86,18.18,30.85,19.6,33l2.7,4.15,37.88-.4c35.09-.36,38-.52,38.61-2.68.49-1.14,8.7-16.18,18.53-33.38l17.79-31.22,38-1,37.86-1,18.3-31.86c10.08-17.59,18.28-32.5,18.27-33.26.12-1.39-35.23-62.85-37.54-65.36-.64-.75-16.1-1.35-38.78-1.49l-37.5-.25-17.15-29c-9.42-16-18.06-30.72-19.22-32.86l-2.2-3.91,17.8-31.09c9.7-17.08,18.29-31.48,19.17-32s18-1.2,38.12-1.41l36.74-.38,16.67-29.69c9.2-16.19,17.79-31.1,19-33.14l2.38-3.44,37-.39,37-.38,18.54-32.5c14.8-26.25,19.05-32.63,21.7-33.42,1.64-.39,18.36-.57,36.86-.25,31.68.55,34,.4,35.71-1.77,1.12-1.28,9.71-15.94,19.17-32.63s17.54-30.59,18.05-30.84-.93-3.92-3.38-8S480.25,249.26,472,235l-15.22-25.81L419.15,209c-20.65-.16-38-.61-38.39-1.12s-9.15-15-19.21-32.1l-18.32-31.23-38.76,0-38.77.15-17.79,31.48c-9.83,17.2-18.67,32.12-19.54,33.14-1.88,1.79-27,2.31-57.89,1.11L154,209.83l-18.83-32.11-19-32.11-37.75-.24-37.89-.24L25.37,119.32C2.16,80.16,3.58,83.18,5.94,78.47c4.72-9.42,33.21-58.87,34.47-59.65.76-.51,18.61-1.2,39.64-1.42l38.13-.4,18.91-33,18.79-33.13-19-32.49c-10.45-17.88-19.09-32.61-19.09-32.74s-17.24-.45-38.27-.74l-38.14-.49-2.49,3.7c-1.37,2-10,16.7-18.92,32.63L3.46-50.22l-37.75.4-37.87.39-2.44-3.52c-1.29-1.89-10.06-16.49-19.47-32.61-15.48-26.57-16.9-29.47-15.54-32.15.87-1.65,8.33-15,16.8-29.69S-76.89-175.81-76-177.72c1.36-3.19.33-5.33-17.73-36.18L-113-246.64l-36.73.38c-20.14.21-37.37-.11-38.14-.61s-9.92-15.48-20.36-33.36l-19.09-32.36-37.62.39-37.75.39Zm90.54-28.94c2.16.61,7.56,8.79,21,31.58,9.94,17,18.07,31.48,18.07,32.24,0,1.27-32,58-35.32,62.7-1.63,2.3-3.52,2.44-37.6,2.42-19.77.07-36.62-.51-37.39-1.14-2.3-1.75-36.61-60.68-36.63-62.83s33.32-61.28,35.83-63.46c1.51-1.16,10.62-1.63,35.58-1.89C-247.92-309.85-231.45-309.64-229.92-309.27Zm-560,73.34c2,1.88,36,60.56,36,62.21,0,2-32.57,59.88-35.82,63.59-1.63,2-4.79,2.33-28.73,2.57-14.82.16-31.17,0-36.36-.38l-9.51-.79-18.32-31.1c-9.93-17.12-18.19-31.86-18.2-32.62,0-1.9,34.82-62.94,36.58-64.1S-791-237.06-789.88-235.93Zm449.82-4.93c3.71,4.27,35.84,60.06,35.86,62.34,0,2-27.71,52.1-33.82,61.16l-2.37,3.57-36.1.38-36,.37-3.09-4.78c-8-12-34.3-58.3-34.32-60.33,0-2.28,33.18-61.53,35.32-63.07.76-.52,17.34-1.2,37-1.4C-345.28-243-341.86-242.74-340.06-240.86Zm225.47-3c2.68,2.25,37.11,60.8,37.14,63.33,0,1.65-33.31,61.92-35.56,64.22-.26.26-16.85.56-36.86.64-32.56.08-36.74-.13-38.54-2-1.15-1.13-9.79-15.35-19.2-31.47-15.09-26.07-16.91-29.72-15.79-32.39,2.22-5.09,32.83-58.49,34.84-60.92,1.75-1.92,5.17-2.21,37-2.54C-125.5-245.24-116.13-245-114.59-243.83Zm-788.48,74.7c3.2,3.51,37.25,62.07,36.76,63.09-.25.5-8.46,15-18.29,32.49l-17.79,31.48-37.5.13h-37.37l-18.57-31.73-18.57-31.73L-998-134.45c9.08-15.93,17.67-30.59,18.92-32.63l2.37-3.44,35.84-.37C-908.29-171.23-904.87-171-903.07-169.13ZM-690-172.36l13.81.62,17.93,30.6,17.8,30.47-2,4.2c-4.22,8.28-33.22,59-35.22,61.3s-3.77,2.32-36.72,2c-26.86-.23-35-.65-36.25-1.9-1.66-1.76-34.93-57.54-36.23-60.94-.78-1.9,33.17-62.68,36.57-65.37C-748.18-173-716.13-173.61-690-172.36Zm237.52-1.83c.77.88,9.53,15.35,19.46,32.23,15.48,26.31,17.81,31,16.56,33.27-.74,1.53-8.82,16-18,32.24l-16.8,29.69-36.35.38c-33.19.34-36.61.13-38.41-1.88-3.33-3.77-35.84-60.31-35.86-62.34,0-1.77,31.82-59,35.07-63.07C-524.86-176-454.55-176.58-452.5-174.19Zm225.09-3.1c2.42,1.49,38.15,63.33,37.54,64.85-.37.89-8.46,15.29-18,32.11l-17.42,30.59-37.11.39-37.24.38L-318-79.82c-10.06-17-18.32-31.73-18.33-32.74-.15-1.52,26.46-49.94,34.19-62.18,1.74-2.81,1.87-2.81,37.59-3.18C-244.9-178.12-228.18-177.79-227.41-177.29Zm-563,71.72c1.53,1,37.89,62.57,37.91,64.09,0,.64-8.08,15-17.78,32.24L-788.08,22l-37.75.39-37.88.4-17.8-30.22c-9.8-16.62-17.8-31.23-17.82-32.5-.15-2.41,32.44-60.77,35.57-64.09,1.51-1.41,8.6-1.87,36.84-2.16C-807.66-106.4-791.19-106.07-790.42-105.57Zm225.47-2.34c2.17,1.37,36.61,60.68,36.64,63.09,0,1.14-7.94,16.17-17.77,33.25l-17.67,31.22-35.46.62c-19.51.46-36.1.38-36.87-.25s-9.66-14.84-19.72-32L-674.24-43l15.81-27.78c8.7-15.29,17.17-29.95,18.79-32.63l3-4.72,35.21-.36C-582.18-108.74-565.71-108.41-564.95-107.91Zm226.25-1.21c1,1.26,9.93,16,19.6,32.61L-301.43-46l-17.91,31.61-18,31.73-36.73.76-36.74.64-2.44-3.4c-4.88-6.91-35.2-59.17-35.21-60.69,0-1.9,34.69-62.95,36.58-64.11.75-.51,17.09-1.19,36.34-1.39C-343.91-111.22-340.49-111-338.7-109.12Zm226.75-2.48c1.91,1.12,35.84,60.44,35.87,62.72S-110.26,14.31-112.65,16s-72.08.62-73.75-1.26c-4-4-36.62-62.08-36-63.86,1.23-3.3,33.21-59.12,35.34-61.68,1.88-2.3,3.78-2.32,38.11-1.79C-129.06-112.31-112.46-111.85-111.95-111.6Zm246.07,29c9.8,16.62,18.06,31.1,18.45,32.24.66,2-33,63.18-35.93,65.11-1.76,1.28-71.94,2-73.86.77C41.51,14.76,7.09-42.91,5.52-47.07,5-48.33,23.65-82.73,38.84-108.61l2.49-4.08,37.49-.13h37.5Zm-585.64,39.4c.76.5,9.65,14.85,19.71,32.1,16.26,27.83,18.07,31.48,16.83,34-4.47,8.66-32.85,58-34.47,59.78-1.76,2-5.17,2.33-36.84,2.66-19.26.2-35.6-.14-36.37-.64-1.78-1.12-37.89-62.57-37.91-64.47,0-1.52,31.82-58.1,34.58-61.55,1.75-1.91,5.17-2.2,37.47-2.54C-468.89-44-452.29-43.71-451.52-43.21ZM-225.28-45c3.07,2.5,37.52,62.44,36.77,64.23-.37.89-8.45,15.41-18,32.23L-224,82l-37,.38-37.11.39-18.45-31.48c-10.19-17.38-18.57-32-18.58-32.49,0-1.52,35.08-62.57,36.59-63.6.75-.51,17.09-1.19,36.34-1.39C-236.19-46.46-226.81-46.18-225.28-45ZM-.95-47.76c2.42.86,7.7,8.91,20.73,31.2C29.32-.06,37.45,14.29,37.84,15.3S30.53,31.22,20.7,48.42L2.91,79.64-35,80l-37.75.39L-91.15,49.08c-15.74-27.08-18.07-31.74-16.95-34C-102,3-74-45.36-72.51-46.64-70.12-48.56-5.91-49.61-.95-47.76ZM-657.53-8.51c10.18,17.25,18.44,32,18.45,32.75S-647,39.52-656.86,56.73L-674.52,88l-36.23.75c-33.31.6-36.35.51-38.14-1.5-1.54-1.89-31.07-51.75-35.73-60.57-1.55-3-2.42-1.49,28.07-54.76l6.72-11.73,37-.13H-676ZM-788.8,26.17c2.8,1.75,37.77,62.32,37.28,64.48-1.1,4.19-35,62.56-36.84,63.6-1.13.51-17.85.82-37.11.76l-35.09-.14-17.68-30.47c-9.8-16.63-18.31-31.23-19-32.37-1-1.51,2.81-9.15,15.88-32.21,9.45-16.57,17.92-31.1,18.92-32.12,1.51-1.41,8.09-1.86,36.84-2.16C-806.29,25.34-789.69,25.67-788.8,26.17Zm226.51-.45c.9.88,9.4,15,19.08,31.6,15.22,26.19,17.29,30.35,16.05,32.77-5.59,11.08-34.09,60.4-35.6,61.56s-10.62,1.76-36,2c-31.17.32-34.08.23-36.26-1.9-3.32-3.26-36.34-59.93-36.37-62.46,0-3.3,35.06-64.34,37.33-64.75,1-.26,17.35-.43,36.1-.37C-574.21,24.32-563.31,24.72-562.29,25.72Zm224.19-4.23c.77.5,9.66,15,19.85,32.22l18.44,31.36L-303,91.56c-1.86,3.57-9.95,18-18,32L-335.63,149l-37.37.39-37.24.38L-428,119.59c-9.8-16.62-18.06-31.23-18.45-32.36-.79-2.15,32.91-62.93,35.93-65,.76-.51,17.09-1.19,36.22-1.39S-338.86,21-338.1,21.49Zm237.19,15.27c5.8,9.82,14.19,24.05,18.57,31.61l7.87,13.85L-90.27,110C-99,125.3-107.44,140-109.06,142.5l-3,4.85-35.22.36c-19.25.2-35.72-.13-36.49-.63s-9.65-14.85-19.71-32.1c-16.25-27.7-18.07-31.48-16.83-34,5-9.68,34.09-60.28,35.22-61,.76-.64,17.6-1.07,37.49-1l36-.12Zm-574,54.61c2.56,2,37.12,61.06,37.15,63.59,0,1.9-31.32,57.84-34.58,61.8-1.75,2.05-5.17,2.34-37.6,2.67-26.72.28-36,0-37.25-1.25-3-2.76-36.23-60.69-36.26-63.1,0-2.15,30.82-57.71,34.57-62.31,1.76-1.92,5.17-2.2,37-2.53C-685.78,90-676.4,90.25-674.87,91.37Zm244.17,28.25c11.09,18.76,18.2,32.12,17.83,33.39-1.23,3.3-33.21,59.12-35.22,61.43-1.75,2-5.17,2.33-36.83,2.66-19.26.2-35.6-.14-36.24-.64-2-1.24-36.74-60.68-36.76-62.83,0-1.27,21.62-40.64,33.82-61.29l2.49-4.08,36.23-.12h36.24Zm206.15-33.43c2.55,1.62,36.61,60.81,36.25,63.09-.24,1.14-8.44,16.3-18.27,33.64l-17.91,31.47-36.11.12h-36.1l-18.7-31.73L-334,151.17l15.8-27.91C-309.46,108-301,93.32-299.38,90.64l3-4.72,35.21-.37C-241.91,85.35-225.44,85.69-224.55,86.19ZM4.39,87.48c4.5,6.92,34.3,58.05,34.31,59.06,0,.76-29.6,53.14-34.34,60.66l-3,4.85-35.34.36c-31.79.33-35.6.12-37.9-1.88-2.68-2.26-36.34-59.42-36.36-61.7,0-.76,8.19-15.67,18.15-33.26l18.16-32,36.61-.38L1.3,82.83ZM-899.06,95.6c3.59,4.14,35.85,60.44,35.87,62.59s-30.94,57.84-34.57,62.18c-1.75,2-5.17,2.34-37.73,2.68l-36,.37-3.09-4.78c-7.85-11.83-34.31-58.3-34.33-60.2,0-1.14,7.94-16.17,17.65-33.12l17.67-31.1,36.35-.38C-904.27,93.5-900.85,93.72-899.06,95.6Zm767.66,54.48,20.39-.21,18.18,31c10.06,17.12,18.2,31.73,18.21,32.62,0,2.66-34.32,62.18-36.84,63.85-1.76,1.16-11.39,1.39-37.24,1l-34.84-.4-17.66-29.58c-9.67-16.25-17.68-30.86-17.69-32.38-.16-3.29,32.43-61.14,36.32-64.61,2.51-2.18,4.15-2.32,16.7-1.69C-158.14,150-142.68,150.2-131.4,150.08Zm247-.92c.77.88,9.41,15,19.08,31.6,16,27.2,17.55,30.35,16.31,33.15-2.48,5.48-32.59,58.24-34.72,60.54-1.75,2-5.17,2.33-37,2.66-26,.27-35.47,0-37.13-1.26-2.56-1.87-37-60.55-37-63.08,0-3,34.32-62.44,37-63.86C45.8,147,113.7,147.16,115.62,149.16ZM-1024.82,160.5l13.82.62,17.8,30.22c9.8,16.62,17.8,31.23,17.82,32.5.15,2.53-33.93,63.19-36.45,65-.75.64-17.22.94-36.6.89-28.13-.09-35.61-.52-37-1.9-.9-1-9.66-15.23-19.34-31.72-15.6-26.32-17.54-30.48-16.43-33,2.36-5.09,32.84-58.49,34.84-60.91,1.63-1.92,4.41-2.2,24.81-2.29C-1048.89,159.87-1032.42,160.08-1024.82,160.5Zm461.34-5.17c1.78.49,8.09,10,20.86,31.84,10.06,17.25,18.32,32,18.33,32.87s-8,15.54-17.53,32.74c-12.69,22.3-18.42,31.23-20.32,31.63-1.51.4-18.24.32-37.37,0l-34.72-.53-18.57-31.73-18.57-31.73,16.42-29.06c9.08-15.93,17.54-30.58,18.79-32.62l2.37-3.45L-600,155C-581.35,154.76-565,155-563.48,155.33Zm246.2,28.36c10,17,18.31,31.73,18.32,32.74s-7.94,15.92-17.77,33.13l-17.79,31.22-36.1.75c-33.06.6-36.22.51-38-1.5s-30.16-49.86-35.07-59.31l-2.2-4,9.58-16.95,18.17-31.86,8.58-14.91,37-.13h37Zm659-36.75c1,.88,9.78,15.36,19.59,32.1l17.8,30.48L362,239.72C352.63,256.29,344,270.94,343,272.09c-1.76,2.05-5.17,2.34-37.47,2.67-19.64.21-36.24-.13-37-.63s-9.66-14.84-19.72-32.1c-16.38-27.82-18.06-31.48-16.82-34,4.59-8.79,32.84-58,34.47-59.9s5.17-2.2,37.72-2.54C332.85,145.26,340.33,145.56,341.74,146.94ZM-785.63,160.3c2,2.26,32.22,53.38,34.81,58.93,1.17,2.64-.44,6.08-15.12,32.08-9.08,15.93-17.67,30.59-18.92,32.5l-2.37,3.57-34.58.36c-25.71.27-35,0-36.5-1.27-2.3-1.75-37.12-60.8-37.14-63,0-1.27,32.45-59.25,35.2-63.08.87-1.15,9.86-1.62,37-1.9C-790.85,158.2-787.43,158.42-785.63,160.3ZM1.78,214.83c1.15.87,9.91,15.1,19.59,31.72,12.12,20.53,17.42,31,17.19,32.89-.37,1.52-8.32,16.43-17.77,33l-17,30.08-37,.13H-70.12L-88.43,311.8c-10-17-18.32-31.87-18.33-33-.14-1.77,31.32-58.6,35-63.2,1-1.15,9.86-1.62,36.33-1.89C-9.38,213.43.12,213.71,1.78,214.83Zm-899,12c2.69,2.88,35.34,59.81,35.36,61.71,0,2.15-32.57,60.13-35.58,63.33-1.5,1.54-7.45,1.85-37.61,1.78-25.21,0-36.11-.38-37.26-1.38-.77-.88-9.4-15-19.07-31.48-15.61-26.56-17.29-30.22-16-32.77,5.83-11.46,34.21-60.53,35.84-61.81C-968.92,223.9-899.36,224.57-897.19,226.83Zm226.51-.58c6.82,10.44,34.31,58.3,34.32,59.82,0,.89-8.07,15.66-17.9,32.87L-672,350.16l-35.85.75c-25.2.52-36.35.26-37.5-.75-1.66-1.37-34.29-56.27-36.11-60.68-.52-1.52,4.57-11.71,16.39-32.48,9.33-16.57,17.92-31.22,18.92-32.5,1.75-1.92,5.17-2.21,37.09-2.54l35.34-.37ZM-448,220.9c.9,1,9.79,15.48,19.59,32.1l17.8,30.47L-429,316l-18.41,32.49-36.36.38-36.35.38-18.19-30.85c-10.06-17.13-18.19-31.86-18.2-32.88,0-2.15,32.81-60.77,35.7-63.71C-518.22,219.22-450.58,218.39-448,220.9Zm225.48-1.84c2.18,2.51,37.13,62.07,37.15,63.21,0,.51-8,14.91-17.79,32l-17.66,31.23-37.24.38-37.25.39-18.44-31.48c-10.19-17.38-18.57-31.86-18.58-32.49s8.2-15.29,18.16-32.75L-296,217.67l35.72-.37C-227.75,217-224.33,217.18-222.54,219.06Zm453-3.44c4.37,6.29,35.07,59.18,35.09,60.7,0,1.9-34.69,62.94-36.58,64.1s-70.67,2-72.46.76c-2.93-1.87-38.16-63.33-37.41-65.24.86-2.42,33-59.12,34.7-61.42.88-1.15,10-1.63,37.74-1.91l36.48-.38ZM473.84,242c10.19,17.25,18.45,32,18.46,32.74s-8.07,15.29-17.9,32.5l-17.8,31.22-36.6.63c-20.14.46-37.24.39-37.88-.24-2.17-1.37-36.74-60.81-36.76-63,0-1.65,23.6-44.71,33.19-60.52l2.87-4.72,37-.13h37ZM-785.55,290.15c2.3,1.88,37.12,61.44,37.15,63.72,0,1.39-29.1,53.38-33.84,60.4l-2.37,3.57-35.72.37c-19.63.21-36.36-.13-37.12-.62-2.17-1.38-36.61-60.31-36.63-62.71,0-1.9,31.56-59.11,35.18-64,.88-1.15,9.74-1.62,36.22-1.89C-796.46,288.74-787.08,289-785.55,290.15Zm228.29.8c8.37,12.83,34.31,58.17,34.33,60.07,0,2.15-31,57.84-34.58,62.18-1.75,2.05-5.17,2.34-37.59,2.67s-35.85.12-37.65-1.89C-635.7,410.72-669,353-669,351.4s32-58.61,35-62.19c1.76-1.92,5.18-2.21,37.73-2.54l36-.38Zm225.48-2.34c9.92,15.22,34.44,58.8,33.82,60.45-1.23,3.18-33.33,59.51-35.33,61.81-1.76,2.05-5,2.34-36.34,2.66-25.58.27-34.83,0-36.37-1.27-2.42-1.75-37.11-60.42-37.14-62.7,0-1.52,4.34-9.17,27.61-49.95l8.59-14.91,36-.37,36.1-.38Zm222.28-5.48c2.56,2.63,36.23,60.69,36.25,62.84,0,1-7.94,15.92-17.77,33l-17.67,31.22-35.46.62c-19.51.46-36.1.37-36.87-.25s-9.66-15-19.72-32.1L-219,347.23l17-30.2c9.46-16.57,17.92-31.23,18.92-32.5,1.75-1.92,5.17-2.21,37-2.54C-119.9,281.72-110.78,282-109.5,283.13ZM135,310.74c10.06,17,18.32,31.48,18.32,32.37.15,1.77-34.56,63.07-36.45,64.35-.75.52-17.09,1.2-36.34,1.4-26,.26-35.35,0-36.88-1.27-2.3-1.75-37.12-61.31-37.14-63.46,0-1.27,32.57-59.38,35.07-62.57,1-1.15,9.74-1.62,38.24-1.66h36.87Zm208.07-31.68C346.44,283,379,339.5,379,341.53c0,1.77-31.82,59-35.07,62.94-1,1.28-10,1.75-37,2-19.5.21-36.23-.13-37-.63s-8.36-12.83-16.87-27.31c-21.93-37.4-21.15-35.76-19.54-38.94.75-1.53,8.83-16.06,18-32.37l16.8-29.57,36.48-.37C337.89,277,341.32,277.18,343.11,279.06Zm-561.46,74.37c7.08,10.7,34.3,57.92,34.31,59.44,0,1.9-33.19,60.52-35.7,63.21-2.51,2.43-69.77,3.38-72.84.88-1.14-.75-10.29-15.6-20.35-32.73l-18.19-31.35,17.67-31.22c9.82-17.21,18.8-31.62,19.93-32.14s18-.82,37.11-.76l35,0Zm209.72-7.12,13.3.62L23,378.29,41.3,409.52l-2,4.07c-5.59,11.21-33.34,59-35,60.29C2.21,475.67-25,476.21-53.41,475l-15.08-.6-17.8-30.22c-9.8-16.62-17.81-31.23-17.82-32.5-.15-2.41,34.05-63.44,36.45-64.86C-66,345.64-27.77,345.37-8.63,346.31Zm-886.16,14c6,9.44,34.3,58.05,34.32,59.31,0,1.78-34.95,63.08-36.58,64.23-.76.52-17.47,1.2-37.11,1.4l-35.84.37-3.09-4.78c-7.21-10.94-34.31-58.3-34.33-59.94s31.95-59,35.08-62.95c1-1.15,10.11-1.63,37.86-1.91l36.6-.38Zm241.34,24.48c10.06,17,18.32,31.86,18.33,33.13.16,2.27-30.44,57.57-34.44,62.3-1.75,2.05-5.17,2.34-37.47,2.67-19.64.21-36.24-.13-37-.63-2.17-1.37-36.61-60.68-36.63-63.09,0-1.9,31.56-59,35.19-63.58C-744.6,354.46-736,354-708,354h36.23Zm188.55-32.75,19.14.57L-427.45,384c10.06,17.25,18.32,32.12,18.33,33,0,2.41-34.32,62-36.33,63.22-1.14.51-18.11.82-37.62.64l-35.6-.26L-537,449.48c-9.93-17.13-18.19-31.87-18.2-32.75,0-1.78,33.2-60.53,35.7-63.21C-517.48,351.47-498,350.89-464.9,352.06Zm697.37-3.44c8.24,12.71,34.44,58.43,34.45,60.07,0,.89-7.94,15.67-17.77,32.75l-17.67,31.09-36.1.63c-19.88.46-36.73.25-37.63-.24-1.27-.75-35.7-58.41-37.26-62.58-.39-.88,7.56-16,17.51-33.63l18.3-32,36.6-.38,36.61-.39ZM118,412.27c.89,1,9.79,15.35,19.46,32,16.25,27.58,17.54,30.23,16.18,33.28-3.84,8.66-34.09,60.28-35.85,61.31-1.26.65-18,.95-37.36.77l-35.1-.27-18.7-31.86C16.29,489.84,7.91,475.23,7.9,474.85c0-1.39,35.21-62.44,36.59-63.47.75-.51,17.22-.94,36.48-1C110.23,410.45,116.44,410.76,118,412.27Zm-900.89,10.24C-779.58,426.4-747.06,483-747,485c0,1-8,15.79-17.78,32.87l-17.66,31.09-37,.76-37.11.64-3-4.65c-7-10.7-34.43-58.3-34.45-59.57,0-.76,8.2-15.67,18.15-33.13l18.17-31.86,36.35-.37C-788.13,420.41-784.7,420.63-782.91,422.51Zm225.48-2.34c3.2,3.51,36,59.8,36.24,61.95s-31.32,58.48-34.95,63c-1.75,2-4.79,2.2-38.1,2.3h-36.24l-18.31-30.85c-10.05-17-18.32-31.73-18.33-32.74-.14-1.52,27.21-51.34,34.2-62.18,1.74-2.81,1.87-2.81,37.72-3.18C-562.65,418.07-559.23,418.29-557.43,420.17Zm222.29-3.7c2.16.61,7.57,8.79,21,31.58,9.93,17,18.06,31.48,18.07,32.37S-304.16,495.83-314,513l-17.79,31.22L-368,545l-36.1.62-2.56-3.39c-7.59-10.82-35.21-59.81-34.6-61.59,1.24-3.18,33.34-59.51,35.34-62.06,1.75-1.92,5-2.21,34.94-2.52C-352.75,415.89-336.66,416.1-335.14,416.47Zm226.75-2.1c1.66,1,36.48,59.92,37.4,63.33.65,2.15-29.31,56.93-34.19,62.56-1.75,2-5.17,2.33-37.6,2.67s-35.85.12-37.65-1.89c-3.46-3.89-35.84-60.31-35.86-62.46s31.07-58,34.57-62.31c1.75-1.92,5-2.21,36.84-2.54C-125.63,413.53-109.28,413.87-108.39,414.37Zm-561.1,72.84c1,1.26,9.92,16,19.6,32.74l17.67,30.34-18.16,32-18.29,32-36.49.38-36.6.38-2.45-3.52c-5-6.92-35.07-59.18-35.09-61s31.94-59.11,35.07-63.2c1-1.15,10-1.62,37.1-1.9C-674.7,485.11-671.28,485.33-669.49,487.21Zm224.71-3.47c.76.5,9.66,15,19.71,32.1l18.32,31.22L-423.17,576c-9.09,15.93-17.55,30.46-18.8,32.5l-2.49,3.45-36.23.12h-36.24l-18.44-31.23c-10.19-17.25-18.45-32-18.45-32.62,0-1.26,25.35-47,33.2-60l2.86-4.72,35.85-.37C-462.27,482.9-445.55,483.24-444.78,483.74Zm225.48-2.35c2,1.38,36.6,60.56,36.63,62.84s-32.82,60.64-35.83,63.59c-1.38,1.53-8,1.86-37.35,1.91h-35.73l-18.31-30.85c-10.05-17-18.31-31.35-18.32-32-.14-1.52,32.95-60.26,35.7-63.59,1.75-1.91,5.05-2.2,36.84-2.53C-236.42,480.56-220.07,480.9-219.3,481.39ZM24.36,510.15c10.19,17.26,18.45,32.24,18.46,33.26,0,1.9-31.45,58-34.58,61.55-1.75,2-5.17,2.33-37.72,2.67l-35.85.37-2.45-3.52c-5-7.3-35.07-59.05-35.08-60.7s4.08-9.16,27.6-50.07l8.59-14.91,36.35-.13H5.92Zm-806.67,43c2.29,1.37,36.61,60.68,36.63,63.22,0,1.26-7.94,16.17-17.77,33.25l-17.67,31.09-36.1.63c-19.88.46-36.73.38-37.5-.25-1.4-.87-33.76-54.63-36.74-61.06-1.29-2.77.44-6.34,16.87-35.14l18.29-32,36.23-.37C-800.06,552.29-783.08,552.62-782.31,553.12Zm226.25-1.21c2.56,2.89,34.67,57.79,35.46,60.69.27,1.27-6.68,15-17.63,34.27L-556.52,679l-36,.37-36,.38-3.09-4.78c-5.66-8.56-34.3-58.05-34.31-59.32,0-1.77,34.94-62.94,36.58-64.1.75-.51,17.09-1.19,36.34-1.39C-561.28,549.81-557.86,550-556.06,551.91Zm225.47-2.34c3.34,3.89,35.85,60.43,35.87,62.46,0,1.77-31.82,59-35.07,63-1,1.28-10,1.75-37.1,2-32.43.34-35.85.12-37.64-1.89-3.08-3.51-35.85-60.18-35.87-62.08,0-1.4,24.49-45.61,33.2-60.14l2.87-4.72,36-.37C-335.8,547.47-332.38,547.69-330.59,549.57Zm243.14,26.48c10.06,17.13,18.19,31.87,18.2,33,0,2-32.94,60.51-35.7,63.46-2.51,2.43-69.77,3.38-72.83.88-2.68-2-37.12-60.93-37.15-63.59,0-1,7.94-15.92,17.65-32.87l17.66-31.09,37-.39,37-.38Zm209.86-29.92c1.29,2,9.79,16.11,19,31.6,14.7,25.06,16.26,28.46,15.15,31.13-2.23,5.1-32.84,58.49-34.85,60.8-1.75,2-5.17,2.33-37.72,2.67l-36,.37-3.09-4.78c-6.43-9.69-34.3-58.17-34.31-59.57s4.33-9.29,27.6-49.94l8.59-14.92,36.61-.38,36.61-.38Zm-772,102.78c10.19,17.25,18.58,31.86,18.58,32.24,0,1.26-35.2,63-36.58,63.85-.75.51-17.47,1.19-37.1,1.4-28.51.29-36,0-37.39-1.39-1-.87-9.79-15.35-19.46-32l-17.8-30.35,16.42-29.06c9.08-15.93,17.54-30.58,18.79-32.62l2.5-3.45,36.61-.13h36.74ZM-425,645.44c10.06,17.12,18.2,31.73,18.21,32.62,0,2.15-34.69,63.32-36.58,64.61-1.63,1.16-55.72,1.84-66.25.94l-7.61-.81L-534.76,713c-9.79-16.37-17.67-30.73-17.68-31.87s8.19-16.3,18.14-33.88l18.17-32,36.48-.38,36.48-.38Zm207.83-31.17c1.79,2.13,30.67,50.73,35.07,59.17l2.07,4.16-17.54,30.84c-9.71,17.08-18.17,31.36-19.05,31.87s-17.48,1.2-37.11,1.4l-35.85.37-3.09-4.65c-6.82-10.57-34.3-58.3-34.32-59.95s32.07-59.24,35.07-63.07c1-1.15,10-1.62,37.1-1.91C-222.38,612.17-219,612.38-217.16,614.27ZM26.22,640.62C36,657.24,44,671.86,44,673.25c.15,2.4-32.31,60.64-35.56,64C7,738.62,0,739.08-28.37,739.37c-19.25.2-35.73-.13-36.49-.63-2.17-1.25-38.15-63-37.53-64.1.25-.51,8.46-15.16,18.41-32.62l17.79-31.48,37.24-.13H8.42Zm208.84-31c3.2,3.64,35.84,60.31,35.86,62.21,0,1-8.07,15.79-17.77,33L235.36,736l-37.24.39-37.37.38-18.31-30.84c-10.06-17-18.32-31.61-18.33-32.63-.14-1.64,3.84-8.78,27.48-50.2l8.58-14.91,36.48-.38C229.84,607.47,233.27,607.69,235.06,609.57Zm-564.42,70.6c2.82,2.76,36,60.94,36,63,0,4.05-34.55,63.7-37.59,64.62-1.38.52-18.36.7-37.74.39l-35.1-.65-18.32-31.1c-9.93-17.13-18.19-31.48-18.19-32,0-1,34.45-61.67,36.58-64.36,1.12-1.4,7.45-1.59,37.48-1.15C-346.34,679.08-329.74,679.79-329.36,680.17Zm451.6-3.68c.77.88,9.41,15.36,19.21,32l17.67,30.22-17,30.2C132.62,785.59,124,800.25,123,801.4c-1.75,2-5,2.33-36.2,2.65-24.7.26-35.22-.14-37.39-1.26-1.91-1-9.11-11.81-20.34-31.08-9.67-16.24-17.67-30.22-17.93-30.85-.52-1.26,34.68-64.34,36.7-65.5.62-.51,17.34-.81,37.11-.76C114,674.68,121.09,675,122.24,676.49Z" transform="translate(1125.07 847.58)"/><path class="cls-4" d="M575.39-815.32c-9.82,17.46-18.66,32.63-19.66,33.78-1.76,2-5.17,2.33-39,2.68l-37,.39-18.29,32.11c-10.21,17.72-19,32.63-19.8,33.15s-17.6,1.19-37.49,1.4l-36.1.38-18.41,32.49c-15.18,26.51-19,32.63-21.82,33.42-3.41.92-68.41.08-70.07-.92-.51-.25-8.63-13.72-18-29.84s-17.92-30.21-18.95-31.47c-1.79-1.88-5.21-2.1-38.15-1.76-19.88.21-36.86-.12-37.63-.62s-8.5-13.09-17.27-28-17.15-29.21-18.82-31.85l-3.09-4.66-38.25.65-38.13.78L11.77-741.94c-9.83,17.21-18.42,32-19.17,32.76-1.13,1.28-10.5,1.75-38.49,2l-37.12.38-18.91,33.26-18.91,33.14,18.18,31.1c10.06,17.13,19.21,32.11,20.24,33.24,1.79,2,5.22,2.22,38.28,1.88s36.48-.13,38.27,1.75c4.36,4.9,37.14,62.71,36.53,64.36-.37,1-8.58,15.8-18.29,32.88L-5.28-444l-36.74.64-36.73.76-17.54,30.71c-9.58,16.95-18.17,31.61-19.17,32.89-1.5,1.79-5.8,2.08-38.74,2.43l-37.11.38L-208.48-346c-9.33,16.7-18,31.86-19.29,33.65-1.62,2.42-1.86,3.69-.84,4.7.77.75,9.66,15.35,19.72,32.6l18.44,31.23,37.76.24,37.88.24,18.31,30.85c10.06,17,18.32,31.61,18.33,32.49s-7.7,15.41-17.4,32.24-17.79,31.47-18.16,32.49,7.64,16,18.47,34.52L-76.17-48l36.86-.38c33.7-.35,37.12-.14,38.91,1.75C2.81-43,36.73,15.13,36.75,17c0,1-8.07,16-18,33.51S1,82.78,1.21,83.53s8.9,15.37,19.09,32.74l18.57,31.48,37.5.25c20.65.16,37.89.62,38.4,1.12S123.92,164,134,181.22l18.31,31.23,38.77,0,38.76-.15,17.92-31.35c9.7-17.33,18.92-32.12,20.31-33.15,2-1.42,9.48-1.62,37.48-1.28l35,.4,18.7,31.6,18.57,31.61,37.88.24,37.88.24,18.83,32.11,18.83,32.11,5.59.83c3.17.34,20.27.67,38.26.49l32.43-.21L583.89,247c9.08-16.06,17.79-31.23,19.42-33.78l3-4.84,37.49-.64,37.62-.77L699,176.24c9.58-17,18.29-31.73,19.29-32.88,1.5-1.92,5.56-2.09,37.23-2.16h35.6L810,173.31l18.83,32.11,37.88.24,37.89.24,17,29c9.29,15.87,18.18,30.85,19.6,33l2.7,4.16,37.88-.4c35.09-.36,38-.52,38.61-2.68.49-1.14,8.7-16.18,18.53-33.38l17.79-31.23,38-1,37.86-1,18.3-31.86c10.08-17.59,18.28-32.5,18.27-33.26.12-1.39-35.23-62.85-37.54-65.36-.64-.75-16.1-1.35-38.78-1.5l-37.5-.24-17.15-29c-9.42-16-18.06-30.72-19.22-32.87l-2.2-3.9,17.8-31.1c9.7-17.07,18.29-31.48,19.17-32s18-1.2,38.12-1.41l36.74-.38,16.67-29.7c9.2-16.18,17.79-31.09,19-33.13l2.38-3.45,37-.38,37-.39,18.54-32.49c14.8-26.25,19-32.63,21.7-33.42,1.64-.4,18.36-.57,36.86-.26,31.68.56,34,.41,35.71-1.76,1.12-1.28,9.71-15.94,19.17-32.63s17.54-30.59,18-30.85-.93-3.92-3.38-7.94-11.22-18.76-19.47-33l-15.22-25.82L1315-326c-20.65-.16-38-.62-38.39-1.12s-9.15-15-19.21-32.11l-18.32-31.22-38.76,0-38.77.15-17.79,31.47c-9.83,17.21-18.67,32.12-19.54,33.15-1.88,1.79-27,2.3-57.89,1.1l-16.47-.58L1031-357.26l-19-32.11-37.75-.24-37.89-.24-15.21-25.82c-23.21-39.15-21.79-36.13-19.43-40.84,4.72-9.42,33.21-58.87,34.47-59.65.76-.51,18.61-1.2,39.64-1.42L1014-518l18.91-33,18.79-33.13-19-32.49c-10.45-17.88-19.09-32.61-19.09-32.74s-17.24-.45-38.27-.74l-38.14-.49-2.49,3.7c-1.37,2-10,16.7-18.92,32.63l-16.55,29-37.75.39-37.87.4-2.44-3.52c-1.29-1.89-10.06-16.5-19.47-32.61-15.48-26.57-16.9-29.47-15.54-32.15.87-1.65,8.33-15,16.8-29.69S819-710.8,819.82-712.71c1.36-3.18.33-5.32-17.73-36.17l-19.22-32.74-36.73.38c-20.14.21-37.37-.12-38.14-.62s-9.92-15.48-20.36-33.36l-19.09-32.36-37.62.39-37.75.4Zm90.54-28.94c2.16.62,7.56,8.79,21,31.59,9.94,17,18.07,31.48,18.07,32.24,0,1.27-32,58-35.32,62.7-1.63,2.29-3.52,2.44-37.6,2.41-19.77.08-36.62-.5-37.39-1.13-2.3-1.75-36.61-60.68-36.63-62.83s33.32-61.29,35.83-63.47c1.51-1.15,10.62-1.63,35.58-1.89C647.93-844.83,664.4-844.62,665.93-844.26ZM106-770.91c2,1.87,36,60.56,36,62.2,0,2-32.56,59.89-35.82,63.59-1.63,2-4.79,2.33-28.73,2.58-14.82.16-31.17-.05-36.36-.38l-9.51-.79-18.32-31.1C3.29-691.94-5-706.67-5-707.43c0-1.9,34.82-63,36.58-64.11S104.82-772,106-770.91Zm449.82-4.93c3.71,4.27,35.84,60.06,35.86,62.34,0,2-27.71,52.1-33.82,61.16l-2.37,3.57-36.1.37-36,.38-3.09-4.78c-8-12-34.3-58.3-34.32-60.33,0-2.28,33.18-61.53,35.32-63.08.76-.51,17.34-1.19,37-1.39C550.57-777.94,554-777.72,555.79-775.84Zm225.47-3c2.68,2.26,37.11,60.81,37.14,63.34,0,1.65-33.31,61.92-35.56,64.22-.26.26-16.85.56-36.86.64-32.56.08-36.74-.13-38.54-2-1.15-1.13-9.79-15.35-19.2-31.47-15.09-26.07-16.91-29.72-15.79-32.4,2.22-5.09,32.83-58.49,34.84-60.91,1.75-1.92,5.17-2.21,37-2.54C770.35-780.22,779.73-779.94,781.26-778.82ZM-7.22-704.12C-4-700.6,30-642,29.54-641c-.25.51-8.46,15-18.29,32.5L-6.54-577.06l-37.5.14H-81.41L-100-608.64l-18.57-31.74,16.42-29C-93-685.36-84.46-700-83.21-702.06l2.37-3.44,35.84-.38C-12.44-706.22-9-706-7.22-704.12Zm213.05-3.22,13.81.61,17.93,30.6,17.8,30.48-2,4.2c-4.22,8.28-33.21,59-35.22,61.3s-3.77,2.32-36.72,2c-26.86-.23-35-.65-36.25-1.91-1.66-1.75-34.93-57.53-36.23-60.94-.78-1.89,33.17-62.67,36.57-65.37C147.67-708,179.72-708.59,205.83-707.34Zm237.52-1.84c.77.88,9.53,15.36,19.46,32.23,15.48,26.32,17.81,31,16.56,33.28-.74,1.52-8.82,16-18,32.24l-16.8,29.69-36.35.38c-33.19.34-36.61.12-38.41-1.89-3.33-3.76-35.84-60.31-35.86-62.33,0-1.78,31.82-59,35.07-63.08C371-711,441.3-711.56,443.35-709.18Zm225.09-3.09c2.42,1.49,38.15,63.32,37.54,64.85-.37.89-8.46,15.29-18,32.11l-17.42,30.59-37.11.38-37.24.39L577.86-614.8c-10.06-17-18.32-31.73-18.33-32.75-.15-1.51,26.46-49.93,34.19-62.17,1.74-2.81,1.87-2.81,37.59-3.18C651-713.11,667.67-712.77,668.44-712.27Zm-563,71.72c1.53,1,37.89,62.57,37.91,64.09,0,.63-8.08,15-17.78,32.24L107.77-513,70-512.61l-37.88.4L14.35-542.43c-9.81-16.63-17.81-31.24-17.83-32.5C-3.63-577.34,29-635.7,32.09-639c1.51-1.41,8.6-1.86,36.84-2.15C88.19-641.38,104.66-641,105.43-640.55Zm225.47-2.34c2.17,1.37,36.61,60.68,36.64,63.09,0,1.14-7.94,16.17-17.77,33.25L332.1-515.33l-35.46.62c-19.51.46-36.1.38-36.87-.25s-9.66-14.85-19.72-32L221.61-578l15.81-27.78c8.7-15.3,17.17-30,18.79-32.63l3-4.72,35.21-.37C313.67-643.73,330.14-643.39,330.9-642.89Zm226.25-1.21c1,1.26,9.93,16,19.6,32.61L594.42-581l-17.91,31.61-18,31.73-36.73.76-36.74.64-2.44-3.4c-4.88-6.92-35.2-59.18-35.21-60.7,0-1.9,34.69-62.94,36.58-64.1.75-.52,17.09-1.19,36.34-1.39C551.94-646.2,555.36-646,557.15-644.1Zm226.75-2.48c1.91,1.12,35.84,60.43,35.87,62.71S785.59-520.67,783.2-519s-72.08.62-73.75-1.26c-4-4-36.62-62.08-36-63.86,1.23-3.31,33.21-59.13,35.34-61.68,1.88-2.3,3.78-2.32,38.11-1.79C766.79-647.29,783.39-646.83,783.9-646.58Zm246.07,29c9.8,16.62,18.06,31.1,18.45,32.24.66,2-33,63.18-35.93,65.11-1.76,1.28-71.94,2-73.85.76-1.28-.74-35.7-58.41-37.27-62.57-.52-1.26,18.13-35.66,33.32-61.54l2.49-4.08,37.49-.13h37.5Zm-585.64,39.4c.76.5,9.65,14.85,19.71,32.1,16.26,27.83,18.07,31.48,16.83,34-4.47,8.66-32.85,58-34.47,59.77-1.76,2.05-5.17,2.34-36.84,2.67-19.26.2-35.6-.14-36.37-.64-1.78-1.12-37.89-62.57-37.91-64.47,0-1.52,31.82-58.1,34.58-61.55,1.75-1.92,5.17-2.21,37.47-2.54C427-579,443.56-578.69,444.33-578.19ZM670.57-580c3.07,2.51,37.52,62.45,36.77,64.23-.37.89-8.45,15.42-18,32.24L671.89-453l-37,.38-37.11.39-18.45-31.48c-10.19-17.38-18.57-32-18.58-32.5,0-1.52,35.08-62.56,36.59-63.59.75-.52,17.09-1.19,36.34-1.39C659.66-581.44,669-581.16,670.57-580Zm224.33-2.71c2.42.87,7.7,8.92,20.73,31.21,9.54,16.49,17.67,30.85,18.06,31.86s-7.31,15.91-17.14,33.12l-17.79,31.22-37.87.39-37.75.4L804.7-485.91c-15.74-27.07-18.07-31.73-17-34,6.08-12.09,34.08-60.4,35.59-61.68C825.73-583.55,889.94-584.59,894.9-582.75ZM238.32-543.49c10.18,17.25,18.44,32,18.45,32.74s-7.95,15.29-17.78,32.49L221.33-447l-36.23.76c-33.31.6-36.35.51-38.14-1.5-1.54-1.89-31.07-51.75-35.73-60.57-1.55-3-2.42-1.49,28.07-54.77L146-574.84l37-.13h36.86ZM107.05-508.81c2.8,1.74,37.77,62.32,37.28,64.47-1.1,4.2-35,62.57-36.84,63.6-1.13.52-17.85.82-37.11.77l-35.09-.14L17.61-410.59C7.81-427.21-.7-441.82-1.34-442.95c-1-1.51,2.81-9.15,15.88-32.22,9.45-16.56,17.92-31.09,18.92-32.12,1.51-1.41,8.09-1.85,36.84-2.15C89.56-509.64,106.16-509.31,107.05-508.81Zm226.51-.45c.9.87,9.4,15,19.08,31.6,15.22,26.19,17.29,30.35,16.05,32.77-5.59,11.08-34.09,60.4-35.6,61.56s-10.62,1.75-35.95,2c-31.17.32-34.08.22-36.26-1.91-3.32-3.26-36.34-59.92-36.37-62.46,0-3.29,35.06-64.34,37.33-64.74,1-.26,17.35-.43,36.1-.37C321.64-510.66,332.54-510.27,333.56-509.26Zm224.19-4.23c.77.5,9.66,15,19.85,32.22L596-449.91l-3.23,6.49c-1.86,3.57-9.95,18-18,32l-14.55,25.48-37.37.39-37.24.39-17.8-30.22c-9.8-16.62-18.06-31.23-18.45-32.37-.79-2.14,32.91-62.92,35.93-65,.76-.52,17.09-1.19,36.22-1.39S557-514,557.75-513.49Zm237.19,15.27c5.8,9.82,14.19,24.05,18.57,31.6l7.87,13.86L805.58-425c-8.71,15.29-17.17,30-18.79,32.5l-3,4.85-35.22.36c-19.25.2-35.72-.13-36.49-.63s-9.65-14.85-19.71-32.1c-16.25-27.71-18.07-31.49-16.83-34,5-9.68,34.09-60.28,35.22-61.05.76-.64,17.6-1.07,37.49-1l36-.12ZM221-443.61c2.56,2,37.12,61.06,37.15,63.59,0,1.9-31.32,57.84-34.58,61.8-1.75,2.05-5.17,2.34-37.6,2.67-26.72.28-36,0-37.25-1.26-2.95-2.75-36.23-60.68-36.26-63.09,0-2.15,30.82-57.71,34.57-62.31,1.76-1.92,5.17-2.21,37-2.54C210.07-445,219.45-444.74,221-443.61Zm244.17,28.25C476.24-396.6,483.35-383.25,483-382c-1.23,3.31-33.21,59.13-35.22,61.43-1.75,2.05-5.17,2.34-36.83,2.67-19.26.2-35.6-.14-36.24-.64-2-1.25-36.74-60.68-36.76-62.84,0-1.26,21.62-40.63,33.82-61.28l2.49-4.08,36.23-.13h36.24ZM671.3-448.8c2.55,1.62,36.61,60.81,36.25,63.1-.24,1.14-8.44,16.3-18.27,33.63l-17.91,31.48-36.11.12h-36.1l-18.7-31.73-18.58-31.61,15.8-27.91c8.71-15.29,17.18-29.95,18.8-32.62l3-4.72,35.21-.37C653.94-449.63,670.41-449.29,671.3-448.8Zm228.94,1.3c4.5,6.92,34.3,58.05,34.31,59.06,0,.76-29.6,53.14-34.34,60.66l-3,4.84-35.34.37c-31.79.33-35.6.12-37.9-1.89-2.68-2.25-36.34-59.41-36.36-61.69,0-.76,8.19-15.67,18.15-33.26l18.16-32,36.61-.38,36.61-.39ZM-3.21-439.38c3.59,4.14,35.85,60.43,35.87,62.59S1.72-318.95-1.91-314.61c-1.75,2.05-5.17,2.33-37.73,2.67l-36,.38-3.09-4.79c-7.85-11.82-34.31-58.3-34.33-60.2,0-1.14,7.94-16.17,17.65-33.12l17.67-31.09,36.35-.38C-8.42-441.48-5-441.26-3.21-439.38ZM764.45-384.9l20.39-.21,18.18,31c10.06,17.13,18.2,31.74,18.21,32.63,0,2.66-34.32,62.18-36.84,63.85-1.76,1.16-11.39,1.38-37.24,1l-34.84-.4-17.66-29.59C685-302.87,677-317.48,677-319c-.16-3.29,32.43-61.15,36.32-64.61,2.51-2.18,4.15-2.32,16.7-1.69C737.71-385,753.17-384.78,764.45-384.9Zm247-.92c.77.88,9.41,15,19.08,31.6,16,27.2,17.55,30.35,16.31,33.15-2.48,5.47-32.59,58.23-34.72,60.54-1.75,2-5.17,2.33-37,2.66-26,.27-35.47,0-37.13-1.26-2.56-1.87-37-60.55-37-63.09,0-3,34.32-62.43,37-63.85C941.65-388,1009.55-387.83,1011.47-385.82ZM-129-374.48l13.82.62,17.8,30.22c9.8,16.62,17.8,31.23,17.82,32.5.15,2.53-33.93,63.19-36.45,65-.75.64-17.22.93-36.6.88-28.13-.09-35.61-.51-37-1.89-.9-1-9.66-15.23-19.34-31.73-15.6-26.31-17.54-30.47-16.43-33,2.36-5.09,32.84-58.49,34.84-60.92,1.63-1.91,4.41-2.2,24.81-2.28C-153-375.12-136.57-374.91-129-374.48Zm461.34-5.17c1.78.49,8.09,10,20.86,31.83,10.06,17.26,18.32,32,18.33,32.88S363.61-299.4,354-282.2c-12.69,22.3-18.42,31.23-20.32,31.63-1.51.39-18.24.31-37.37,0l-34.72-.53-18.57-31.73-18.57-31.73,16.42-29.06c9.08-15.93,17.54-30.59,18.79-32.63l2.37-3.44,33.82-.35C314.5-380.23,330.85-380,332.37-379.65Zm246.2,28.35c10,17,18.31,31.74,18.32,32.75s-7.94,15.92-17.77,33.12L561.33-254.2l-36.1.75c-33.06.6-36.22.5-38-1.5s-30.16-49.86-35.07-59.31l-2.2-4,9.58-16.95c5.23-9.17,13.44-23.58,18.17-31.86L486.27-382l37-.13h37Zm659-36.74c1,.88,9.78,15.35,19.59,32.1l17.8,30.47-17.17,30.21c-9.33,16.56-17.92,31.22-18.92,32.37-1.76,2.05-5.17,2.34-37.47,2.67-19.64.21-36.24-.13-37-.63s-9.66-14.85-19.72-32.1c-16.38-27.83-18.06-31.48-16.82-34,4.59-8.79,32.84-58,34.47-59.9s5.17-2.21,37.72-2.54C1228.7-389.72,1236.18-389.42,1237.59-388ZM110.22-374.68c2,2.26,32.22,53.38,34.81,58.92,1.17,2.65-.44,6.09-15.12,32.09-9.08,15.93-17.67,30.58-18.92,32.5l-2.37,3.57L74-247.24c-25.71.27-35,0-36.5-1.27-2.3-1.75-37.12-60.8-37.14-63,0-1.26,32.45-59.24,35.2-63.07.87-1.15,9.86-1.62,37-1.91C105-376.78,108.42-376.57,110.22-374.68Zm787.41,54.53c1.15.87,9.91,15.1,19.59,31.72,12.12,20.52,17.42,31,17.19,32.89-.37,1.52-8.32,16.42-17.77,33l-17,30.08-37,.13H825.73l-18.31-30.85c-10-17-18.32-31.86-18.33-33-.14-1.77,31.32-58.6,34.95-63.2,1-1.15,9.86-1.62,36.33-1.9C886.47-321.56,896-321.28,897.63-320.15Zm-899,12C1.35-305.27,34-248.35,34-246.45c0,2.16-32.57,60.14-35.58,63.34-1.5,1.53-7.45,1.85-37.61,1.78-25.21,0-36.11-.38-37.26-1.39-.77-.87-9.4-15-19.07-31.47-15.61-26.57-17.29-30.22-16-32.77,5.83-11.46,34.21-60.53,35.84-61.82C-73.07-311.08-3.51-310.41-1.34-308.15Zm226.51-.58c6.82,10.44,34.31,58.3,34.32,59.82,0,.88-8.07,15.66-17.9,32.87L223.8-184.82l-35.85.75c-25.2.52-36.35.25-37.5-.75-1.66-1.37-34.29-56.27-36.11-60.69-.52-1.51,4.57-11.7,16.39-32.47,9.33-16.57,17.92-31.23,18.92-32.5,1.75-1.92,5.17-2.21,37.09-2.54l35.34-.37Zm222.66-5.36c.9,1,9.79,15.48,19.59,32.1l17.8,30.48L466.81-219l-18.41,32.5-36.36.38-36.35.38L357.5-216.61c-10.06-17.13-18.19-31.87-18.2-32.88,0-2.15,32.81-60.77,35.7-63.71C377.63-315.76,445.27-316.59,447.83-314.09Zm225.48-1.83c2.18,2.51,37.13,62.07,37.15,63.21,0,.5-8,14.9-17.79,32L675-189.51l-37.24.39-37.25.39-18.44-31.48c-10.19-17.38-18.57-31.86-18.58-32.5s8.2-15.28,18.16-32.74l18.16-31.86,35.72-.37C668.1-318,671.52-317.8,673.31-315.92Zm453-3.44c4.37,6.29,35.07,59.18,35.09,60.7,0,1.9-34.69,62.94-36.58,64.1s-70.67,2-72.46.75c-2.93-1.87-38.16-63.32-37.41-65.23.86-2.42,33-59.13,34.7-61.43.88-1.14,10-1.62,37.74-1.91l36.48-.38ZM1369.69-293c10.19,17.25,18.45,32,18.46,32.74s-8.07,15.29-17.9,32.49l-17.8,31.23-36.6.63c-20.14.46-37.24.39-37.88-.24-2.17-1.37-36.74-60.81-36.76-63,0-1.65,23.6-44.71,33.19-60.52l2.87-4.72,37-.13h37ZM110.3-244.83c2.3,1.88,37.12,61.44,37.15,63.72,0,1.39-29.09,53.38-33.84,60.4l-2.37,3.57-35.72.37c-19.63.2-36.36-.13-37.12-.63-2.17-1.37-36.61-60.3-36.63-62.71,0-1.9,31.56-59.11,35.18-64,.88-1.15,9.74-1.62,36.22-1.9C99.39-246.24,108.77-246,110.3-244.83Zm228.29.8C347-231.2,372.9-185.86,372.92-184c0,2.15-30.95,57.84-34.58,62.18-1.75,2-5.17,2.33-37.59,2.67S264.9-119,263.1-121c-3-3.26-36.23-60.94-36.25-62.58s32-58.61,35-62.19c1.76-1.92,5.18-2.21,37.73-2.55l36-.37Zm225.48-2.35c9.92,15.23,34.44,58.81,33.82,60.46-1.23,3.18-33.33,59.51-35.33,61.81-1.76,2-5,2.33-36.34,2.66-25.58.26-34.83,0-36.37-1.27-2.42-1.75-37.11-60.42-37.14-62.7,0-1.52,4.34-9.17,27.61-50l8.59-14.91,36-.38L561-251Zm222.28-5.47c2.56,2.63,36.23,60.68,36.25,62.84,0,1-7.94,15.92-17.77,33l-17.67,31.23-35.46.62c-19.51.45-36.1.37-36.87-.25s-9.66-15-19.72-32.1L676.8-187.75l17-30.2c9.46-16.57,17.92-31.23,18.92-32.51,1.75-1.91,5.17-2.2,37-2.53C776-253.27,785.07-253,786.35-251.85Zm244.54,27.61c10.06,17,18.32,31.48,18.32,32.37.15,1.77-34.56,63.07-36.45,64.35-.75.52-17.09,1.19-36.34,1.39-26,.27-35.35,0-36.88-1.26-2.3-1.75-37.12-61.31-37.14-63.47,0-1.26,32.57-59.37,35.07-62.56,1-1.15,9.74-1.62,38.24-1.67h36.87ZM1239-255.92c3.33,3.89,35.85,60.44,35.87,62.46,0,1.78-31.82,59-35.07,63-1,1.28-10,1.75-37,2-19.5.2-36.23-.13-37-.63s-8.36-12.83-16.87-27.31c-21.93-37.4-21.15-35.76-19.54-39,.75-1.52,8.83-16,18-32.36l16.8-29.57,36.48-.38C1233.74-258,1237.17-257.8,1239-255.92ZM677.5-181.55c7.08,10.69,34.3,57.92,34.31,59.44,0,1.9-33.19,60.52-35.7,63.21-2.51,2.43-69.77,3.38-72.83.88-1.15-.75-10.3-15.6-20.36-32.73L564.73-122.1l17.67-31.23c9.82-17.2,18.8-31.61,19.93-32.13s18-.82,37.11-.76h35Zm209.72-7.12,13.3.62,18.32,31.36,18.31,31.22-2,4.08c-5.59,11.2-33.34,59-35,60.28-2.14,1.8-29.37,2.34-57.76,1.11l-15.08-.6-17.8-30.22c-9.8-16.62-17.81-31.24-17.82-32.5-.15-2.41,34-63.45,36.45-64.86C829.82-189.34,868.08-189.61,887.22-188.67Zm-886.16,14c6.05,9.44,34.3,58,34.32,59.31C35.4-113.57.43-52.27-1.2-51.11c-.76.52-17.47,1.2-37.11,1.4l-35.84.37-3.09-4.78c-7.21-10.95-34.31-58.3-34.33-59.95S-79.62-173-76.49-177c1-1.15,10.11-1.63,37.86-1.92l36.6-.38ZM242.4-150.17c10.06,17,18.32,31.86,18.33,33.12.16,2.28-30.44,57.58-34.44,62.31-1.75,2.05-5.17,2.34-37.47,2.67-19.64.2-36.24-.13-37-.63-2.17-1.37-36.61-60.68-36.63-63.09,0-1.9,31.56-59,35.19-63.58.87-1.15,9.48-1.62,37.48-1.66h36.23ZM431-182.92l19.14.56L468.4-151c10.06,17.25,18.32,32.11,18.33,33,0,2.41-34.32,62.05-36.33,63.21-1.14.52-18.11.83-37.62.65l-35.6-.27-18.32-31.1c-9.93-17.12-18.19-31.86-18.2-32.75,0-1.77,33.2-60.52,35.7-63.2C378.37-183.51,397.87-184.09,431-182.92Zm697.37-3.44c8.24,12.71,34.44,58.42,34.45,60.07,0,.89-7.94,15.67-17.77,32.74l-17.67,31.1-36.1.63c-19.88.46-36.73.25-37.63-.25-1.27-.74-35.7-58.41-37.26-62.57-.39-.88,7.56-16,17.51-33.63l18.3-32,36.6-.38,36.61-.38Zm-114.49,63.64c.89,1,9.79,15.36,19.46,32,16.25,27.58,17.54,30.22,16.18,33.28-3.84,8.65-34.09,60.27-35.85,61.31-1.26.64-18,.94-37.36.76l-35.1-.26-18.7-31.86c-10.32-17.63-18.7-32.24-18.71-32.62,0-1.39,35.21-62.44,36.59-63.47.75-.51,17.22-.94,36.48-1C1006.08-124.54,1012.29-124.22,1013.83-122.72ZM112.94-112.47C116.27-108.58,148.79-52,148.81-50c0,1-7.95,15.79-17.78,32.87L113.37,14l-37,.76-37.11.64-3-4.66C29.35,0,1.88-47.59,1.86-48.86c0-.76,8.2-15.67,18.15-33.13l18.17-31.86,36.36-.38C107.72-114.57,111.15-114.35,112.94-112.47Zm225.48-2.34c3.2,3.51,36,59.8,36.24,62s-31.32,58.47-35,63c-1.75,2-4.79,2.2-38.1,2.29H265.37L247.06-18.47c-10.05-17-18.32-31.73-18.33-32.75-.14-1.52,27.21-51.33,34.2-62.18,1.74-2.8,1.87-2.8,37.72-3.17C333.2-116.91,336.62-116.69,338.42-114.81Zm222.29-3.71c2.16.62,7.57,8.79,21,31.58,9.93,17,18.06,31.49,18.07,32.38s-8.07,15.41-17.9,32.61L564.07,9.28,527.84,10l-36.1.63-2.56-3.39C481.59-3.55,454-52.54,454.58-54.32c1.24-3.18,33.34-59.51,35.34-62.07,1.75-1.92,5-2.2,34.94-2.51C543.1-119.09,559.19-118.88,560.71-118.52Zm226.75-2.1c1.66,1,36.48,59.93,37.4,63.34.65,2.14-29.31,56.93-34.19,62.56-1.75,2-5.17,2.33-37.6,2.67s-35.85.12-37.65-1.89C712,2.17,679.58-54.25,679.56-56.41s31.07-58,34.57-62.31c1.75-1.91,5-2.2,36.84-2.53C770.22-121.45,786.57-121.11,787.46-120.62ZM226.36-47.77c1,1.25,9.92,16,19.6,32.73l17.67,30.35-18.16,32-18.29,32-36.49.38-36.6.38-2.45-3.53c-5-6.91-35.07-59.17-35.09-60.95s31.94-59.11,35.07-63.2c1-1.15,10-1.62,37.1-1.9C221.15-49.87,224.57-49.65,226.36-47.77Zm224.71-3.48c.76.5,9.66,15,19.71,32.1L489.1,12.08,472.68,41c-9.09,15.93-17.55,30.46-18.8,32.5L451.39,77l-36.23.12H378.92L360.48,45.85C350.29,28.6,342,13.86,342,13.23c0-1.27,25.35-47,33.2-60l2.86-4.72,35.85-.37C433.58-52.08,450.3-51.74,451.07-51.25Zm225.48-2.34c2,1.37,36.6,60.56,36.63,62.84s-32.82,60.64-35.83,63.59c-1.38,1.53-8,1.85-37.35,1.9H604.27L586,43.89c-10.05-17-18.31-31.36-18.32-32-.14-1.52,33-60.27,35.7-63.59,1.75-1.92,5-2.2,36.84-2.53C659.43-54.42,675.78-54.09,676.55-53.59ZM920.21-24.83C930.4-7.58,938.66,7.41,938.67,8.43c0,1.9-31.45,58-34.58,61.54-1.75,2-5.17,2.34-37.72,2.68L830.52,73l-2.45-3.52c-5-7.3-35.07-59-35.08-60.7s4.08-9.17,27.6-50.08l8.59-14.91,36.35-.12h36.24Zm-806.67,43c2.29,1.37,36.61,60.68,36.63,63.21,0,1.27-7.94,16.17-17.77,33.25l-17.67,31.1-36.09.63c-19.89.46-36.74.38-37.51-.25C39.73,145.21,7.37,91.45,4.39,85c-1.29-2.77.44-6.34,16.87-35.14l18.29-32,36.23-.37C95.79,17.31,112.77,17.64,113.54,18.14Zm226.25-1.21c2.56,2.88,34.67,57.79,35.46,60.69.27,1.27-6.68,15-17.63,34.26L339.33,144l-36,.37-36,.38L264.29,140c-5.66-8.55-34.3-58-34.31-59.31,0-1.77,34.94-62.95,36.58-64.1.75-.52,17.09-1.19,36.34-1.39C334.57,14.83,338,15.05,339.79,16.93Zm225.47-2.35c3.34,3.9,35.85,60.44,35.87,62.47,0,1.77-31.82,59-35.07,63-1,1.27-10,1.75-37.1,2-32.43.34-35.85.12-37.64-1.89-3.08-3.52-35.85-60.18-35.87-62.08,0-1.4,24.49-45.61,33.2-60.15l2.87-4.71,36-.38C560.05,12.49,563.47,12.7,565.26,14.58ZM808.4,41.07c10.06,17.13,18.19,31.86,18.2,33,0,2-32.94,60.52-35.7,63.46-2.51,2.44-69.77,3.39-72.83.89-2.68-2-37.12-60.93-37.15-63.59,0-1,7.94-15.92,17.65-32.87l17.66-31.1,37-.38,37-.39Zm209.86-29.92c1.29,2,9.79,16.11,19,31.6,14.7,25.06,16.26,28.46,15.15,31.13-2.23,5.09-32.84,58.49-34.85,60.79-1.75,2.05-5.17,2.34-37.72,2.68l-36,.37-3.09-4.78c-6.43-9.69-34.3-58.18-34.31-59.57s4.33-9.29,27.6-49.95L942.6,8.51l36.61-.38,36.61-.38Zm-772,102.78c10.19,17.25,18.58,31.86,18.58,32.24,0,1.26-35.2,62.94-36.58,63.85-.75.51-17.47,1.19-37.1,1.39-28.51.3-36,0-37.39-1.38-1-.88-9.79-15.36-19.46-32l-17.8-30.34L133,118.65C142,102.72,150.49,88.06,151.74,86l2.5-3.44,36.61-.13h36.74Zm224.58-3.48c10.06,17.13,18.2,31.74,18.21,32.63,0,2.15-34.69,63.32-36.58,64.61-1.63,1.15-55.72,1.84-66.25.94l-7.61-.81L361.09,178c-9.79-16.37-17.67-30.73-17.68-31.87s8.19-16.3,18.14-33.89l18.17-32,36.48-.38,36.48-.38ZM678.69,79.28c1.79,2.14,30.67,50.74,35.07,59.18l2.07,4.16-17.54,30.84c-9.71,17.08-18.17,31.36-19,31.87s-17.47,1.2-37.11,1.4l-35.85.37-3.09-4.65c-6.82-10.57-34.3-58.3-34.32-59.95s32.07-59.24,35.07-63.07c1-1.15,10-1.63,37.1-1.91C673.47,77.18,676.89,77.4,678.69,79.28Zm243.38,26.36c9.8,16.62,17.81,31.23,17.82,32.63.15,2.4-32.31,60.64-35.56,64-1.51,1.41-8.47,1.86-36.85,2.16-19.25.2-35.73-.14-36.49-.64-2.17-1.24-38.15-62.94-37.53-64.09.25-.51,8.46-15.16,18.41-32.62l17.79-31.48,37.24-.13h37.37Zm208.84-31c3.2,3.64,35.84,60.31,35.86,62.21,0,1-8.07,15.79-17.77,33L1131.21,201l-37.24.38-37.37.39-18.31-30.85c-10.06-17-18.32-31.6-18.33-32.62-.14-1.64,3.84-8.78,27.48-50.2L1056,73.21l36.48-.38C1125.69,72.49,1129.12,72.7,1130.91,74.59Zm-564.42,70.6c2.82,2.75,36,60.94,36,63,0,4.05-34.55,63.7-37.59,64.62-1.38.52-18.36.69-37.74.39l-35.1-.65-18.32-31.1c-9.93-17.13-18.19-31.49-18.19-32,0-1,34.45-61.68,36.58-64.36,1.12-1.4,7.45-1.6,37.48-1.15C549.51,144.1,566.11,144.81,566.49,145.19Zm451.6-3.68c.77.88,9.41,15.36,19.21,32L1055,203.71l-17,30.2c-9.46,16.69-18.05,31.35-19.05,32.5-1.75,2-5,2.34-36.2,2.66-24.7.26-35.22-.14-37.39-1.26-1.91-1-9.11-11.81-20.34-31.08-9.67-16.24-17.67-30.22-17.93-30.85-.52-1.26,34.68-64.34,36.7-65.5.62-.51,17.34-.81,37.11-.76C1009.84,139.69,1016.94,140,1018.09,141.51Z" transform="translate(1125.07 847.58)"/><path class="cls-4" d="M1934.61-566.78C1924.79-549.32,1916-534.16,1915-533c-1.75,2-5.17,2.34-39,2.69l-37,.38-18.29,32.12c-10.21,17.71-19,32.63-19.8,33.14s-17.6,1.2-37.49,1.41l-36.1.37-18.41,32.5c-15.18,26.51-19,32.63-21.82,33.42-3.41.92-68.41.07-70.07-.92-.51-.25-8.63-13.72-18-29.84S1581-458,1580-459.22c-1.79-1.88-5.21-2.09-38.15-1.75-19.88.2-36.86-.13-37.63-.63s-8.5-13.08-17.26-27.94-17.16-29.21-18.83-31.86L1465-526l-38.25.65-38.13.77L1371-493.4c-9.83,17.2-18.42,32-19.17,32.75-1.13,1.28-10.5,1.76-38.49,2l-37.12.39-18.91,33.26-18.91,33.13,18.18,31.11c10.06,17.12,19.21,32.1,20.24,33.23,1.79,2,5.22,2.23,38.28,1.88s36.48-.12,38.28,1.76c4.35,4.89,37.13,62.7,36.52,64.36-.37,1-8.58,15.8-18.29,32.87l-17.66,31.1-36.73.63-36.74.76-17.54,30.72c-9.58,17-18.17,31.6-19.17,32.88-1.5,1.79-5.8,2.09-38.74,2.43l-37.11.39-17.17,30.2c-9.33,16.69-18,31.86-19.29,33.64-1.62,2.43-1.86,3.7-.84,4.7.77.75,9.66,15.36,19.72,32.61l18.44,31.22,37.76.25,37.88.24L1262.72,36c10.06,17,18.32,31.61,18.33,32.5s-7.7,15.41-17.4,32.23-17.79,31.48-18.16,32.49,7.64,16,18.47,34.53l19.09,32.74,36.86-.39c33.7-.35,37.12-.13,38.92,1.75,3.2,3.64,37.12,61.82,37.14,63.72,0,1-8.06,16.05-18,33.51s-17.78,32.23-17.52,33,8.9,15.36,19.09,32.74l18.57,31.48,37.5.24c20.65.17,37.89.62,38.4,1.12s9.15,14.86,19.21,32.11L1511.51,461l38.77,0,38.76-.15L1607,429.46c9.7-17.33,18.92-32.12,20.31-33.15,2-1.41,9.48-1.61,37.48-1.27l35,.4,18.7,31.6,18.57,31.6,37.88.24,37.89.24,18.83,32.11,18.82,32.11,5.59.83c3.17.35,20.27.68,38.26.49l32.43-.21,16.42-28.93c9.09-16,17.8-31.22,19.42-33.77l3-4.85,37.49-.64,37.62-.77,17.54-30.71c9.58-16.95,18.29-31.74,19.3-32.89,1.5-1.91,5.55-2.08,37.22-2.16h35.6l18.95,32.11L2188.07,454l37.89.24,37.88.24,17,29c9.29,15.87,18.18,30.85,19.6,33l2.7,4.15,37.88-.39c35.09-.37,38-.52,38.61-2.68.49-1.15,8.7-16.18,18.53-33.39L2416,452.86l38-1,37.87-1,18.29-31.86c10.08-17.59,18.28-32.49,18.27-33.25.12-1.4-35.23-62.85-37.54-65.36-.64-.76-16.1-1.36-38.78-1.5l-37.5-.24-17.15-29c-9.42-16-18.06-30.73-19.22-32.87l-2.2-3.9,17.8-31.1c9.7-17.08,18.29-31.48,19.18-32s18-1.2,38.11-1.41l36.74-.38,16.67-29.69c9.2-16.19,17.79-31.1,19-33.14l2.38-3.44,37-.39,37-.38,18.54-32.5c14.8-26.25,19.05-32.63,21.7-33.42,1.64-.39,18.36-.57,36.86-.25,31.68.56,34,.41,35.71-1.77,1.13-1.27,9.71-15.93,19.17-32.63s17.54-30.58,18.05-30.84-.93-3.92-3.38-7.95-11.21-18.76-19.47-33l-15.22-25.81-37.63-.24c-20.65-.17-38-.62-38.39-1.12s-9.15-15-19.21-32.11l-18.32-31.23-38.76,0-38.77.15L2503-110.28c-9.83,17.2-18.67,32.12-19.54,33.14-1.88,1.79-27,2.31-57.89,1.11l-16.47-.59-18.83-32.11-19-32.11-37.75-.24-37.88-.24-15.22-25.81c-23.21-39.16-21.79-36.13-19.43-40.85,4.72-9.42,33.21-58.87,34.47-59.64.76-.52,18.61-1.21,39.64-1.43l38.13-.39,18.91-33L2411-335.59l-19-32.48c-10.45-17.89-19.09-32.62-19.09-32.74s-17.24-.46-38.27-.75l-38.14-.49-2.49,3.7c-1.37,2-10,16.7-18.92,32.63l-16.55,29.06-37.74.39-37.88.39-2.44-3.52c-1.29-1.89-10.06-16.49-19.47-32.61-15.48-26.57-16.9-29.47-15.54-32.14.87-1.66,8.33-15,16.8-29.7s15.92-28.41,16.78-30.32c1.36-3.18.33-5.33-17.73-36.18l-19.21-32.73-36.74.38c-20.14.21-37.37-.12-38.14-.62s-9.91-15.48-20.36-33.36L2027.77-599l-37.62.39-37.75.39Zm90.54-28.94c2.16.61,7.56,8.79,21,31.58,9.94,17,18.07,31.48,18.08,32.24,0,1.27-32,58-35.33,62.7-1.63,2.3-3.52,2.44-37.6,2.42-19.77.08-36.62-.51-37.39-1.13-2.3-1.75-36.61-60.69-36.63-62.84s33.32-61.28,35.83-63.46c1.51-1.16,10.62-1.63,35.58-1.89C2007.15-596.29,2023.62-596.08,2025.15-595.72Zm-560,73.34c2,1.88,36,60.56,36,62.21,0,2-32.57,59.88-35.83,63.59-1.63,2-4.79,2.33-28.73,2.58-14.82.15-31.17-.06-36.36-.39l-9.51-.78-18.32-31.1c-9.93-17.13-18.19-31.87-18.2-32.63,0-1.9,34.82-62.94,36.58-64.1S1464-523.51,1465.19-522.38ZM1915-527.31c3.71,4.27,35.84,60.06,35.86,62.34,0,2-27.71,52.1-33.82,61.16l-2.37,3.57-36.1.38-36,.37-3.09-4.78c-8-12-34.3-58.3-34.32-60.33,0-2.28,33.18-61.53,35.32-63.07.76-.52,17.34-1.2,37-1.4C1909.79-529.4,1913.21-529.19,1915-527.31Zm225.47-3c2.68,2.25,37.12,60.8,37.14,63.34,0,1.64-33.31,61.91-35.56,64.22-.25.25-16.85.55-36.86.63-32.56.09-36.74-.12-38.54-2-1.15-1.13-9.78-15.36-19.2-31.48-15.09-26.06-16.9-29.72-15.79-32.39,2.23-5.09,32.84-58.49,34.84-60.92,1.75-1.92,5.17-2.21,37-2.54C2129.57-531.69,2139-531.41,2140.48-530.28ZM1352-455.58c3.2,3.51,37.25,62.07,36.76,63.09-.25.51-8.46,15-18.29,32.49l-17.79,31.48-37.49.14h-37.38l-18.57-31.73-18.57-31.73,16.42-29.06c9.08-15.93,17.67-30.58,18.92-32.62l2.37-3.45,35.85-.37C1346.78-457.68,1350.2-457.46,1352-455.58Zm213-3.23,13.82.62,17.92,30.6,17.8,30.47-2,4.2c-4.22,8.28-33.21,59-35.22,61.3s-3.77,2.32-36.72,2c-26.86-.22-35-.65-36.25-1.9-1.66-1.76-34.93-57.53-36.23-60.94-.78-1.89,33.17-62.67,36.57-65.37C1506.89-459.47,1538.94-460.06,1565.05-458.81Zm237.52-1.83c.77.88,9.53,15.36,19.46,32.23,15.48,26.32,17.81,31,16.56,33.27-.74,1.53-8.82,16.06-18,32.24l-16.79,29.69-36.36.38c-33.19.35-36.61.13-38.41-1.88-3.33-3.77-35.84-60.31-35.86-62.34,0-1.77,31.82-59,35.07-63.07C1730.21-462.42,1800.52-463,1802.57-460.64Zm225.09-3.1c2.42,1.5,38.15,63.33,37.54,64.85-.37.9-8.46,15.3-18,32.12l-17.42,30.58-37.11.39-37.24.39-18.31-30.85c-10.06-17-18.32-31.74-18.33-32.75-.15-1.52,26.46-49.94,34.19-62.18,1.74-2.8,1.87-2.81,37.59-3.18C2010.17-464.57,2026.89-464.24,2027.66-463.74Zm-563,71.73c1.53,1,37.89,62.57,37.91,64.09,0,.63-8.08,15-17.78,32.23L1467-264.46l-37.75.39-37.88.39-17.79-30.22c-9.8-16.62-17.81-31.23-17.82-32.5-.16-2.4,32.43-60.77,35.56-64.09,1.51-1.41,8.6-1.86,36.85-2.16C1447.41-392.85,1463.88-392.51,1464.65-392Zm225.48-2.35c2.16,1.38,36.6,60.69,36.63,63.09,0,1.14-7.94,16.18-17.77,33.25l-17.67,31.23-35.46.62c-19.51.45-36.1.37-36.87-.25s-9.66-14.85-19.72-32l-18.43-31.1,15.8-27.78c8.71-15.29,17.17-30,18.79-32.63l3-4.71,35.21-.37C1672.89-395.19,1689.36-394.85,1690.13-394.36Zm226.25-1.21c1,1.26,9.92,16,19.59,32.61l17.67,30.48-17.91,31.6-18,31.73-36.73.77-36.74.63-2.44-3.39c-4.88-6.92-35.2-59.18-35.21-60.7,0-1.9,34.69-63,36.58-64.11.75-.51,17.09-1.19,36.34-1.39C1911.16-397.67,1914.58-397.45,1916.38-395.57ZM2143.12-398c1.91,1.12,35.84,60.44,35.87,62.72s-34.18,63.19-36.57,64.86-72.08.62-73.75-1.26c-4-4-36.62-62.07-36-63.85,1.24-3.31,33.21-59.13,35.34-61.69,1.88-2.3,3.78-2.32,38.12-1.79C2126-398.76,2142.61-398.3,2143.12-398Zm246.07,29c9.8,16.62,18.06,31.11,18.45,32.24.66,2-33,63.18-35.93,65.11-1.76,1.29-71.94,2-73.85.77-1.28-.75-35.7-58.41-37.27-62.58-.52-1.26,18.13-35.66,33.32-61.53l2.49-4.08,37.5-.14h37.49Zm-585.64,39.4c.76.5,9.65,14.85,19.72,32.1,16.25,27.83,18.06,31.49,16.82,34-4.47,8.67-32.85,58-34.47,59.78-1.76,2-5.17,2.33-36.84,2.66-19.26.2-35.6-.14-36.37-.63-1.78-1.13-37.89-62.57-37.91-64.47,0-1.52,31.83-58.1,34.58-61.55,1.75-1.92,5.17-2.21,37.47-2.55C1786.18-330.49,1802.78-330.16,1803.55-329.66Zm226.24-1.84c3.07,2.5,37.52,62.45,36.77,64.23-.37.89-8.45,15.41-18,32.24l-17.42,30.58-37,.39-37.11.38-18.45-31.48c-10.18-17.37-18.57-32-18.58-32.49,0-1.52,35.08-62.57,36.59-63.6.75-.51,17.09-1.19,36.34-1.39C2018.88-332.91,2028.26-332.62,2029.79-331.5Zm224.34-2.71c2.41.86,7.69,8.91,20.72,31.2,9.54,16.5,17.67,30.86,18.06,31.87s-7.31,15.91-17.14,33.11L2258-206.8l-37.87.39-37.75.39-18.44-31.35c-15.74-27.08-18.07-31.74-17-34,6.08-12.1,34.08-60.4,35.59-61.69C2185-335,2249.17-336.06,2254.13-334.21ZM1597.54-295c10.18,17.25,18.45,32,18.45,32.75s-8,15.28-17.78,32.49l-17.66,31.22-36.23.76c-33.31.6-36.35.5-38.14-1.51-1.54-1.88-31.07-51.74-35.72-60.56-1.56-3-2.43-1.5,28.06-54.77l6.72-11.72,37-.14h36.86Zm-131.27,34.68c2.8,1.75,37.77,62.32,37.28,64.48-1.09,4.19-35,62.57-36.84,63.6-1.13.52-17.85.82-37.11.76l-35.09-.14L1376.84-162c-9.81-16.62-18.32-31.23-19-32.36-1-1.51,2.82-9.15,15.88-32.22,9.45-16.57,17.92-31.1,18.92-32.12,1.51-1.41,8.09-1.86,36.84-2.16C1448.78-261.11,1465.38-260.77,1466.27-260.28Zm226.51-.45c.9.88,9.4,15,19.08,31.6,15.22,26.19,17.29,30.35,16.05,32.77-5.59,11.08-34.09,60.41-35.6,61.56s-10.62,1.76-36,2c-31.16.33-34.08.23-36.26-1.9-3.32-3.26-36.34-59.93-36.37-62.46,0-3.29,35.06-64.34,37.33-64.74,1-.27,17.36-.44,36.11-.38C1680.86-262.13,1691.76-261.73,1692.78-260.73ZM1917-265c.77.5,9.66,15,19.85,32.23l18.44,31.35-3.23,6.5c-1.86,3.56-10,18-18,32l-14.55,25.49-37.37.39-37.24.38L1827-166.86c-9.8-16.62-18.06-31.23-18.45-32.36-.79-2.15,32.92-62.93,35.93-65,.76-.51,17.1-1.19,36.22-1.39S1916.21-265.46,1917-265Zm237.19,15.27c5.8,9.83,14.19,24.05,18.57,31.61l7.87,13.85-15.8,27.79c-8.71,15.29-17.17,29.94-18.79,32.5l-3,4.84-35.21.37c-19.26.2-35.73-.14-36.5-.64s-9.65-14.85-19.71-32.1c-16.25-27.7-18.07-31.48-16.83-34,5-9.68,34.09-60.28,35.22-61.05.76-.64,17.6-1.07,37.49-1l36-.12Zm-574,54.61c2.56,2,37.12,61.06,37.15,63.59,0,1.9-31.32,57.85-34.58,61.81-1.75,2-5.17,2.33-37.59,2.67-26.73.28-36,0-37.26-1.26-3-2.76-36.23-60.69-36.26-63.1,0-2.15,30.82-57.7,34.57-62.3,1.76-1.92,5.18-2.21,37-2.54C1569.29-196.48,1578.67-196.2,1580.2-195.08Zm244.17,28.25c11.09,18.76,18.2,32.12,17.83,33.39C1841-130.13,1809-74.31,1807-72c-1.75,2-5.17,2.33-36.83,2.66-19.26.2-35.6-.14-36.24-.64-2-1.24-36.74-60.68-36.76-62.83,0-1.27,21.62-40.64,33.82-61.29l2.49-4.08,36.23-.12h36.24Zm206.15-33.43c2.55,1.62,36.61,60.81,36.26,63.09-.25,1.15-8.45,16.31-18.28,33.64L2030.59-72l-36.11.12h-36.1l-18.7-31.73-18.57-31.6,15.8-27.91c8.7-15.3,17.17-29.95,18.79-32.63l3-4.72,35.21-.36C2013.16-201.09,2029.63-200.76,2030.52-200.26Zm228.94,1.3c4.5,6.92,34.3,58,34.31,59.05,0,.76-29.6,53.14-34.34,60.66l-3,4.85L2221.1-74c-31.79.33-35.6.11-37.9-1.89-2.68-2.25-36.34-59.42-36.36-61.7,0-.76,8.2-15.67,18.15-33.25l18.16-32,36.61-.38,36.61-.38ZM1356-190.85c3.59,4.15,35.85,60.44,35.87,62.59s-30.94,57.84-34.57,62.19c-1.75,2-5.17,2.33-37.73,2.67l-36,.37-3.09-4.78c-7.85-11.83-34.3-58.3-34.32-60.2,0-1.14,7.94-16.17,17.64-33.12l17.67-31.1,36.35-.37C1350.8-192.95,1354.22-192.73,1356-190.85Zm767.66,54.49,20.39-.22,18.19,31c10.05,17.12,18.19,31.74,18.2,32.62,0,2.66-34.32,62.18-36.84,63.85-1.76,1.16-11.39,1.39-37.23,1l-34.85-.4-17.66-29.59c-9.67-16.24-17.68-30.86-17.69-32.38-.16-3.29,32.43-61.14,36.32-64.6,2.51-2.18,4.15-2.33,16.7-1.7C2096.93-136.47,2112.39-136.25,2123.67-136.36Zm247-.92c.76.88,9.4,15,19.07,31.6,16,27.19,17.55,30.35,16.31,33.15-2.48,5.47-32.59,58.23-34.72,60.53-1.75,2.05-5.17,2.34-37,2.67-26,.27-35.47,0-37.13-1.26-2.56-1.88-37-60.56-37-63.09,0-3,34.32-62.43,37-63.85C2300.87-139.47,2368.77-139.29,2370.7-137.28ZM1230.25-125.94l13.82.61,17.8,30.22c9.8,16.62,17.8,31.24,17.82,32.5.15,2.53-33.93,63.19-36.45,65-.75.64-17.22.94-36.6.89-28.13-.09-35.61-.52-37-1.9-.9-1-9.66-15.23-19.34-31.72-15.6-26.32-17.54-30.48-16.43-33,2.36-5.1,32.84-58.49,34.84-60.92,1.63-1.92,4.41-2.2,24.81-2.29C1206.18-126.58,1222.65-126.37,1230.25-125.94Zm461.34-5.18c1.78.49,8.09,10.05,20.86,31.84,10.06,17.25,18.32,32,18.33,32.87s-8,15.54-17.52,32.74c-12.7,22.31-18.43,31.23-20.33,31.63-1.51.4-18.24.32-37.37,0l-34.72-.52-18.57-31.74L1583.7-66l16.42-29c9.08-15.93,17.54-30.59,18.79-32.63l2.37-3.45,33.82-.35C1673.72-131.69,1690.07-131.48,1691.59-131.12Zm246.2,28.36c10,17,18.32,31.73,18.33,32.75s-7.95,15.91-17.78,33.12L1920.55-5.67l-36.1.76c-33.06.59-36.22.5-38-1.51s-30.16-49.85-35.07-59.3l-2.2-4,9.58-17c5.23-9.18,13.44-23.58,18.17-31.86l8.58-14.92,37-.13h37Zm659-36.75c1,.88,9.79,15.36,19.59,32.11l17.8,30.47L2617-46.73c-9.33,16.57-17.92,31.23-18.92,32.38-1.75,2-5.17,2.33-37.47,2.67-19.64.2-36.24-.13-37-.63s-9.66-14.85-19.72-32.1c-16.38-27.83-18.06-31.49-16.82-34,4.59-8.79,32.84-58,34.47-59.9s5.17-2.21,37.72-2.55C2587.92-141.19,2595.4-140.88,2596.81-139.51ZM1469.44-126.15c2,2.26,32.22,53.38,34.81,58.93,1.17,2.65-.44,6.08-15.12,32.08-9.08,15.93-17.67,30.59-18.92,32.5L1467.84.93l-34.58.36c-25.71.27-35,0-36.5-1.26-2.3-1.75-37.12-60.81-37.14-63,0-1.27,32.45-59.25,35.2-63.08.87-1.15,9.86-1.62,37-1.9C1464.22-128.25,1467.64-128,1469.44-126.15Zm787.41,54.53c1.15.88,9.91,15.1,19.59,31.72,12.12,20.53,17.42,31,17.19,32.89-.36,1.52-8.32,16.43-17.77,33l-17.05,30.07-37,.13H2185l-18.31-30.85c-10.06-17-18.32-31.86-18.34-33-.14-1.78,31.32-58.6,35-63.2,1-1.15,9.86-1.63,36.34-1.9C2245.69-73,2255.19-72.74,2256.85-71.62Zm-899,12c2.69,2.89,35.34,59.81,35.36,61.71,0,2.15-32.57,60.13-35.58,63.33-1.5,1.54-7.45,1.85-37.61,1.79-25.21,0-36.11-.39-37.26-1.39-.77-.88-9.4-15-19.07-31.47-15.61-26.57-17.29-30.23-16-32.78,5.83-11.46,34.21-60.53,35.84-61.81C1286.15-62.55,1355.71-61.88,1357.88-59.62Zm226.51-.58c6.83,10.45,34.31,58.3,34.32,59.82,0,.89-8.07,15.67-17.9,32.87L1583,63.72l-35.85.75c-25.2.51-36.35.25-37.5-.75C1508,62.34,1475.38,7.44,1473.57,3c-.53-1.52,4.56-11.7,16.38-32.48,9.33-16.56,17.92-31.22,18.92-32.5,1.75-1.92,5.17-2.21,37.09-2.54l35.34-.36Zm222.66-5.35c.9,1,9.79,15.48,19.59,32.1L1844.44-3,1826,29.52,1807.62,62l-36.36.37-36.35.38-18.19-30.85C1706.66,14.8,1698.53.06,1698.52-.95c0-2.16,32.81-60.77,35.7-63.72C1736.85-67.23,1804.49-68.06,1807.05-65.55Zm225.48-1.84c2.18,2.51,37.14,62.07,37.15,63.21,0,.51-8,14.91-17.79,32L2034.23,59l-37.24.39-37.25.38L1941.3,28.32c-10.19-17.38-18.57-31.86-18.58-32.49s8.2-15.29,18.16-32.75L1959-68.78l35.72-.37C2027.32-69.49,2030.74-69.27,2032.53-67.39Zm453-3.44c4.37,6.29,35.07,59.18,35.09,60.7,0,1.9-34.69,63-36.58,64.11s-70.67,2-72.46.75c-2.93-1.87-38.15-63.33-37.41-65.24.86-2.41,32.95-59.12,34.7-61.42.88-1.15,10-1.62,37.74-1.91l36.48-.38Zm243.39,26.36c10.18,17.25,18.44,32,18.45,32.75s-8.07,15.28-17.9,32.49L2711.67,52l-36.6.63c-20.14.47-37.24.39-37.88-.23-2.17-1.38-36.74-60.81-36.76-63,0-1.64,23.6-44.71,33.19-60.52l2.87-4.71,37-.14h37ZM1469.52,3.7c2.3,1.88,37.12,61.44,37.15,63.72,0,1.4-29.09,53.39-33.84,60.4l-2.37,3.57-35.72.38c-19.63.2-36.36-.13-37.12-.63-2.17-1.37-36.61-60.3-36.63-62.71,0-1.9,31.56-59.11,35.18-64,.88-1.15,9.74-1.63,36.22-1.9C1458.61,2.3,1468,2.58,1469.52,3.7Zm228.3.8c8.36,12.84,34.3,58.17,34.32,60.07,0,2.16-31,57.84-34.57,62.19-1.76,2-5.17,2.33-37.6,2.67s-35.85.12-37.65-1.89c-3-3.27-36.23-60.94-36.25-62.59s32-58.61,35-62.19c1.75-1.91,5.17-2.2,37.72-2.54l36-.38Zm225.47-2.34c9.92,15.22,34.44,58.8,33.82,60.46-1.23,3.18-33.33,59.51-35.33,61.81-1.76,2-5,2.33-36.34,2.65-25.58.27-34.83,0-36.37-1.26-2.42-1.75-37.11-60.43-37.13-62.71,0-1.52,4.33-9.17,27.6-49.95l8.59-14.91,36-.37,36.1-.38Zm222.28-5.48c2.56,2.64,36.23,60.69,36.25,62.84,0,1-7.94,15.92-17.77,33l-17.67,31.22-35.46.62c-19.51.46-36.1.38-36.87-.25s-9.66-15-19.72-32.1L2036,60.78l17-30.2C2062.52,14,2071-.64,2072-1.92c1.75-1.92,5.17-2.21,37-2.54C2135.17-4.73,2144.29-4.44,2145.57-3.32Zm244.54,27.61c10.06,17,18.32,31.48,18.33,32.37.14,1.77-34.57,63.07-36.46,64.36-.75.51-17.09,1.19-36.34,1.39-26,.27-35.35,0-36.88-1.27-2.3-1.75-37.12-61.31-37.14-63.46,0-1.27,32.57-59.37,35.07-62.57,1-1.15,9.74-1.62,38.24-1.66h36.87ZM2598.18-7.39c3.33,3.9,35.85,60.44,35.87,62.47,0,1.77-31.82,59-35.07,63-1,1.27-10,1.75-37,2-19.5.2-36.23-.13-37-.63s-8.37-12.84-16.88-27.32c-21.93-37.4-21.15-35.76-19.54-38.94.75-1.53,8.83-16.06,18-32.37l16.79-29.56,36.48-.38C2593-9.49,2596.39-9.27,2598.18-7.39ZM2036.72,67c7.08,10.7,34.3,57.92,34.31,59.44,0,1.9-33.19,60.52-35.7,63.21-2.51,2.43-69.77,3.39-72.83.88-1.15-.74-10.3-15.6-20.36-32.72L1924,126.43l17.67-31.22c9.83-17.21,18.8-31.61,19.93-32.13s18-.82,37.11-.77l35,0Zm209.72-7.12,13.31.63,18.31,31.35,18.31,31.23-2,4.07c-5.58,11.21-33.34,59-35,60.29-2.14,1.8-29.37,2.33-57.76,1.11l-15.08-.61-17.8-30.22c-9.8-16.62-17.81-31.23-17.82-32.5-.15-2.4,34.05-63.44,36.45-64.86C2189,59.19,2227.3,58.92,2246.44,59.86Zm-886.16,14c6.06,9.44,34.3,58.05,34.32,59.32,0,1.77-34.95,63.07-36.58,64.23-.76.51-17.47,1.19-37.11,1.4l-35.84.37-3.09-4.78c-7.21-10.95-34.31-58.3-34.33-59.95s31.95-59,35.08-62.95c1-1.15,10.11-1.62,37.86-1.91l36.6-.38Zm241.34,24.48c10.06,17,18.32,31.86,18.34,33.13.15,2.28-30.44,57.58-34.45,62.31-1.75,2-5.17,2.33-37.47,2.67-19.63.2-36.23-.13-37-.63-2.17-1.37-36.61-60.69-36.63-63.09,0-1.9,31.56-59,35.19-63.58.87-1.15,9.48-1.62,37.48-1.66h36.23Zm188.55-32.74,19.14.56,18.31,31.35c10.06,17.25,18.33,32.12,18.33,33,0,2.41-34.32,62.06-36.33,63.22-1.14.52-18.11.82-37.62.64l-35.6-.26L1718.09,163c-9.94-17.13-18.2-31.86-18.21-32.75,0-1.77,33.2-60.52,35.7-63.21C1737.59,65,1757.09,64.44,1790.17,65.62Zm697.38-3.45c8.24,12.71,34.43,58.43,34.44,60.08,0,.88-7.94,15.66-17.77,32.74l-17.67,31.09-36.1.63c-19.88.46-36.73.26-37.63-.24-1.27-.75-35.69-58.41-37.26-62.58-.39-.88,7.56-16,17.52-33.62l18.29-32,36.6-.38,36.61-.38Zm-114.5,63.65c.9,1,9.79,15.35,19.46,32,16.25,27.57,17.54,30.22,16.18,33.27-3.84,8.66-34.08,60.28-35.85,61.31-1.26.65-18,1-37.36.77l-35.1-.27L2281.68,221c-10.32-17.63-18.7-32.23-18.71-32.61,0-1.4,35.21-62.45,36.59-63.47.76-.52,17.22-.94,36.48-1C2365.3,124,2371.51,124.32,2373.05,125.82Zm-900.89,10.24c3.33,3.9,35.85,60.44,35.87,62.47,0,1-8,15.79-17.78,32.87l-17.66,31.09-37,.77-37.11.64-3-4.66c-7-10.7-34.43-58.3-34.45-59.57,0-.76,8.2-15.66,18.16-33.12l18.16-31.86,36.36-.38C1466.94,134,1470.37,134.18,1472.16,136.06Zm225.48-2.34c3.2,3.52,36,59.8,36.24,62s-31.32,58.47-34.94,62.94c-1.76,2.05-4.8,2.21-38.11,2.3h-36.24l-18.31-30.84c-10-17-18.32-31.74-18.33-32.75-.14-1.52,27.22-51.34,34.2-62.18,1.74-2.81,1.87-2.81,37.72-3.18C1692.42,131.62,1695.84,131.84,1697.64,133.72Zm222.29-3.7c2.16.61,7.57,8.79,21,31.58,9.93,17,18.07,31.48,18.07,32.37s-8.07,15.41-17.9,32.62l-17.79,31.22-36.23.76-36.1.63-2.56-3.4c-7.59-10.81-35.21-59.81-34.6-61.59,1.24-3.18,33.34-59.51,35.34-62.06,1.75-1.92,5-2.21,34.94-2.52C1902.32,129.44,1918.41,129.66,1919.93,130Zm226.75-2.1c1.66,1,36.48,59.92,37.4,63.33.65,2.15-29.31,56.94-34.19,62.56-1.75,2.05-5.17,2.33-37.6,2.67s-35.85.12-37.64-1.89c-3.47-3.89-35.85-60.31-35.87-62.46s31.07-58,34.57-62.31c1.75-1.92,5-2.21,36.84-2.54C2129.44,127.08,2145.79,127.42,2146.68,127.92Zm-561.1,72.84c1,1.26,9.92,16,19.6,32.74l17.67,30.35-18.16,32-18.29,32-36.49.38-36.6.38-2.45-3.52c-5-6.92-35.07-59.18-35.09-60.95s31.94-59.12,35.07-63.2c1-1.15,10-1.63,37.1-1.91C1580.37,198.66,1583.79,198.88,1585.58,200.76Zm224.71-3.47c.76.5,9.66,15,19.72,32.1l18.31,31.23-16.42,28.93c-9.09,15.93-17.55,30.46-18.79,32.5l-2.5,3.44-36.23.13h-36.24l-18.44-31.22c-10.18-17.26-18.45-32-18.45-32.63,0-1.26,25.35-47,33.2-60l2.86-4.72,35.85-.37C1792.8,196.46,1809.52,196.79,1810.29,197.29ZM2035.77,195c2,1.37,36.6,60.55,36.63,62.83s-32.82,60.65-35.83,63.59c-1.37,1.54-8,1.86-37.35,1.91h-35.73l-18.31-30.85c-10-17-18.31-31.35-18.32-32-.14-1.51,33-60.26,35.7-63.58,1.76-1.92,5-2.21,36.84-2.54C2018.66,194.11,2035,194.45,2035.77,195Zm243.66,28.76C2289.62,241,2297.88,256,2297.89,257c0,1.9-31.45,58-34.58,61.55-1.75,2-5.17,2.33-37.72,2.67l-35.85.37L2187.3,318c-5-7.29-35.08-59-35.09-60.7s4.08-9.16,27.6-50.07l8.59-14.91,36.35-.13H2261Zm-806.67,43c2.29,1.37,36.61,60.68,36.63,63.22,0,1.26-7.94,16.17-17.77,33.25L1474,394.23l-36.09.63c-19.89.46-36.74.38-37.51-.24-1.4-.87-33.76-54.63-36.74-61.06-1.29-2.78.45-6.34,16.87-35.14l18.29-32,36.23-.38C1455,265.84,1472,266.17,1472.76,266.67ZM1699,265.46c2.56,2.89,34.68,57.79,35.47,60.7.26,1.26-6.69,15-17.64,34.26l-18.29,32.11-36,.38-36,.37-3.09-4.78c-5.66-8.56-34.3-58.05-34.31-59.31,0-1.78,34.94-62.95,36.58-64.11.75-.51,17.09-1.19,36.34-1.39C1693.79,263.36,1697.21,263.58,1699,265.46Zm225.47-2.34c3.34,3.89,35.85,60.44,35.87,62.46,0,1.78-31.82,59-35.07,62.95-1,1.28-10,1.75-37.1,2-32.43.34-35.85.12-37.64-1.89-3.08-3.51-35.85-60.18-35.87-62.08,0-1.39,24.49-45.61,33.2-60.14l2.87-4.72,36-.37C1919.27,261,1922.69,261.24,1924.48,263.12Zm243.14,26.49c10.06,17.12,18.19,31.86,18.2,33,0,2-32.94,60.52-35.7,63.46-2.51,2.43-69.77,3.38-72.83.88-2.68-2-37.12-60.93-37.15-63.59,0-1,7.94-15.92,17.65-32.87l17.67-31.09,37-.39,37-.38Zm209.86-29.93c1.29,2,9.79,16.12,18.95,31.6,14.7,25.06,16.26,28.47,15.15,31.14-2.23,5.09-32.84,58.49-34.84,60.79-1.76,2-5.17,2.33-37.73,2.67l-36,.37-3.09-4.78c-6.44-9.69-34.31-58.17-34.32-59.56s4.34-9.3,27.6-50l8.59-14.91,36.61-.38,36.61-.38Zm-772,102.78c10.18,17.25,18.57,31.86,18.57,32.24,0,1.27-35.2,62.95-36.58,63.85-.75.52-17.47,1.2-37.1,1.4-28.51.3-36,0-37.39-1.39-1-.87-9.79-15.35-19.46-32l-17.8-30.35,16.42-29.05c9.08-15.93,17.55-30.59,18.79-32.63l2.5-3.45,36.61-.12h36.74ZM1830.08,359c10.06,17.12,18.2,31.73,18.21,32.62,0,2.15-34.69,63.33-36.58,64.61-1.63,1.16-55.72,1.85-66.25.94l-7.61-.8-17.53-29.85c-9.8-16.36-17.68-30.73-17.69-31.87s8.19-16.3,18.14-33.88l18.17-32,36.48-.38,36.48-.38Zm207.83-31.17c1.79,2.13,30.68,50.73,35.07,59.18l2.07,4.16L2057.51,422c-9.71,17.07-18.17,31.35-19.05,31.87s-17.47,1.19-37.11,1.4l-35.85.37-3.09-4.66c-6.82-10.57-34.3-58.3-34.32-59.94s32.07-59.25,35.07-63.08c1-1.15,10-1.62,37.1-1.9C2032.69,325.72,2036.11,325.94,2037.91,327.82Zm243.38,26.36c9.8,16.62,17.81,31.23,17.82,32.62.16,2.41-32.3,60.64-35.56,64-1.51,1.41-8.47,1.86-36.85,2.15-19.25.2-35.72-.13-36.49-.63-2.17-1.24-38.15-63-37.53-64.09.25-.51,8.46-15.17,18.41-32.63l17.79-31.47,37.24-.14h37.38Zm208.84-31.06c3.2,3.64,35.84,60.31,35.86,62.21,0,1-8.07,15.8-17.77,33l-17.79,31.22-37.24.39-37.37.39-18.31-30.85c-10.06-17-18.32-31.61-18.33-32.62-.14-1.65,3.84-8.78,27.48-50.2l8.58-14.91,36.48-.38C2484.91,321,2488.34,321.24,2490.13,323.12Zm-564.42,70.6c2.82,2.76,36,60.94,36,63,0,4.05-34.55,63.7-37.58,64.62-1.39.52-18.37.7-37.75.39l-35.1-.65L1833,490c-9.94-17.12-18.19-31.48-18.2-32,0-1,34.45-61.67,36.58-64.35,1.12-1.41,7.46-1.6,37.48-1.15C1908.73,392.63,1925.33,393.34,1925.71,393.72Zm451.6-3.68c.77.88,9.41,15.36,19.21,32l17.67,30.22-17,30.21c-9.46,16.69-18,31.35-19.05,32.5-1.75,2-5,2.33-36.2,2.65-24.7.26-35.22-.14-37.39-1.25-1.91-1-9.11-11.82-20.34-31.08-9.67-16.25-17.67-30.23-17.93-30.86-.52-1.26,34.68-64.33,36.7-65.49.62-.52,17.34-.82,37.11-.77C2369.06,388.23,2376.16,388.54,2377.31,390Z" transform="translate(1125.07 847.58)"/></g></g></g></svg>