<svg xmlns="http://www.w3.org/2000/svg" xmlns:xlink="http://www.w3.org/1999/xlink" viewBox="0 0 1920.05 943.32"><defs><style>.cls-1{fill:url(#Безымянный_градиент_22);}.cls-2{fill:#ff8200;}.cls-3{fill:none;}</style><linearGradient id="Безымянный_градиент_22" x1="960.05" y1="943.32" x2="960.05" gradientUnits="userSpaceOnUse"><stop offset="0" stop-color="#ff8900"/><stop offset="1" stop-color="#ffb300"/></linearGradient></defs><g id="Слой_2" data-name="Слой 2"><g id="фон"><rect class="cls-1" x="0.05" width="1920" height="943.32"/><path class="cls-2" d="M1852.74,523.69a12.19,12.19,0,0,0-1-2.63,50.1,50.1,0,0,0-2.46-4.51c-2.45-3.9-11.22-18.76-19.47-33l-15-25.34s0,0,0,0l-.25-.43-36.88-.24H1777c-16-.13-30-.43-35.72-.79a17.82,17.82,0,0,1-2.56-.27h0c-.05,0-.08,0-.09-.05-.51-.5-9.15-15-19.21-32.11l-13.8-23.53-4.51-7.7-38.77,0-26,.1-9.69,0h-3l-.1.17-17.69,31.3c-9.83,17.21-18.67,32.12-19.55,33.14-1.88,1.8-27,2.31-57.88,1.11l-15.44-.55-1,0L1493,426.25l-19-32.1h0l-37.72-.25-36.68-.23h-1.2l-15.22-25.81c-23.21-39.16-21.78-36.13-19.42-40.84,4.71-9.43,33.21-58.88,34.47-59.65h0c.64-.39,10.8-.87,24.67-1.18h.26c4.57-.1,9.54-.19,14.7-.24l38.13-.39.2-.35,18.71-32.66,18.34-32.36.44-.77-2-3.42-17-29.07c-10.44-17.88-19.08-32.62-19.09-32.74a4.3,4.3,0,0,0-.71,0c-3.43-.16-19-.44-37.55-.69l-38.14-.5-1.18,1.75-1.32,1.95c-1.37,2.05-10,16.7-18.91,32.63L1367.71,187l-.15.28-6.28,11-26.39.27h-.19l-11.17.12-37.87.39-2.45-3.52c-1.28-1.88-10-16.49-19.47-32.61-11.15-19.14-15-26-15.78-29.33a3.73,3.73,0,0,1,.25-2.81c.87-1.66,8.33-15,16.79-29.69s15.92-28.42,16.79-30.33c1.09-2.56.63-4.45-9-21.18l-.11-.2c-2.32-4-5.15-8.88-8.61-14.79l-11-18.65,0-.06-8.24-14h-1.16l-35.57.37c-19.14.2-35.67-.09-37.91-.55a.91.91,0,0,1-.23-.07l-.12-.12A16.58,16.58,0,0,1,1168.74,0h-3.3a19.37,19.37,0,0,1,1.5,3.09c0,1.26-32,58-35.33,62.69-1.62,2.3-3.52,2.45-37.6,2.42-19.76.08-36.61-.51-37.38-1.13C1054.33,65.32,1020,6.39,1020,4.23A23.41,23.41,0,0,1,1021.9,0H1019c-.67,1.08-1.12,1.77-1.3,2-.62.72-1.45,1.23-3.79,1.59-4.12.65-12.93.85-33.56,1.07h-.08l-1.56,0-37,.39L923.42,37.16l-2.69,4.66c0,.08-.09.16-.14.24-9,15.49-16.28,27.78-17,28.25S886,71.5,866.14,71.71l-36.1.37-.08.14-18.33,32.36c-13,22.64-17.68,30.41-20.51,32.68a4.25,4.25,0,0,1-.91.58,2.66,2.66,0,0,1-.41.16,4.87,4.87,0,0,1-.79.11h-.09c-8.55.72-67.61-.09-69.18-1-.51-.25-8.63-13.72-18-29.84s-17.92-30.22-19-31.47a3.76,3.76,0,0,0-1.81-1,32.37,32.37,0,0,0-7.24-.74h0c-5.41-.17-14.26-.13-29.07,0-19.89.21-36.87-.12-37.63-.62s-8.5-13.09-17.27-27.95-17.15-29.21-18.83-31.85L568.47,10l-.7-1.05L564.24,9l-34.72.59-38,.78h-.11L473.73,41.58c-9.83,17.2-18.41,32-19.17,32.76a3.49,3.49,0,0,1-1.77.68c-3.89.78-14.37,1.13-36.72,1.36L379,76.77l-.11.19L360.05,110l-18.92,33.14.79,1.35,3.62,6.19,13.78,23.56c10.06,17.12,19.21,32.1,20.23,33.23a3.27,3.27,0,0,0,.51.47c2.08,1.57,7.51,1.73,37.77,1.42,28.83-.31,35.13-.18,37.45,1.11a.78.78,0,0,1,.18.11,3.13,3.13,0,0,1,.65.53,15.2,15.2,0,0,1,1.06,1.41h0c5,7.22,21.05,35.08,29.74,51.23l0,.06A120.58,120.58,0,0,1,492.54,275a1,1,0,0,1,.09.49c-.37,1-8.58,15.8-18.28,32.87l-17.67,31.1L420,340.1l-36.73.77L379,348.34l-13.27,23.24c-9.58,16.95-18.17,31.61-19.17,32.88l-.07.08c-1.57,1.72-6.25,2-38.67,2.35l-37.12.39-17.17,30.2c-9.33,16.69-18,31.86-19.28,33.65a6.83,6.83,0,0,0-1.46,3.29,1.88,1.88,0,0,0,.62,1.4c.77.76,9.66,15.36,19.72,32.61l18.44,31.23,37.76.24,37.88.24L365.47,571c10.06,17,18.31,31.6,18.32,32.49s-7.69,15.41-17.4,32.23-17.79,31.48-18.16,32.5,7.64,16,18.48,34.52l19.09,32.74,36.86-.39c33.7-.35,37.12-.13,38.91,1.75,3.21,3.64,37.13,61.82,37.15,63.72,0,1-8.08,16.06-18,33.51s-17.78,32.23-17.52,33,8.9,15.36,19.09,32.74l18.57,31.48,37.5.24c20.65.17,37.88.62,38.4,1.13.27.19,2.8,4.31,6.59,10.68h2.26l-7.09-12.1,16.42-29.05c9.08-15.93,17.54-30.59,18.79-32.63l2.49-3.44,36.62-.13h36.73l18.7,31.47c10.19,17.25,18.58,31.86,18.58,32.24s-3,5.94-7.34,13.64H722c4.18-6.86,7.23-11.47,8-12,2-1.42,9.49-1.62,37.49-1.28l35,.4,7.63,12.9h2.39c-4.32-7.66-7.11-13-7.12-13.69,0-1,8.21-16.31,18.15-33.89l18.16-32,36.48-.38,36.49-.37,18.18,31C942.89,911.1,951,925.71,951,926.59c0,.71-3.66,7.65-8.67,16.73h3c4.61-8,8.12-13.93,8.75-14.73,1.13-1.41,7.46-1.6,37.49-1.15,19.89.17,36.5.89,36.88,1.26.85.83,4.48,6.74,9.12,14.62h2.55c-5.3-9.38-9.28-16.68-9.29-17.3,0-1.52,32.07-59.24,35.07-63.08,1-1.15,10-1.62,37.1-1.9,32.43-.34,35.85-.12,37.64,1.76,1.8,2.14,30.68,50.74,35.08,59.18l2.07,4.16L1168,943.32h2.3c5.31-9.16,9.24-15.7,9.89-16.45,1.5-1.91,5.55-2.08,37.22-2.16H1253l11,18.6h2.26c-6.26-10.93-11.08-19.71-10.85-20.14s8.46-15.16,18.42-32.62l17.78-31.48,37.25-.13h37.37l17.8,30.22c9.8,16.62,17.81,31.23,17.82,32.62.06.93-4.79,10.27-10.94,21.54h3c6.08-10.63,11.07-19,11.79-19.42s17.35-.82,37.11-.77c29,.08,36.11.39,37.27,1.9.55.62,5,8.08,11.12,18.29h2.54c-6.86-11.82-11.78-20.7-11.79-21.48-.15-1.65,3.83-8.78,27.47-50.2l8.59-14.91,36.48-.38c33.19-.35,36.61-.13,38.4,1.75,3.21,3.64,35.85,60.31,35.87,62.21,0,.83-5.16,10.42-12.17,23h2.33c7.12-12.6,12.25-22,12.25-22.65.11-1.4-35.24-62.85-37.54-65.36-.65-.75-16.11-1.35-38.79-1.5l-37.5-.24-17.15-29c-9.41-16-18.05-30.73-19.22-32.87l-2.19-3.9,17.79-31.1c9.71-17.07,18.3-31.48,19.18-32s18-1.2,38.12-1.41l36.73-.38,16.67-29.69c9.21-16.18,17.79-31.09,19-33.13l2.37-3.45,37-.38,37-.39,18.54-32.5c14.8-26.25,19-32.62,21.69-33.41,1.65-.4,18.37-.57,36.87-.26,31.67.56,34,.41,35.7-1.76,1.13-1.28,9.72-15.94,19.18-32.63s17.54-30.59,18-30.85C1852.81,524.4,1852.84,524.12,1852.74,523.69ZM1662,394.09c28.31-.29,35.94,0,37.46,1.35l0,0a7.91,7.91,0,0,1,.87,1.14c2.64,3.84,10.29,16.56,18.72,31l17.8,30.47-.15.26-17,29.94c-9.33,16.57-17.91,31.23-18.92,32.38-1.75,2-5.17,2.33-37.47,2.67-19.63.2-36.23-.13-37-.63s-9.65-14.85-19.71-32.1c-11.7-19.86-15.9-27.41-16.9-31a4,4,0,0,1,.07-3c4.6-8.79,32.85-58,34.47-59.9S1629.49,394.43,1662,394.09ZM476.5,308.35c9.46-16.57,17.92-31.1,18.93-32.12a3,3,0,0,1,1.19-.61c3-.94,11.51-1.3,35.65-1.55,17.25-.18,32.37.08,36,.49a3.07,3.07,0,0,1,.78.15c2.8,1.74,37.76,62.31,37.28,64.47-1.1,4.19-34.95,62.57-36.84,63.6-1.14.52-17.86.82-37.11.77l-35.1-.15-17.67-30.47c-9.8-16.62-18.31-31.23-19-32.36C459.59,339.06,463.44,331.42,476.5,308.35Zm17.56-163.86a1.69,1.69,0,0,1,.44-.3c2.24-1.18,10.26-1.58,36.4-1.86,19.26-.2,35.73.14,36.49.64s7.08,10.95,14.5,23.38c6.58,11,13.92,23.56,18.6,31.77a.21.21,0,0,1,0,.06c2.9,5.11,4.78,8.54,4.78,8.88,0,.63-8.08,15-17.79,32.23l-17.79,31.23-2.81,0-34.94.36-37.87.39-17.8-30.22c-9.8-16.62-17.81-31.23-17.82-32.5C458.34,206.18,490.93,147.82,494.06,144.49Zm751.8-7.56c.41.25,2.3,3.17,5,7.65,6.8,11.2,18.78,32.1,25.63,44.7,3.15,5.77,5.22,9.81,5.22,10.37,0,2.41-34.18,63.19-36.57,64.87s-72.08.62-73.74-1.27c-4-4-36.63-62.07-36-63.85,1.23-3.31,33.21-59.13,35.34-61.68,1.87-2.3,3.77-2.32,38.11-1.79C1228.75,136.23,1245.35,136.69,1245.86,136.93ZM1362.2,336c4.51,6.92,34.3,58,34.32,59.06,0,.76-29.6,53.13-34.34,60.66l-3,4.84-35.34.37c-31.8.33-35.6.12-37.9-1.89-2.68-2.25-36.34-59.42-36.37-61.7,0-.78,8.21-15.67,18.15-33.25l18.17-32,36.61-.38,36.6-.38ZM1400,397.45c.91-.49,5.84-.84,12.74-1.07h.11c19.47-.62,54.5-.24,60,1.06a1.58,1.58,0,0,1,.68.26c.77.88,9.4,15,19.08,31.6,16,27.2,17.54,30.35,16.31,33.15-2.48,5.47-32.59,58.23-34.72,60.53-1.75,2-5.17,2.34-37,2.67-26,.27-35.47,0-37.13-1.26-2.55-1.88-37-60.55-37-63.09C1363,458.26,1397.31,398.87,1400,397.45ZM946.23,272a5.94,5.94,0,0,1,1-1.21c.76-.52,17.09-1.19,36.22-1.39,18.52-.19,34.43.12,36.12.58a.35.35,0,0,1,.12,0c.76.5,9.65,15,19.84,32.23L1058,333.6l-3.22,6.5c-1.87,3.56-10,18-18,32l-14.56,25.49-37.37.39-37.24.39-17.79-30.22c-9.81-16.62-18.07-31.23-18.46-32.37C910.59,333.76,939.79,280.88,946.23,272Zm205,159.46-17.92,31.48-36.1.12h-36.11l-18.7-31.73-18.57-31.6,15.8-27.91c8.71-15.29,17.17-29.95,18.79-32.63l3-4.72,35.22-.36c19.25-.2,35.73.13,36.62.63,2.55,1.62,36.61,60.81,36.25,63.1C1169.28,399,1161.08,414.12,1151.25,431.45Zm24-31.54c2.52-2.18,4.16-2.32,16.71-1.69,7.73.3,23.19.52,34.46.4l20.4-.21,18.18,31c10.06,17.13,18.19,31.74,18.2,32.62,0,2.66-34.32,62.18-36.83,63.86-1.76,1.16-11.39,1.38-37.24,1l-34.84-.4-17.66-29.59c-9.68-16.24-17.68-30.85-17.7-32.37C1138.76,461.22,1171.35,403.37,1175.24,399.91ZM1058.86,465c0,1-7.95,15.93-17.77,33.12l-17.79,31.22-36.1.76c-33.06.6-36.23.5-38-1.51S919,478.71,914.1,469.26l-2.19-4,9.58-17c5.22-9.18,13.43-23.58,18.16-31.86l8.59-14.91,37-.13h37l18.31,30.85C1050.59,449.22,1058.85,464,1058.86,465ZM927.12,368.15c11.09,18.77,18.19,32.12,17.82,33.39-1.23,3.31-33.21,59.13-35.21,61.43-1.75,2-5.17,2.33-36.84,2.66-19.25.2-35.6-.13-36.24-.63-2-1.25-36.73-60.69-36.75-62.84,0-1.31,21.63-40.65,33.82-61.29l2.49-4.08,36.23-.12h36.23ZM815.19,435.7c10.06,17.25,18.32,32,18.33,32.88s-7.95,15.54-17.52,32.74c-12.69,22.3-18.42,31.23-20.32,31.63-1.52.39-18.24.31-37.37,0l-34.72-.52L705,500.7,686.44,469l16.43-29c9.08-15.93,17.54-30.59,18.79-32.63l2.37-3.44,33.82-.35c18.62-.2,35,0,36.49.38C796.12,404.35,802.42,413.92,815.19,435.7ZM685.52,465.3c-1.75,2-5.17,2.33-37.6,2.67-26.73.28-36,0-37.26-1.26-2.94-2.76-36.23-60.69-36.25-63.09,0-2.2,30.82-57.71,34.57-62.31,1.75-1.92,5.17-2.21,37-2.54,26.09-.27,35.47,0,37,1.14,2.55,2,37.12,61,37.15,63.59C720.1,405.44,688.77,461.34,685.52,465.3ZM611.62,473c1.75-1.91,5.17-2.2,37.09-2.53l35.34-.37,3.09,4.65c6.82,10.45,34.3,58.3,34.32,59.82,0,.91-8.08,15.68-17.9,32.87L685.77,598.7l-35.85.75c-25.2.52-36.36.25-37.51-.75-1.66-1.38-34.28-56.27-36.1-60.69-.52-1.51,4.57-11.7,16.39-32.47C602,489,610.61,474.31,611.62,473Zm112.15,64.72c1.76-1.92,5.17-2.21,37.73-2.55l36-.37,3.09,4.65c8.37,12.84,34.3,58.18,34.32,60.08,0,2.2-30.94,57.83-34.57,62.18-1.75,2-5.17,2.33-37.6,2.67s-35.85.12-37.64-1.89c-3-3.26-36.23-60.94-36.25-62.59S720.77,541.33,723.77,537.75Zm95.7,29.15C809.41,549.78,801.28,535,801.26,534c0-2.16,32.82-60.77,35.7-63.72,2.64-2.56,70.28-3.39,72.84-.88.9,1,9.79,15.48,19.59,32.1L947.19,532,928.77,564.5,910.36,597l-36.35.38-36.36.37Zm122.82-18.75,8.58-14.92,36-.37,36.1-.37,3.09,4.65c9.91,15.23,34.44,58.81,33.82,60.46-1.23,3.18-33.33,59.51-35.34,61.81-1.75,2-5,2.33-36.33,2.66-25.59.26-34.84,0-36.37-1.27-2.43-1.75-37.11-60.43-37.14-62.71C914.67,596.57,919,588.93,942.29,548.15Zm101.76,15.15c-10.19-17.37-18.58-31.85-18.58-32.49s8.21-15.3,18.15-32.74l18.17-31.87,35.72-.37c32.55-.33,36-.12,37.77,1.77,2.18,2.51,37.13,62.07,37.14,63.21,0,.52-8,14.91-17.78,32L1137,594l-37.24.39-37.24.38Zm111.76,2.26c9.45-16.56,17.92-31.22,18.92-32.5,1.75-1.92,5.17-2.2,37-2.54,26.22-.27,35.35,0,36.63,1.14,2.56,2.64,36.23,60.69,36.25,62.84,0,1-8,15.93-17.77,33l-17.67,31.22-35.47.62c-19.5.46-36.1.38-36.86-.25s-9.66-15-19.72-32.1l-18.31-31.22Zm113.58-5.23c-10.06-17-18.32-31.86-18.33-33-.15-1.77,31.32-58.6,34.94-63.2,1-1.15,9.87-1.62,36.34-1.9,26.1-.27,35.6,0,37.26,1.13,1.15.88,9.91,15.1,19.58,31.73,12.13,20.52,17.43,31,17.2,32.88-.37,1.53-8.32,16.43-17.78,33l-17,30.07-37,.14H1287.7Zm-1.84-201.79c-8.71,15.29-17.17,29.95-18.79,32.5l-3,4.84-35.22.37c-19.25.2-35.73-.14-36.49-.64s-9.66-14.84-19.72-32.1c-16.25-27.7-18.06-31.48-16.82-34,5-9.68,34.09-60.27,35.22-61.05.75-.64,17.6-1.06,37.49-1l36-.12,10.71,18c5.8,9.82,14.18,24.05,18.57,31.6l7.87,13.86Zm-135-155.06c3.06,2.5,37.51,62.45,36.77,64.23-.37.89-8.45,15.42-18,32.24l-17.42,30.59-37,.38-37.12.38-18.44-31.48c-10.19-17.37-18.57-32-18.58-32.49,0-1.48,31.9-57,36.17-63.07a2.79,2.79,0,0,1,.42-.52c.75-.52,17.09-1.19,36.34-1.39,14.67-.15,24-.13,29.71.12C1129.72,202.66,1131.87,203,1132.54,203.48ZM1038.72,172l17.67,30.47-17.92,31.6-18,31.74-1.16,0-35.57.74-36.73.63-2.44-3.39c-4.89-6.92-35.2-59.18-35.22-60.7,0-1.8,29.89-54.49,35.69-63a5.33,5.33,0,0,1,.89-1.13c.76-.52,17.09-1.19,36.35-1.39,31.66-.33,35.09-.11,36.88,1.77C1020.15,140.67,1029,155.4,1038.72,172ZM924.78,106.57c15.47,26.32,17.8,31,16.56,33.27-.74,1.53-8.83,16.06-18,32.24l-16.8,29.7-1.82,0-34.53.35c-33.19.35-36.62.13-38.41-1.88-3.33-3.76-35.85-60.31-35.87-62.33,0-1.73,29.43-54.7,34.57-62.38.21-.31.38-.54.5-.7,2-2.3,72.31-2.9,74.36-.52C906.08,75.22,914.85,89.7,924.78,106.57Zm-87,98.91h0c4.85-.43,13.88-.6,31.5-.78,19.63-.21,36.23.13,37,.63a17.11,17.11,0,0,1,1.79,2.49v0c3.22,4.9,10.23,16.39,17.92,29.59,5.21,8.92,8.93,15.35,11.55,20.06,4.78,8.61,5.86,11.46,5.52,13.2a3.16,3.16,0,0,1-.25.77c-4.47,8.66-32.84,58-34.47,59.77-1.75,2-5.17,2.33-36.84,2.66-19.25.2-35.6-.13-36.36-.63-1.79-1.12-37.9-62.57-37.92-64.47,0-1.52,31.83-58.1,34.58-61.55C832.62,206.37,833.75,205.84,837.76,205.48ZM814.6,305.85c15.23,26.2,17.3,30.36,16,32.78-5.58,11.08-34.08,60.4-35.59,61.55s-10.62,1.76-36,2c-31.16.32-34.07.22-36.25-1.91-3.33-3.26-36.35-59.92-36.37-62.46,0-3.29,35-64.34,37.33-64.74,1-.27,17.35-.44,36.1-.38,23.69.14,34.59.53,35.62,1.53S804.93,289.23,814.6,305.85ZM701,305.26l-17.67,31.22-36.22.76c-33.31.6-36.35.5-38.15-1.51-1.54-1.88-31.07-51.74-35.72-60.56-1.55-3-2.42-1.5,28.06-54.77L608,208.68l37-.13h36.87L700.28,240c10.19,17.25,18.45,32,18.46,32.75S710.78,288.07,701,305.26ZM497.57,409c.87-1.15,9.86-1.63,37-1.91,32.43-.34,35.85-.12,37.64,1.76,2.05,2.26,32.23,53.38,34.82,58.93,1.17,2.65-.44,6.09-15.12,32.08-9.09,15.93-17.67,30.59-18.92,32.51l-2.37,3.57-34.58.36c-25.72.26-35,0-36.5-1.27-2.3-1.75-37.12-60.81-37.14-63C462.36,470.78,494.82,412.8,497.57,409Zm37.56,128.57c26.22-.27,35.6,0,37.13,1.14,2.3,1.87,37.13,61.43,37.15,63.71,0,1.44-29.09,53.39-33.83,60.41l-2.37,3.57-35.72.37c-19.64.2-36.36-.13-37.13-.63-2.16-1.37-36.6-60.3-36.63-62.71,0-1.9,31.57-59.11,35.19-64C499.8,538.3,508.66,537.83,535.13,537.55Zm77.21,66.6c.88-1.15,9.49-1.62,37.49-1.66h36.23l18.31,30.84c10.06,17,18.32,31.86,18.33,33.13.15,2.28-30.44,57.58-34.44,62.31-1.76,2-5.17,2.33-37.47,2.67-19.64.2-36.24-.13-37-.63-2.17-1.37-36.61-60.68-36.64-63.09C577.13,665.83,608.72,608.75,612.34,604.15Zm112.55,66c1.75-2.8,1.87-2.8,37.72-3.18,32.56-.33,36-.12,37.77,1.76,3.21,3.52,36,59.81,36.25,62s-31.32,58.47-35,62.94c-1.75,2-4.79,2.21-38.11,2.3H727.34L709,765.05c-10.06-17-18.32-31.74-18.33-32.75C690.56,730.78,717.91,681,724.89,670.12ZM820.83,698c-9.93-17.13-18.19-31.86-18.2-32.75,0-1.77,33.19-60.52,35.7-63.21,2-2,21.51-2.63,54.59-1.45l19.13.56,18.32,31.36c10.06,17.25,18.32,32.11,18.33,33,0,2.4-34.32,62.05-36.34,63.21-1.13.52-18.1.82-37.61.65l-35.61-.27Zm95.72,31.18c1.23-3.18,33.33-59.5,35.33-62.06,1.76-1.92,5-2.2,34.94-2.52,18.24-.18,34.34,0,35.86.39,2.16.61,7.57,8.79,21,31.58,9.93,17,18.06,31.49,18.07,32.37s-8.08,15.43-17.9,32.62L1026,792.79l-36.22.76-36.1.63-2.57-3.4C943.55,780,915.94,731,916.55,729.19Zm128.34-36.42-18.19-31.36,17.66-31.22c9.83-17.2,18.8-31.61,19.94-32.13s18-.82,37.11-.77l35,0,3.09,4.66c7.08,10.69,34.3,57.92,34.32,59.44,0,1.9-33.2,60.52-35.7,63.2-2.51,2.44-69.77,3.39-72.84.89C1064.09,724.75,1054.94,709.89,1044.89,692.77Zm131.21-28c1.75-1.92,5-2.2,36.83-2.53,19.26-.2,35.61.13,36.5.63,1.65,1,36.47,59.92,37.39,63.34.66,2.14-29.3,56.93-34.18,62.55-1.76,2.05-5.17,2.34-37.6,2.67s-35.85.12-37.65-1.88c-3.46-3.9-35.84-60.32-35.87-62.47S1172.59,669.15,1176.1,664.8Zm95.43,27.9c-9.8-16.63-17.81-31.24-17.82-32.5-.16-2.41,34-63.45,36.44-64.87,1.64-1.15,39.89-1.42,59-.48l13.31.62,18.32,31.35,18.31,31.23-2,4.08c-5.59,11.2-33.34,59-35,60.28-2.13,1.8-29.36,2.33-57.75,1.11l-15.09-.6Zm92.83-100c0-1.26,32.58-59.37,35.08-62.57,1-1.15,9.74-1.62,38.24-1.66h36.87l18.31,30.85c10.05,17,18.31,31.48,18.32,32.36.15,1.78-34.56,63.07-36.45,64.36-.75.51-17.09,1.19-36.34,1.39-26,.27-35.35,0-36.88-1.26C1399.21,654.38,1364.38,594.82,1364.36,592.66Zm112.55-68.18c.86-2.42,33-59.13,34.71-61.43.87-1.15,10-1.62,37.73-1.91l27-.28,9.53-.1,0,.06,2.41,3.34c4.37,6.29,35.07,59.18,35.09,60.7,0,1.9-34.7,62.94-36.58,64.1s-70.67,2-72.46.75C1511.4,587.84,1476.17,526.38,1476.91,524.48Zm-80.26-384.55,2.49-4.08,37.5-.14h37.5l17.8,30.22c9.8,16.62,18.06,31.11,18.45,32.24.26.8-4.88,10.9-11.36,22.91l-.13.25c-4.34,8-9.27,16.92-13.57,24.43l0,0c-5.45,9.52-9.89,16.85-10.86,17.49-1.76,1.29-71.94,2-73.85.77a.91.91,0,0,1-.16-.17c-2.84-3.47-35.58-58.35-37.1-62.41C1362.82,200.2,1381.47,165.8,1396.65,139.93Zm-46.94,60.14,1.83.08,2,.13.58.05c.36,0,.69.07,1,.11l.3,0a6.78,6.78,0,0,1,1.46.29l0,0h0c.95.37,2.32,1.81,4.41,4.74v0c3.29,4.62,8.34,12.9,16.25,26.43,9.55,16.49,17.68,30.85,18.07,31.86a1.33,1.33,0,0,1-.11.67c-1,3.23-8.15,16.9-17,32.45l-17.79,31.22-37.88.39-37.75.39-18.44-31.35c-15.73-27.07-18.06-31.74-17-34,6.09-12.1,34.09-60.4,35.59-61.68.88-.71,10.08-1.29,21.62-1.66h.12C1321.54,199.76,1339.71,199.64,1349.71,200.07ZM1134.41,67c2.23-5.09,32.84-58.49,34.84-60.92a5,5,0,0,1,3.14-1.41c3.81-.7,12.33-.9,33.83-1.12,26.09-.28,35.47,0,37,1.13a3,3,0,0,1,.41.46c4.73,6,36.71,60.44,36.74,62.88,0,1.65-33.31,61.91-35.57,64.22-.25.25-16.84.55-36.86.63-32.55.09-36.74-.12-38.53-2-1.15-1.13-9.79-15.36-19.2-31.47C1135.11,73.35,1133.3,69.69,1134.41,67ZM1113.8,70.6c9.57.09,16.13.33,16.6.64a1.41,1.41,0,0,1,.29.28c4.17,4.74,37.85,63.09,37.25,64.58-.37.89-8.45,15.29-18,32.11l-17.42,30.59h0l-37.1.38-37.24.39-18.31-30.85c-10.06-17-18.32-31.73-18.33-32.75-.07-.8,7.34-14.74,15.49-29.5l.15-.27c7.17-13,14.87-26.55,18.5-32.32l.06-.09c.13-.21.25-.4.38-.58,1.58-2.22,4.14-2.25,37.21-2.59,7.49-.08,14.55-.08,20.47,0ZM943.26,7.31c.75-.51,17.34-1.19,37-1.4,32.31-.33,35.73-.11,37.52,1.77,3.72,4.27,35.85,60.05,35.87,62.33a11.45,11.45,0,0,1-1,2.39c-2.4,5-8.84,17-15.49,28.91,0,0,0,0,0,.06-7.15,12.83-14.51,25.65-17.32,29.81l-.6.91-.08.12-1.69,2.54-36.11.37-36,.38-3.09-4.79c-8-12-34.31-58.3-34.33-60.32a30.92,30.92,0,0,1,2.4-5.23l.12-.23C918.21,49.8,941.48,8.59,943.26,7.31ZM792.87,140.63a34.77,34.77,0,0,1,3.59,5.17s0,0,0,0c6.92,10.94,21.68,36.31,28.9,49.55,2.53,4.65,4.13,7.8,4.13,8.32a7.17,7.17,0,0,1-.64,1.7c-2.08,4.55-9,17.34-17.14,31.55l-17.66,31.22-35.47.62c-19.5.46-36.1.37-36.86-.25s-9.66-14.85-19.72-32l-18.44-31.1,15.8-27.79c8.71-15.29,17.17-29.95,18.79-32.62l1.75-2.76,1.24-2,35.22-.37C775.63,139.79,792.11,140.13,792.87,140.63ZM681.61,76.79l.53.91,17.4,29.69,16.89,28.91.91,1.56-1.89,4-.1.21c-4.22,8.27-33.21,59-35.21,61.3s-3.78,2.32-36.72,2c-26.86-.23-35-.65-36.25-1.91-1.67-1.75-34.93-57.53-36.23-60.94-.72-1.75,28.31-54,35.32-63.85a9.16,9.16,0,0,1,1.24-1.52c2.14-1.67,34.19-2.25,60.3-1ZM567.93,12.59h0c1.77,1.62,27.32,45.64,34.26,58.65l.08.15a22,22,0,0,1,1.65,3.41c0,2-32.57,59.88-35.82,63.59a3.73,3.73,0,0,1-1.75,1.21c-2.67,1-8.9,1.18-27,1.37-14.83.15-31.17-.06-36.37-.38l-9.51-.79-18.31-31.1C465.26,91.58,457,76.85,457,76.09c0-1.81,29.82-54.18,35.66-62.9a6.93,6.93,0,0,1,.92-1.21C495.2,10.82,566.51,11.47,567.93,12.59Zm-208.1,101.5c9.09-15.93,17.68-30.59,18.92-32.63L381.12,78,417,77.64c32.56-.34,36-.12,37.77,1.76.94,1,4.49,6.72,9,14.31a.21.21,0,0,1,.06.1c6.7,11.16,15.54,26.35,21.41,36.79l0,.07c3.8,6.78,6.35,11.54,6.21,11.82-.24.51-8.46,15-18.28,32.5l-17.79,31.47h-2l-35.49.13H380.56L362,174.87l-17.87-30.52-.71-1.21Zm6.76,259.76,17.66-31.09,36.36-.38c32.93-.34,36.36-.13,38.15,1.76,3.59,4.14,35.85,60.43,35.87,62.59s-30.95,57.83-34.57,62.18c-1.76,2-5.17,2.33-37.73,2.67l-36,.37-3.09-4.78c-7.86-11.82-34.31-58.3-34.33-60.2C348.94,405.81,356.89,390.79,366.59,373.85ZM346,537.36c-.76.64-17.22.94-36.6.89-28.13-.09-35.61-.52-37-1.9-.89-1-9.66-15.22-19.33-31.72-15.6-26.32-17.55-30.48-16.43-33,2.35-5.09,32.84-58.49,34.84-60.92,1.62-1.92,4.41-2.2,24.8-2.28,12.67,0,29.14.2,36.75.63l13.82.61,17.79,30.22c9.8,16.63,17.81,31.24,17.82,32.5C382.59,474.91,348.5,535.56,346,537.36Zm20.47,32c-15.6-26.57-17.29-30.23-16-32.77,5.84-11.46,34.21-60.53,35.85-61.82,2.63-2.31,72.19-1.63,74.37.62,2.69,2.89,35.33,59.81,35.35,61.71,0,2.16-32.57,60.14-35.57,63.34-1.51,1.53-7.46,1.85-37.61,1.78-25.21,0-36.11-.39-37.26-1.39C384.77,599.92,376.14,585.82,366.46,569.33Zm94.31,163.08c-.76.51-17.48,1.19-37.11,1.4l-35.85.37-3.09-4.78c-7.21-10.95-34.3-58.3-34.32-59.95s32-59,35.07-63c1-1.15,10.12-1.62,37.86-1.91l36.61-.38,3.09,4.66c6.05,9.43,34.3,58,34.31,59.31C497.36,670,462.4,731.25,460.77,732.41Zm37.5,61.81c-6.95-10.69-34.43-58.3-34.44-59.56,0-.78,8.21-15.68,18.15-33.13l18.17-31.86,36.35-.38c33.19-.34,36.61-.12,38.41,1.76,3.33,3.89,35.84,60.43,35.86,62.46,0,1-7.95,15.8-17.77,32.87l-17.67,31.1-37,.76-37.11.64Zm96.1,103.9-17.67,31.1-36.1.62c-19.88.46-36.73.39-37.5-.24-1.4-.87-33.76-54.63-36.74-61.06-1.3-2.78.44-6.34,16.86-35.14l18.29-32,36.23-.38c20-.2,37,.13,37.76.62,2.3,1.37,36.61,60.69,36.64,63.22C612.14,866.16,604.19,881.05,594.37,898.12Zm94.77-35.32-36.48.38-36.61.38L613.61,860c-5-6.91-35.08-59.18-35.09-60.95s31.94-59.11,35.07-63.2c1-1.15,10-1.63,37.09-1.91,32.43-.33,35.86-.12,37.65,1.77,1,1.25,9.92,16,19.6,32.73l17.67,30.35-18.17,32Zm130.45,32.6L801.3,927.52l-36,.37-36,.37-3.09-4.78c-5.67-8.55-34.3-58-34.32-59.31,0-1.77,34.95-62.95,36.58-64.1.76-.52,17.09-1.2,36.35-1.4,31.67-.32,35.09-.11,36.88,1.77,2.57,2.89,34.68,57.79,35.47,60.7C837.49,862.4,830.54,876.16,819.59,895.4Zm93.76-34.92-36.23.12H840.89l-18.44-31.22c-10.19-17.25-18.45-32-18.46-32.62,0-1.29,25.36-47,33.21-60l2.86-4.71,35.85-.38c19.63-.2,36.36.13,37.12.63s9.66,15,19.72,32.1l18.32,31.23-16.43,28.93C925.56,840.46,917.1,855,915.85,857Zm114.68,63c-1,1.28-10,1.75-37.1,2-32.43.33-35.85.12-37.65-1.89-3.07-3.52-35.84-60.19-35.86-62.09,0-1.43,24.48-45.62,33.2-60.14l2.86-4.72,36-.37c32.55-.34,36-.12,37.77,1.76,3.33,3.9,35.85,60.44,35.87,62.47C1063.12,862.34,1031.28,919.55,1028,923.51Zm111.29-67.16c-1.38,1.54-8,1.86-37.35,1.91h-35.73l-18.31-30.84c-10.06-17-18.31-31.36-18.32-32-.14-1.52,32.94-60.27,35.7-63.59,1.75-1.92,5-2.21,36.84-2.54,19.25-.2,35.6.14,36.36.64,2,1.37,36.61,60.56,36.63,62.84S1142.33,853.41,1139.32,856.35Zm113.55,64.7c-2.51,2.43-69.77,3.39-72.84.89-2.68-2-37.12-60.94-37.14-63.6,0-1,7.95-15.92,17.64-32.86l17.67-31.1,37-.38,37-.39,18.18,31c10.06,17.12,18.2,31.86,18.21,33C1288.59,859.62,1255.63,918.11,1252.87,921.05Zm113.19-67.56c-1.75,2-5.17,2.34-37.73,2.67l-35.85.38L1290,853c-5-7.3-35.07-59.06-35.09-60.7s4.09-9.17,27.61-50.08l8.58-14.91,36.36-.12h36.23l18.45,31.48c10.18,17.25,18.45,32.24,18.46,33.25C1400.64,793.88,1369.19,849.91,1366.06,853.49Zm114.16-58.83c1.29,2,9.8,16.12,19,31.61,14.7,25.05,16.25,28.46,15.14,31.13-2.23,5.09-32.84,58.49-34.84,60.79-1.75,2-5.17,2.34-37.72,2.67l-36,.38-3.09-4.78c-6.43-9.69-34.3-58.18-34.32-59.57s4.34-9.29,27.61-49.95l8.59-14.91,36.6-.38,36.61-.38Zm31.22-68.6c-3.84,8.65-34.09,60.27-35.85,61.3-1.26.65-18,.95-37.37.77l-35.09-.27L1384.43,756c-10.32-17.63-18.71-32.24-18.71-32.62,0-1.39,35.2-62.44,36.59-63.47.75-.52,17.22-.94,36.47-1,29.27.07,35.48.39,37,1.89.9,1,9.79,15.36,19.47,32C1511.5,720.35,1512.8,723,1511.44,726.06ZM1607,690l-17.66,31.1-36.1.62c-19.89.46-36.74.26-37.63-.24-1.27-.74-35.7-58.41-37.26-62.57-.39-.89,7.56-16,17.51-33.63l18.29-32,36.61-.38,36.61-.38,3,4.66c8.24,12.71,34.43,58.42,34.45,60.07C1624.74,658.13,1616.79,672.9,1607,690Zm94.76-37c-1,1.28-10,1.75-37,2-19.51.2-36.23-.13-37-.63s-8.37-12.84-16.88-27.32c-21.92-37.39-21.15-35.76-19.53-38.94.74-1.53,8.83-16,18-32.36l16.8-29.57,36.48-.38c33.06-.34,36.48-.12,38.28,1.76,3.33,3.89,35.84,60.43,35.86,62.46C1736.81,591.83,1705,649.05,1701.72,653Zm130.49-97.26L1814.42,587l-36.61.64c-20.13.46-37.24.38-37.88-.24-2.17-1.37-36.73-60.81-36.76-63,0-1.67,23.61-44.72,33.2-60.52l2.86-4.72,37-.13h37l18.44,31.48c8.27,14,15.27,26.36,17.63,30.91h0a9.85,9.85,0,0,1,.83,1.83C1850,523.89,1842,538.55,1832.21,555.75Z"/><path class="cls-2" d="M495,275.37a10.9,10.9,0,0,0-1-2.81,49.75,49.75,0,0,0-2.48-4.54c-2.45-3.9-11.22-18.76-19.47-33l-15.22-25.81h-1.15L419.15,209h-.3c-20.52-.16-37.71-.61-38.09-1.12s-9.15-15-19.21-32.1L343.69,145.3l-.46-.78h-1.31l-37.45,0-27.15.11-10,0H265.7l-.84,1.48h0l-17,30c-9.83,17.2-18.67,32.12-19.54,33.14-1.88,1.79-27,2.31-57.89,1.11L154,209.83l-18.83-32.11L117,146.91l-.76-1.3h-1.43l-36.32-.23-37.89-.24L25.37,119.32C2.16,80.16,3.58,83.18,5.94,78.47c4.72-9.42,33.21-58.87,34.47-59.65.59-.4,11.53-.9,26.27-1.21h.17c4.15-.09,8.6-.16,13.2-.21l37.1-.39h1l9.74-17h-2c-4.16,7.2-7.53,12.73-8.86,14.32a2.67,2.67,0,0,1-.42.42c-1.76,1.28-71.94,2-73.86.77a1,1,0,0,1-.2-.21C41.62,14.09,37.81,8,33,0H29.29c4.91,8.59,8.3,14.66,8.55,15.3.39,1-7.31,15.92-17.14,33.12L2.91,79.64H2.86L0,79.67v3.17H1.3l.06.09,3,4.56c4.5,6.92,34.3,58.05,34.31,59.06a3.11,3.11,0,0,1-.23.53c-2.79,5.59-29.62,53-34.11,60.13l-3,4.85H0v2.24a4.69,4.69,0,0,1,1.78.53c1.15.87,9.91,15.1,19.59,31.72,12.12,20.53,17.42,31,17.19,32.89-.37,1.52-8.32,16.43-17.77,33l-17,30.08H0v4.19l4.67.22L23,378.29,41.3,409.52l-2,4.07c-5.59,11.21-33.34,59-35,60.29-.44.37-2,.69-4.35.94v3.85H5.92l18.44,31.48c10.19,17.26,18.45,32.24,18.46,33.26,0,1.94-31.45,58-34.58,61.55C7.31,606,5.92,606.63,0,607v3.41H8.42l17.8,30.22C36,657.24,44,671.86,44,673.25c.15,2.4-32.31,60.64-35.56,64-.76.71-2.91,1.17-8.48,1.5v2.11l8.77.06,17,29c9.29,15.86,18.18,30.85,19.6,33l2.7,4.15,37.88-.4c35.09-.36,38-.52,38.61-2.68.49-1.14,8.7-16.18,18.53-33.38l17.79-31.22,38-1,37.86-1,18.3-31.86c10.07-17.58,18.27-32.48,18.27-33.26.12-1.39-35.23-62.85-37.54-65.36-.64-.75-16.1-1.35-38.78-1.49l-37.5-.25-17.15-29c-9.42-16-18.06-30.72-19.22-32.86l-2.2-3.91,17.8-31.09c9.7-17.08,18.29-31.48,19.17-32s18-1.2,38.12-1.41l36.71-.38h0l16.67-29.69c9.2-16.19,17.79-31.1,19-33.14l2.38-3.44,37-.39,37-.38,1.62-2.84,16.92-29.66c7.54-13.37,12.34-21.59,15.59-26.54,3.13-4.76,4.82-6.49,6.11-6.88,1.64-.39,18.36-.57,36.86-.25,31.68.55,34,.4,35.71-1.77,1.12-1.28,9.71-15.94,19.17-32.63s17.54-30.59,18.05-30.84C495,275.89,495,275.68,495,275.37ZM455.4,210.5l.06.11L473.84,242c10.19,17.25,18.45,32,18.46,32.74a2.18,2.18,0,0,1-.09.24c-.93,2.06-8.53,16-17.81,32.26l-17.8,31.22-36.6.63c-20.14.46-37.24.39-37.88-.24-2.17-1.37-36.74-60.81-36.76-63,0-1.69,23.6-44.72,33.19-60.52l2.87-4.72,37-.13ZM266.5,148.1c1.75-1.92,5.17-2.2,37.72-2.54,28.63-.3,36.11,0,37.52,1.38,1,.88,9.78,15.36,19.59,32.1l17.8,30.48-.34.6L362,239.72C352.63,256.29,344,270.94,343,272.09c-1.76,2.05-5.17,2.34-37.47,2.67-19.64.21-36.24-.13-37-.63s-9.66-14.84-19.72-32.1c-14.61-24.81-17.53-30.41-17.1-33.13a3.26,3.26,0,0,1,.28-.9C236.62,199.21,264.87,150,266.5,148.1ZM153.8,214.52c.88-1.15,10-1.63,37.74-1.91l27.78-.29,8.7-.09,0,.06,2.4,3.33c4.37,6.29,35.07,59.18,35.09,60.7,0,1.9-34.69,62.94-36.58,64.1s-70.67,2-72.46.76c-2.93-1.87-38.16-63.33-37.41-65.24C120,273.52,152.05,216.82,153.8,214.52ZM5.18,212.77c0-3,34.32-62.44,37-63.86.91-.48,5.8-.83,12.66-1,20.71-.68,59.38-.2,60.82,1.3.77.88,9.41,15,19.08,31.6,10.51,17.88,14.79,25.37,16.13,29.2.7,2,.6,3,.18,3.95-2.48,5.48-32.59,58.24-34.72,60.54-1.75,2-5.17,2.33-37,2.66-26,.27-35.47,0-37.13-1.26C39.64,274,5.21,215.3,5.18,212.77ZM6.55,344.13c0-1.27,32.57-59.38,35.07-62.57,1-1.15,9.74-1.62,38.24-1.66h36.87L135,310.74c10.06,17,18.32,31.48,18.32,32.37.15,1.77-34.56,63.07-36.45,64.35-.75.52-17.09,1.2-36.34,1.4-26,.26-35.35,0-36.88-1.27C41.39,405.84,6.57,346.28,6.55,344.13ZM142.08,768.89C132.62,785.59,124,800.25,123,801.4c-1.75,2-5,2.33-36.2,2.65-24.7.26-35.22-.14-37.39-1.26-1.91-1-9.11-11.81-20.34-31.08-9.67-16.24-17.67-30.22-17.93-30.85-.52-1.26,34.68-64.34,36.7-65.5.62-.51,17.34-.81,37.11-.76,29,.08,36.11.38,37.26,1.89.77.88,9.41,15.36,19.21,32l17.67,30.22Zm18.09-160.7,36.48-.38c33.19-.34,36.62-.12,38.41,1.76,3.2,3.64,35.84,60.31,35.86,62.21,0,1-8.08,15.8-17.77,33L235.36,736l-37.24.39-37.37.38-18.31-30.84c-10.06-17-18.32-31.61-18.33-32.63-.14-1.64,3.84-8.78,27.48-50.2Zm-37.76-62.06c1.29,2,9.79,16.11,19,31.6,14.7,25.06,16.26,28.46,15.15,31.13-2.23,5.1-32.84,58.49-34.85,60.8-1.75,2-5.17,2.33-37.72,2.67l-36,.37-3.09-4.78c-6.43-9.69-34.3-58.17-34.31-59.57s4.33-9.29,27.6-49.94l8.59-14.92,36.61-.38,36.61-.38Zm31.21-68.61c-3.84,8.66-34.09,60.28-35.85,61.31-1.26.65-18,.95-37.36.77l-35.1-.27-18.7-31.86C16.29,489.84,7.91,475.23,7.9,474.85c0-1.39,35.21-62.44,36.59-63.47.75-.51,17.22-.94,36.48-1,29.26.08,35.47.39,37,1.9.89,1,9.79,15.35,19.46,32C153.69,471.82,155,474.47,153.62,477.52Zm77.86-5-36.1.63c-19.88.46-36.73.25-37.63-.24-1.27-.75-35.7-58.41-37.26-62.58-.39-.88,7.56-16,17.51-33.63l18.3-32,36.6-.38,36.61-.39,3,4.66c8.24,12.71,34.44,58.43,34.45,60.07,0,.91-7.95,15.68-17.77,32.75Zm112.43-68.06c-1,1.28-10,1.75-37,2-19.5.21-36.23-.13-37-.63s-8.36-12.83-16.87-27.31c-21.93-37.4-21.15-35.76-19.54-38.94.75-1.53,8.83-16.06,18-32.37l16.8-29.57,36.48-.37c33.06-.35,36.49-.13,38.28,1.75C346.44,283,379,339.5,379,341.53,379,343.3,347.16,400.51,343.91,404.47Z"/><path class="cls-2" d="M1131.64,71.79a2.11,2.11,0,0,0-1-.27c-2.23-.38-8.22-.69-16.89-.92h0c-5.85-.15-12.93-.26-20.89-.31l-37.5-.24-17.15-29c-9.42-16-18.06-30.72-19.22-32.87l-2.2-3.9L1019.26,0h-2.93c-1.15,1.79-2,3-2.43,3.57a1.75,1.75,0,0,1-.28.28c-1.17.59-15.69.9-33.28.79h-.08l-4,0-35.1-.26L938.61,0h-4.19c2.65,4.84,4.24,8,4.25,8.43,0,1-9.06,17.66-17.94,33.39,0,.08-.09.16-.14.24C913,55.55,905.53,68.32,904.09,70c-1.75,2-5.17,2.34-37.72,2.68L830.52,73l-.56-.8-1.89-2.72c-5-7.3-35.07-59-35.08-60.7,0-.71.87-2.73,4.17-8.8h-2.93a50.91,50.91,0,0,1-3.56,5.28c-1.75,2-5.17,2.33-37.6,2.67s-35.85.12-37.65-1.89a64.78,64.78,0,0,1-4-6.06h-2.95c2.86,5.17,4.7,8.72,4.71,9.25,0,2.15-32.82,60.64-35.83,63.59-.45.5-1.47.87-3.66,1.15h0c-4.51.56-14,.72-33.66.75H604.27l-2-3.34-.08-.15L586,43.89c-8.94-15.13-16.47-28.16-18-31.29h0a3.16,3.16,0,0,1-.29-.69,9,9,0,0,1,.83-1.92c1-2.05,2.88-5.59,5.27-10h-4.38l-5.12,9-.17.29L527.84,10l-36.1.63-.23-.3-2.33-3.09C488,5.63,486.41,3.1,484.5,0H482l7.09,12.08L472.68,41c-9.09,15.93-17.55,30.46-18.8,32.5L452.79,75,451.39,77l-36.23.12H378.92l-.07-.12L360.48,45.85C350.29,28.6,342,13.86,342,13.23c0-.44,2.81-5.8,6.85-13.23h-2.94c-3.07,5.26-5.39,9.06-6.23,10.09-1.75,2-4.79,2.2-38.1,2.29H265.37L258,0h-3.3l8.91,15.31-18.16,32-18.29,32-36.49.38-36.6.38-2.45-3.53C147.05,70.19,121.4,25.74,117.15,17a6.25,6.25,0,0,1-.6-1.44,5.87,5.87,0,0,1,.51-1.25C118.16,12,121,6.62,124.59,0H121.3l-7.93,14-37,.76-33.8.58-3.31.06-3-4.66c-1.45-2.22-3.78-6-6.57-10.7H27.55c5.29,9.27,9.19,16.39,9.2,17,0,1-8.08,16.06-18,33.51C11.65,63,5.65,74,2.86,79.64c-.75,1.51-1.26,2.63-1.5,3.28a1.41,1.41,0,0,0-.15.61c.26.63,8.9,15.37,19.09,32.74l18.17,30.8.4.68,15.93.11,21.57.14c20.65.16,37.89.62,38.4,1.12S123.92,164,134,181.22L150.83,210l1.46,2.49,38.77,0,28.26-.11,8.74,0h1.76l1.93-3.38,16-28c9.7-17.33,18.92-32.12,20.31-33.15,2-1.42,9.48-1.62,37.48-1.28l35,.4,18.7,31.6,18.57,31.61h1l36.86.23,23.68.15,14.2.09,18.83,32.11,18.83,32.11,1,.15.33.05,2.43.36,1.65.25.16,0c3.17.34,20.27.67,38.26.49l32.43-.21.77-1.36L583.89,247c9.08-16.06,17.79-31.23,19.42-33.78l3-4.84,37.49-.64,37.62-.77L699,176.24c9.58-17,18.29-31.73,19.29-32.88a3.12,3.12,0,0,1,1.68-1c3-.95,11-1.07,35.55-1.12h35.6L810,173.31l18.83,32.11h0l8.89.06h0l28.93.18,37.89.24,17,29c9.29,15.87,18.18,30.85,19.6,33l1.84,2.84.86,1.32,2.29,0,35.59-.38c28.33-.29,35.68-.45,37.78-1.64a1.57,1.57,0,0,0,.83-1c.49-1.14,8.7-16.18,18.53-33.38l17.79-31.23,2.15-.06,35.85-1,30.62-.83,7.24-.2,18.3-31.86c10.07-17.58,18.27-32.48,18.27-33.26C1169.3,135.76,1134,74.3,1131.64,71.79ZM910.33,65.16l.12-.23C914.25,58,921.31,45.61,934,23.42L942.6,8.51l73.22-.76,2.44,3.4c1.29,2,9.79,16.11,19,31.6,12.27,20.93,15.38,26.75,15.43,29.65a3.59,3.59,0,0,1-.28,1.48c-1,2.3-7.84,14.53-15.21,27.43,0,0,0,0,0,.06-7,12.34-14.57,25.28-17.92,30.72l-.08.12a28.14,28.14,0,0,1-1.61,2.46c-1.75,2.05-5.17,2.34-37.72,2.68l-36,.37-3.09-4.78c-6.43-9.69-34.3-58.18-34.31-59.57C906.4,72.69,907.27,70.75,910.33,65.16Zm-418.81-52h1.13l34.84-.37c32.56-.33,36-.12,37.77,1.76,3.34,3.9,35.85,60.44,35.87,62.47,0,1.77-30.26,56.19-34.77,62.56l-.3.39c-1,1.27-10,1.75-37.1,2-32.43.34-35.85.12-37.64-1.89-.7-.81-3-4.39-6-9.47l0-.07c-5.94-9.83-14.87-25.2-21.41-36.79a.21.21,0,0,0-.06-.1c-4.82-8.56-8.32-15-8.33-15.65,0-1.42,24.49-45.61,33.2-60.15Zm-225,3.35c.75-.52,17.09-1.19,36.34-1.39,31.67-.33,35.09-.11,36.89,1.77,2.56,2.88,34.67,57.79,35.46,60.69.27,1.27-6.68,15-17.63,34.26L339.33,144l-36,.37-26,.28-9.94.1,0-.07-3-4.72c-5.66-8.55-34.3-58-34.31-59.31C230,78.88,264.92,17.7,266.56,16.55ZM41.13,146.08C39.73,145.21,7.37,91.45,4.39,85c-1.29-2.77.44-6.34,16.87-35.14l18.29-32,27.13-.28h.17l8.93-.09c20-.21,37,.12,37.76.62,2.29,1.37,36.61,60.68,36.63,63.21,0,1.29-7.95,16.18-17.77,33.25l-17.61,31-.06.1-36.09.63C58.75,146.79,41.9,146.71,41.13,146.08ZM228.28,210c-.75.51-17.47,1.19-37.1,1.39-28.51.3-36,0-37.39-1.38-1-.88-9.79-15.36-19.46-32l-17.8-30.34.45-.8,16-28.26C142,102.72,150.49,88.06,151.74,86l2.5-3.44,36.61-.13h36.74l18.69,31.48c10.19,17.25,18.58,31.86,18.58,32.24h0C264.74,147.67,229.66,209.11,228.28,210Zm150.35-2.2L361.09,178c-6.73-11.25-12.56-21.56-15.55-27.27a26.28,26.28,0,0,1-2.13-4.6,2.84,2.84,0,0,1,.28-.81c.11-.26.25-.58.43-1,2.19-4.64,9.22-17.6,17.43-32.13l18.17-32,73-.76,18.18,31c10.06,17.13,18.2,31.74,18.21,32.63,0,2-29.75,54.61-35.65,63.39a6.92,6.92,0,0,1-.93,1.22c-.88.62-17,1.1-33.34,1.28h-.3c-13.86.15-27.79.07-32.61-.34l-6.18-.66ZM494,272.56l-1.89,0L487,263.85l0-.06-13.18-22.37c-7.29-12.58-13.68-23.67-16.56-28.86h0a28.73,28.73,0,0,1-1.62-3.12,1,1,0,0,1,.08-.22c1.77-4.07,34.43-61.53,36.5-64.14.3-.37,1-.66,2.37-.88,3.82-.58,13.1-.6,35.11-.27,19.9.18,36.5.89,36.88,1.27,2.82,2.75,36,60.94,36,63,0,3.61-27.45,51.41-35.57,62.39a7.86,7.86,0,0,1-2,2.23c-1.38.52-18.36.69-37.74.39Zm204.34-99.1c-9.71,17.08-18.17,31.36-19,31.87s-17.47,1.2-37.11,1.4l-35.85.37-3.09-4.65c-.69-1.07-1.59-2.52-2.66-4.27a.21.21,0,0,0,0-.06c-4.55-7.47-12-20.31-18.6-31.77-7-12.34-13-23.09-13-23.85,0-1.52,32.07-59.24,35.07-63.07a4.52,4.52,0,0,1,2.32-.73c4.17-.64,14.31-1,34.78-1.18,32.43-.34,35.85-.12,37.65,1.76,1.79,2.14,30.67,50.74,35.07,59.18l1.69,3.4.38.76Zm19.78-35a13.18,13.18,0,0,1-1.64-2.12c-6.53-9.53-28.81-47.64-34.29-58.6a12.68,12.68,0,0,1-1.22-2.87.41.41,0,0,1,0-.1c.36-1.64,8.17-16.23,17.64-32.77l17.66-31.1,37-.38,37-.39,18.19,31c10.06,17.13,18.19,31.86,18.2,33,0,2-31.54,58-35.48,63.19a2.71,2.71,0,0,1-.22.27,1.72,1.72,0,0,1-.69.31q-.47.14-1.2.27h-.09C777.38,140.11,720.87,140.71,718.07,138.42ZM831,203.75c-.48-.27-2.6-3.49-5.61-8.35-8.1-13.05-22.62-38-28.9-49.55,0,0,0,0,0,0-2-3.62-3.12-5.93-3-6.14.25-.51,8.46-15.16,18.41-32.62l17.79-31.48h.79l36.45-.13h37.37l17.8,30.22c9.8,16.62,17.81,31.23,17.82,32.63.15,2.33-30.45,57.3-35.2,63.53-.15.19-.27.33-.36.43-1.51,1.41-8.47,1.86-36.85,2.16C848.23,204.59,831.75,204.25,831,203.75Zm114.3,64.06c-1-.54-3.7-4.06-7.73-10.32-3.32-5.12-7.56-12.09-12.61-20.76-7.7-12.93-14.34-24.42-16.86-28.89v0c-.64-1.13-1-1.81-1.06-1.94-.52-1.26,34.68-64.34,36.7-65.5a4.53,4.53,0,0,1,1.28-.21c4.32-.38,19-.59,35.83-.55,29,.07,36.11.38,37.26,1.89.77.88,9.41,15.36,19.21,32L1055,203.71l-17,30.2c-8.68,15.32-16.63,28.92-18.66,32a4.7,4.7,0,0,1-.39.55c-1.75,2-5,2.34-36.2,2.66C958,269.33,947.46,268.93,945.29,267.81ZM1131.21,201l-37.24.38-37.37.39-18.31-30.85c-10.06-17-18.32-31.6-18.33-32.62-.12-1.36,2.6-6.5,17-31.85l.15-.27,10.31-18.08,8.19-14.24.06-.09.33-.58h0l36.43-.38c33.19-.34,36.62-.13,38.41,1.76,3.2,3.64,35.84,60.31,35.86,62.21,0,1-8.08,15.8-17.77,33l-16.53,29Z"/><path class="cls-2" d="M1849.14,132.15c1.75-1.92,5-2.21,34.94-2.52,18.24-.19,34.33,0,35.85.39,0,0,0,0,.07,0v-4.47c-3,1-10.47,1.25-34.56,1.5-25.58.27-34.83,0-36.37-1.26-2.42-1.75-37.11-60.43-37.13-62.71,0-1.52,4.33-9.17,27.6-49.95L1847.12,0h-4.37L1826,29.52,1807.62,62l-36.36.37-36.35.38-18.19-30.85c-8.84-15-16.2-28.26-17.85-31.92h-4l3,4.5c8.36,12.84,34.3,58.17,34.32,60.07,0,2.2-31,57.84-34.57,62.19-1.76,2-5.17,2.33-37.6,2.67s-35.85.12-37.65-1.89c-3-3.27-36.23-60.94-36.25-62.59s32-58.61,35-62.19c1.75-1.91,5.17-2.2,37.72-2.54L1679.58,0h-61c-1,2.57-8.64,16.48-17.79,32.49L1583,63.72l-35.85.75c-25.2.51-36.35.25-37.5-.75C1508,62.34,1475.38,7.44,1473.57,3c-.14-.4.11-1.4.77-3h-5.88l-.62.93-34.58.36c-25.71.27-35,0-36.5-1.26l0,0h-4.39a10.65,10.65,0,0,1,.91,2.09c0,2.15-32.57,60.13-35.58,63.33-1.5,1.54-7.45,1.85-37.61,1.79-25.21,0-36.11-.39-37.26-1.39-.51-.59-4.52-7-10-16.19l-.11-.2c-2.71-4.51-5.77-9.66-9-15.08-4.7-8-8.13-13.92-10.61-18.36l0-.06c-5.72-10.26-6.28-12.58-5.41-14.36.23-.46.51-1,.81-1.57H1245c-.55.85-1,1.5-1.32,1.91a3,3,0,0,1-.44.47c-.75.64-17.22.94-36.6.89-25.49-.08-34-.44-36.44-1.54a1.9,1.9,0,0,1-.35-.19,1,1,0,0,1-.22-.17,13.42,13.42,0,0,1-1-1.37H1166l2.76,4.67,3.62,0,34.14.23,37.1.24h.78L1262.72,36c10.06,17,18.32,31.61,18.33,32.5s-7.7,15.41-17.4,32.23-17.79,31.48-18.16,32.49c-.19.53,1.86,4.8,5.39,11.36,3.29,6.12,7.85,14.23,13.08,23.17l12.55,21.53,6.54,11.21,23.87-.25h.12l12.87-.14c15.25-.16,24.29-.2,29.8,0l1.83.08c.75,0,1.41.08,2,.13l.58.05c.36,0,.69.07,1,.11l.3,0a11.11,11.11,0,0,1,1.5.31h0a3.79,3.79,0,0,1,1.91,1.06,41.8,41.8,0,0,1,2.5,3.68v0c8,12.59,30.84,51.87,34.21,59a4.51,4.51,0,0,1,.42,1.06c0,1-8.07,16.06-18,33.51s-17.78,32.23-17.52,33,8.9,15.36,19.09,32.74l18.57,31.48,14.61.09h.11l22.78.15c17.67.15,32.84.5,37.17.91a3.91,3.91,0,0,1,1.23.21c.51.38,9.15,14.86,19.21,32.11L1511.51,461l38.77,0,26-.1,9.57,0H1589l.73-1.27L1607,429.46c9.7-17.33,18.92-32.12,20.31-33.15,2-1.41,9.48-1.61,37.48-1.27l34.75.4h.22l.7,1.18,18,30.42,18.37,31.27.2.33,37.88.24,24.28.15,13.61.09,18.83,32.11,17.7,30.19h0l1.12,1.91,2.33.35,3.26.48c3.17.35,20.27.68,38.26.49l25.74-.17v-2.84c-6.4.24-19.36.28-33.62.05l-34.63-.64h-.47L1833,490c-9.32-16.05-17.15-29.67-18.1-31.73,0,0,0,0,0,0a1,1,0,0,1-.08-.22c0-1,34.45-61.67,36.58-64.35,1.12-1.41,7.46-1.6,37.48-1.15,13,.11,24.58.45,31.17.78v-3.56c-5.32.46-15.14.71-31.82.88-32.43.34-35.85.12-37.64-1.89-3.08-3.51-35.85-60.18-35.87-62.08,0-1.41,24.49-45.61,33.2-60.14l2.87-4.72,36-.37c19.85-.21,28.87-.21,33.29.25v-3.73l-32.94.69-36.1.63-2.56-3.4c-7.59-10.81-35.21-59.81-34.6-61.59C1815,191,1847.14,134.7,1849.14,132.15ZM1659.87,132c32.55-.34,36-.12,37.77,1.76,3.2,3.52,36,59.8,36.24,62s-31.32,58.47-34.94,62.94c-1.76,2.05-4.8,2.21-38.11,2.3h-36.24l-18.31-30.84c-10-17-18.32-31.74-18.33-32.75-.14-1.52,27.22-51.34,34.2-62.18C1623.89,132.33,1624,132.33,1659.87,132Zm38.68,260.57-36,.38-26.33.27-9.65.1,0-.06-3-4.72c-5.66-8.56-34.3-58.05-34.31-59.31,0-1.78,34.94-62.95,36.58-64.11.75-.51,17.09-1.19,36.34-1.39,31.67-.33,35.09-.11,36.89,1.77,2.56,2.89,34.68,57.79,35.47,60.7.26,1.26-6.69,15-17.64,34.26ZM1475.77,264.11c0-.61,4.12-8.4,9.54-18.33l0,0c4.17-7.64,9.13-16.56,13.57-24.43l.13-.25c5.8-10.25,10.68-18.69,11.81-20.16a4.65,4.65,0,0,1,2.41-.74c4.22-.64,14.36-1,34.69-1.17,32.43-.34,35.85-.12,37.64,1.76,1,1.26,9.92,16,19.6,32.74l17.67,30.35-18.16,32-18.29,32-36.49.38-36.6.38-2.45-3.52c-4.66-6.44-31-52.1-34.66-59.87A4.44,4.44,0,0,1,1475.77,264.11Zm71.31-196.6h36.23l18.31,30.85c10.06,17,18.32,31.86,18.34,33.13.15,2.28-30.44,57.58-34.45,62.31-1.75,2-5.17,2.33-37.47,2.67-17.75.18-33-.07-36.35-.49a2.18,2.18,0,0,1-.65-.14c-2-1.27-31.8-52.42-36.11-61.72a5.38,5.38,0,0,1-.52-1.37c0-1.9,31.56-59,35.19-63.58C1510.47,68,1519.08,67.55,1547.08,67.51Zm-150.91-63c.88-1.15,9.74-1.63,36.22-1.9,26.22-.27,35.6,0,37.13,1.13,2.3,1.88,37.12,61.44,37.15,63.72,0,1.42-29.09,53.39-33.84,60.4l-2.37,3.57-35.72.38c-19.63.2-36.36-.13-37.12-.63-2.17-1.37-36.61-60.3-36.63-62.71C1361,66.53,1392.55,9.32,1396.17,4.47ZM1285.07,199.2l-3.09-4.78c-7.21-10.95-34.31-58.3-34.33-59.95a3.59,3.59,0,0,1,.31-.83c3.29-7.29,31.82-58.39,34.77-62.12,1-1.15,10.11-1.62,37.86-1.91l36.6-.38,3.09,4.65c6.06,9.44,34.3,58.05,34.32,59.32,0,1.77-34.95,63.07-36.58,64.23-.57.38-10.11.86-23.13,1.16h-.19c-4.29.1-9,.19-13.79.24Zm110.46,60c-7-10.7-34.43-58.3-34.45-59.57,0-.42,2.53-5.21,6.48-12.37l.15-.28c3.15-5.68,7.17-12.83,11.53-20.47l18.16-31.86h.66l35.7-.37c30.9-.33,36-.16,38,1.39a2.77,2.77,0,0,1,.4.36c3.33,3.9,35.85,60.44,35.87,62.47,0,1-8,15.8-17.78,32.87l-17.66,31.09-37,.77-35.16.61-2,0Zm78.42,135-36.09.63c-19.89.46-36.74.38-37.51-.24a5.74,5.74,0,0,1-.75-.95c-5.1-7.31-33.22-54.14-36-60.11-1.29-2.78.45-6.34,16.87-35.14l17.76-31.06.53-.93,24.14-.25h.26l11.83-.12c20-.21,37,.12,37.76.62,2.29,1.37,36.61,60.68,36.63,63.22,0,1.3-8,16.19-17.77,33.25l-17.62,31Zm113.55,64.32c-.75.52-17.47,1.2-37.1,1.4-28.51.3-36,0-37.39-1.39a1.23,1.23,0,0,1-.15-.16c-1.53-1.8-10-15.81-19.31-31.81l-17.8-30.35,16.42-29.05c9.08-15.93,17.55-30.59,18.79-32.63l2.5-3.45,36.61-.12h36.74l18.7,31.48c8.5,14.41,15.76,27,17.91,30.94a10.86,10.86,0,0,1,.66,1.3C1624.1,396,1588.88,457.65,1587.5,458.55ZM1830.08,359c10.06,17.12,18.2,31.73,18.21,32.62,0,2.15-34.69,63.33-36.58,64.61-.89.64-17.44,1.13-34,1.29H1777c-13.49.15-26.82.05-31.51-.35l-4.21-.44-2.56-.27h0l-.81-.08-17.53-29.85c-6.18-10.32-11.6-19.85-14.76-25.76-1.85-3.46-2.92-5.69-2.93-6.11,0-1,8.2-16.31,18.14-33.88l18.17-32,36.48-.38,36.48-.38Zm-.07-129.6,18.31,31.23-16.42,28.93c-9.09,15.93-17.55,30.46-18.79,32.5l-2.5,3.44-36.23.13h-36.24l-18.44-31.22c-10.18-17.26-18.45-32-18.45-32.63,0-1.28,25.35-47,33.2-60l2.86-4.72,35.85-.37c19.64-.2,36.36.13,37.13.63S1820,212.26,1830,229.39Zm-20.39-35.64c-1.14.52-18.11.82-37.62.64l-35.6-.26L1718.09,163c-9.94-17.13-18.2-31.86-18.21-32.75,0-1.77,33.2-60.52,35.7-63.21,2-2,21.51-2.63,54.59-1.45l19.14.56,18.31,31.35c10.06,17.25,18.33,32.12,18.33,33C1846,132.94,1811.63,192.59,1809.62,193.75Z"/><rect class="cls-3" width="1920" height="943.32"/></g></g></svg>