<svg xmlns="http://www.w3.org/2000/svg" viewBox="0 0 1739.38 538.8"><defs><style>.cls-1{fill:#9cf;opacity:0.51;}.cls-2{fill:#ff8200;}.cls-3{fill:#5c1e00;}.cls-4,.cls-5{fill:none;stroke:#5c1e00;stroke-miterlimit:10;}.cls-5{stroke-width:2px;stroke-dasharray:12;}</style></defs><g id="Слой_2" data-name="Слой 2"><g id="ілюстрації"><path class="cls-1" d="M1665.61,352.45c-12-13.75-31.73-16.12-31.73-16.12s-.35,19.9,11.62,33.64,31.73,16.12,31.73,16.12S1677.58,366.19,1665.61,352.45Z"/><path class="cls-1" d="M1661,354.14c-13.71-12-33.61-11.69-33.61-11.69s2.33,19.76,16,31.76,33.61,11.69,33.61,11.69S1674.75,366.14,1661,354.14Z"/><path class="cls-1" d="M1647.79,361.93c-17.59-4.75-35.33,4.27-35.33,4.27s10.78,16.73,28.37,21.49,35.34-4.27,35.34-4.27S1665.39,366.69,1647.79,361.93Z"/><path class="cls-1" d="M1644.93,365.88c-18.07-2.34-34.44,9-34.44,9s12.94,15.12,31,17.46,34.43-9,34.43-9S1663,368.22,1644.93,365.88Z"/><path class="cls-2" d="M1736.31,397.31A37,37,0,0,1,1717.13,446l-31.32,13.61a37.13,37.13,0,0,1-7.18,2.28,36.43,36.43,0,0,1-8.86.77,37,37,0,0,1-32.62-22.23c-.22-.5-.42-1-.61-1.51a37,37,0,0,1,6.62-37.51,35.76,35.76,0,0,1,6.6-5.95,36.48,36.48,0,0,1,6.57-3.69l31.32-13.61a36.93,36.93,0,0,1,48.66,19.18Z"/><rect class="cls-3" x="1681.76" y="381.59" width="11.23" height="73.97" transform="translate(-27.01 707.23) rotate(-23.49)"/><path class="cls-3" d="M1685.51,379.06,1715,446.9a40.45,40.45,0,0,0,9.87-5.47l-28.62-65.86A40.3,40.3,0,0,0,1685.51,379.06Z"/><path class="cls-3" d="M1649.76,395.43l28.87,66.43a37.13,37.13,0,0,0,7.18-2.28l3.43-1.49-29.49-67.84Z"/><path class="cls-3" d="M1643.16,401.38l26.61,61.25a37,37,0,0,1-32.62-22.23l-.65-1.49s0,0,0,0a37,37,0,0,1,6.62-37.51Z"/><circle class="cls-3" cx="1720.63" cy="396.46" r="2.81"/><path class="cls-4" d="M1731,402.68c.62,1.42,2.85,1.82,5,.9"/><polygon class="cls-3" points="1635.42 435.51 1623.34 446.4 1640.18 446.01 1635.42 435.51"/><path class="cls-5" d="M1,0C1,379.12,294.08,536.41,481.22,537.79,647.36,539,665.4,435.7,864.55,428.27c233.81-8.73,334.66,129,571.5,87.05,76.82-13.59,136.66-40.55,174.11-60.37"/></g></g></svg>