<svg xmlns="http://www.w3.org/2000/svg" xmlns:xlink="http://www.w3.org/1999/xlink" viewBox="0 0 1534.72 772.39"><defs><style>.cls-1,.cls-5{fill:none;stroke:#5c1e00;stroke-miterlimit:10;}.cls-1{stroke-width:2px;stroke-dasharray:12;}.cls-2{fill:#9cf;opacity:0.51;}.cls-3{fill:#ff8200;}.cls-4{fill:#5c1e00;}.cls-6{opacity:0.26;fill:url(#Безымянный_градиент_222);}</style><linearGradient id="Безымянный_градиент_222" x1="7562.95" y1="-2595.58" x2="7561.32" y2="-2675.44" gradientTransform="matrix(-0.93, 0.03, 0.03, -0.76, 8606.15, -2187.83)" gradientUnits="userSpaceOnUse"><stop offset="0" stop-color="#fc9"/><stop offset="0.44" stop-color="#ffac56" stop-opacity="0.61"/><stop offset="1" stop-color="#ff8200" stop-opacity="0.1"/></linearGradient></defs><g id="Слой_2" data-name="Слой 2"><g id="ілюстрації"><path class="cls-1" d="M1,386.24c0,213.43,82.3,317.6,185.35,366.49,59.9,28.42,151.82,28,213.43-26.68,58.15-51.6,92.75-154.55,46.34-207.82-33.44-38.37-106.86-48.6-137.61-18.25-36.41,35.94-15,130.8,36.51,172.71,90.93,74,306.75,8.27,390.35-122.16,49-76.42,19-122.64,68.81-164.29,85.68-71.63,199.46,44.18,337-9.83,123.29-48.41,110-172.16,242.92-257"/><path class="cls-2" d="M1474.58,22.54C1465.83,6.56,1447,0,1447,0s-4.61,19.36,4.14,35.35,27.54,22.54,27.54,22.54S1483.33,38.53,1474.58,22.54Z"/><path class="cls-2" d="M1469.75,23.21c-10.83-14.66-30.33-18.62-30.33-18.62s-2,19.81,8.86,34.47,30.33,18.62,30.33,18.62S1480.57,37.87,1469.75,23.21Z"/><path class="cls-2" d="M1455.14,28c-16.16-8.41-35.43-3.4-35.43-3.4s7,18.65,23.11,27.07,35.43,3.4,35.43,3.4S1471.31,36.41,1455.14,28Z"/><path class="cls-2" d="M1451.5,31.24c-17.15-6.16-35.56,1.4-35.56,1.4s9.39,17.55,26.55,23.71,35.56-1.41,35.56-1.41S1468.65,37.4,1451.5,31.24Z"/><path class="cls-3" d="M1534,81.51a37,37,0,0,1-20.63,40.65,37.37,37.37,0,0,1-8.53,2.77l-33.51,6.59a37,37,0,0,1-7.5.68,36,36,0,0,1-8.82-1.14,37,37,0,0,1-27.1-28.71c-.11-.53-.2-1.07-.27-1.6a36.81,36.81,0,0,1,5.85-26.14,37.3,37.3,0,0,1,8.65-9.08,35.53,35.53,0,0,1,7.72-4.39,36.57,36.57,0,0,1,7.21-2.21l33.51-6.58A36.93,36.93,0,0,1,1534,81.51Z"/><rect class="cls-4" x="1476.05" y="54.81" width="11.23" height="73.97" transform="translate(10.09 287.34) rotate(-11.11)"/><path class="cls-4" d="M1488.31,52.8l14.26,72.58a41,41,0,0,0,10.82-3.22l-13.85-70.47A40.57,40.57,0,0,0,1488.31,52.8Z"/><path class="cls-4" d="M1449.88,61.14l14,71.06a37,37,0,0,0,7.5-.68l3.67-.72-14.26-72.59Z"/><path class="cls-4" d="M1442.16,65.53,1455,131.06a37,37,0,0,1-27.1-28.71l-.31-1.59s0,0,0,0a36.81,36.81,0,0,1,5.85-26.14A37.3,37.3,0,0,1,1442.16,65.53Z"/><circle class="cls-4" cx="1518.89" cy="77.33" r="2.81"/><path class="cls-5" d="M1527.67,85.62c.3,1.52,2.39,2.39,4.68,1.94"/><polygon class="cls-4" points="1427.29 97.21 1413.15 105.26 1429.69 108.48 1427.29 97.21"/><path class="cls-6" d="M1429,92.7c-1.49-7.58,1-15.2,6.14-21.38A37.38,37.38,0,0,1,1449.6,61a42.8,42.8,0,0,1,8-2.42L1489,52.37a42.49,42.49,0,0,1,7-.78,39.09,39.09,0,0,1,8.16.58c12.32,2.17,22.1,10.06,24.24,21,.08.4.15.81.2,1.21,1,7.18-1.44,14.32-6.34,20.16a35.65,35.65,0,0,1-8.36,7.24,40.32,40.32,0,0,1-7.33,3.62,41.91,41.91,0,0,1-6.79,1.92l-31.4,6.17a42.23,42.23,0,0,1-8.35.81C1444.67,114.25,1431.54,105.59,1429,92.7Z"/></g></g></svg>