<svg xmlns="http://www.w3.org/2000/svg" xmlns:xlink="http://www.w3.org/1999/xlink" viewBox="0 0 2115.05 1113.75"><defs><style>.cls-1{fill:none;}.cls-2{clip-path:url(#clip-path);}.cls-3{fill:url(#Безымянный_градиент_22);}.cls-4{opacity:0.79;fill:url(#Безымянный_градиент_117);}</style><clipPath id="clip-path" transform="translate(-0.7 7.55)"><path class="cls-1" d="M1925.85,32.73V822.92c-13.95,10-30.27,17.72-45.95,24.75-86.82,39-178,78-273.12,73.37-81.09-3.89-167.57-38.48-239.61-1.17-16.79,8.71-31.67,21-49.09,28.38s-39.27,9-53.93-3c-20.33-16.57-16.42-47.62-17.41-73.78a152,152,0,0,0-23-74.71c-15.93-25.39-48.56-47.17-74.71-32.41-19.29,10.88-24.6,36.2-23.8,58.26s5.6,44.81-1.35,65.76-32.41,38-51.29,26.48c-24-14.69-11-51.8-19.13-78.66-10.25-34-54.93-45.79-89.27-36.29S901.58,833.26,870,849.68c-86.7,45-191.53,31.51-287,10.24-43.8-9.76-99.7-16.48-124.23,21-38.06,58.05,52.26,137.2,20.35,198.82-18.1,35-76.21,38.27-98.21,5.59-32.52-48.36,20.45-116.42-1.49-170.37-13.59-33.4-52.42-50-88.54-52S219,870,182.84,871.56C116.74,874.43,50,850.68,0,807.64V16.88c94.26,38.85,218.23,91,351.76,80.05C502,84.61,548,47.63,673.2,19.7c315.54-70.38,450.6,69.18,841.68,85.65C1616.37,109.63,1761.92,92.32,1925.85,32.73Z"/></clipPath><linearGradient id="Безымянный_градиент_22" x1="963.63" y1="-1.79" x2="963.63" y2="1106.2" gradientUnits="userSpaceOnUse"><stop offset="0" stop-color="#ff8900"/><stop offset="1" stop-color="#ffb300"/></linearGradient><linearGradient id="Безымянный_градиент_117" x1="1753.53" y1="13.66" x2="1294.15" y2="809.33" gradientUnits="userSpaceOnUse"><stop offset="0" stop-color="#af4700"/><stop offset="0.91" stop-color="#f8aa00"/><stop offset="1" stop-color="#ffb300"/></linearGradient></defs><g id="Слой_2" data-name="Слой 2"><g id="фон"><g class="cls-2"><path class="cls-3" d="M1926.55,30.94V821.13c-13.94,10-30.27,17.72-46,24.75-86.81,39-178,78-273.11,73.37-81.1-3.89-167.57-38.47-239.62-1.16-16.79,8.7-31.66,21-49.09,28.37s-39.26,9-53.93-3c-20.32-16.57-16.42-47.61-17.41-73.77a152,152,0,0,0-23-74.72c-15.93-25.39-48.55-47.16-74.71-32.41-19.28,10.89-24.6,36.2-23.79,58.26s5.59,44.81-1.36,65.76-32.41,38-51.29,26.48c-24-14.69-11-51.8-19.13-78.66-10.25-34-54.93-45.79-89.27-36.28s-62.55,33.32-94.15,49.73C784,892.94,679.16,879.4,583.75,858.13c-43.81-9.76-99.71-16.47-124.24,21-38.05,58,52.26,137.2,20.36,198.81-18.1,35-76.22,38.28-98.21,5.59-32.53-48.36,20.44-116.42-1.5-170.37-13.59-33.4-52.41-50-88.53-52s-71.93,7.06-108.08,8.65C117.44,872.65,50.71,848.89.7,805.85V15.09c94.27,38.85,218.23,91,351.76,80.05,150.23-12.32,196.22-49.3,321.45-77.23,315.53-70.38,450.59,69.18,841.67,85.65C1617.08,107.85,1762.63,90.53,1926.55,30.94Z" transform="translate(-0.7 7.55)"/><path class="cls-4" d="M1475.21,848.34c8.08-13.38,15.33-25,16.13-25.87,1.42-1.55,4.1-1.7,30.56-1.22l28.93.52,15-24.6c8.38-13.58,15.62-25,16.23-25.38s13.78-.54,29.34-.26l28.24.52,15.13-24.9c12.46-20.31,15.62-25,17.81-25.55,2.69-.64,53.5,1.47,54.77,2.28.4.2,6.44,10.88,13.45,23.64s13.34,23.93,14.11,24.94c1.36,1.5,4,1.75,29.8,2.21,15.56.29,28.83.92,29.41,1.33s6.36,10.38,12.88,22.15,12.76,23.13,14,25.23l2.31,3.69,29.93.35,29.83.24,14.52-23.92c8.07-13.18,15.11-24.51,15.72-25.09.91-1,8.25-1.13,30.15-.74l29,.53L2008.05,753l15.53-25.38-13.52-24.63c-7.49-13.56-14.31-25.43-15.09-26.34-1.35-1.6-4-1.85-29.89-2.32s-28.53-.71-29.89-2.22c-3.3-3.91-27.64-49.66-27.12-50.93.31-.79,7.06-12.12,15-25.2l14.51-23.83,28.74.33,28.74.22,14.41-23.53c7.87-13,14.91-24.21,15.72-25.19,1.22-1.36,4.59-1.49,30.35-1l29,.53,14.11-23.14c7.66-12.79,14.82-24.41,15.83-25.78,1.32-1.85,1.54-2.83.76-3.64-.58-.6-7.21-12.17-14.69-25.83l-13.72-24.73-29.52-1-29.62-1-13.63-24.44c-7.49-13.46-13.62-25-13.61-25.71s6.36-11.83,14.33-24.72,14.62-24.12,14.93-24.9-5.62-12.64-13.68-27.3l-14.19-25.93-28.84-.52c-26.36-.48-29-.72-30.39-2.23-2.42-2.91-27.65-49-27.62-50.45,0-.79,6.66-12.32,14.84-25.7s14.62-24.71,14.44-25.31-6.62-12.16-14.2-25.92l-13.82-24.93-29.32-1c-16.15-.59-29.61-1.32-30-1.72s-6.83-11.78-14.31-25.44l-13.62-24.73-30.32-.84-30.31-.75-14.72,24c-8,13.28-15.51,24.59-16.62,25.36-1.6,1.06-7.45,1-29.34.16l-27.34-1.08-13.91-25-13.82-25-29.62-1-29.62-1-14-25.42-14-25.43-4.35-.77c-2.47-.34-15.84-1-29.91-1.24L1505.8-1.4l-13.49,22.16c-7.46,12.31-14.61,23.92-15.93,25.87l-2.45,3.71L1444.6,50l-29.44-.24-14.4,23.53c-7.87,13-15,24.31-15.83,25.18-1.21,1.46-4.39,1.51-29.16.86l-27.84-.8-14.1-25.43-14-25.43-29.62-1-29.62-1-12.66-22.94c-6.91-12.56-13.53-24.43-14.59-26.13l-2-3.29-29.63-.54c-27.45-.5-29.73-.44-30.25,1.23-.42.88-7.17,12.41-15.24,25.59l-14.61,23.92-29.74,0-29.64-.05-15,24.41c-8.28,13.48-15,24.9-15,25.5-.12,1.08,26.15,49.73,27.9,51.74.48.6,12.56,1.41,30.29,2l29.33,1L1132.43,171c7,12.67,13.43,24.33,14.29,26l1.63,3.09L1133.74,224c-8,13.08-15,24.11-15.71,24.49s-14.09.54-29.84.25l-28.74-.52-13.69,22.76c-7.57,12.4-14.61,23.82-15.63,25.38l-1.94,2.63-28.93-.52-28.93-.53-15.23,24.9c-12.16,20.12-15.62,25-17.71,25.55-1.3.27-14.38,0-28.84-.63-24.76-1.14-26.54-1.07-28,.58-.91,1-8,12.2-15.72,25s-14.4,23.43-14.8,23.62.63,3.08,2.46,6.27S860.88,418,867,429.3l11.32,20.44,29.42,1c16.15.59,29.71,1.32,30,1.72s6.83,11.88,14.31,25.44l13.62,24.73,30.32.84,30.32.75,14.61-24.12c8.07-13.18,15.32-24.6,16-25.38,1.51-1.35,21.13-1.19,45.29.43l12.87.83,14,25.42,14.1,25.43,29.52,1,29.62,1,11.33,20.45c17.27,31,16.22,28.62,14.27,32.24-3.89,7.24-27.29,45.12-28.29,45.69-.6.38-14.58.53-31,.23l-29.82-.54-15.53,25.28-15.43,25.39,14.1,25.73c7.77,14.16,14.2,25.83,14.19,25.92s13.47.74,29.91,1.43L1195.9,712l2-2.83c1.12-1.56,8.16-12.78,15.52-25L1227,661.9l29.53.53,29.63.54,1.83,2.8c1,1.49,7.5,13.06,14.5,25.83,11.51,21,12.56,23.33,11.43,25.38-.72,1.27-6.85,11.52-13.8,22.75s-13.08,21.78-13.8,23.25c-1.14,2.44-.38,4.14,13.05,28.57l14.3,25.92,28.74.52c15.75.29,29.22.93,29.81,1.33s7.41,12.28,15.18,26.44l14.2,25.63,29.43.53,29.53.54Zm-71.45,20.52c-1.67-.52-5.72-7-15.69-25.06-7.39-13.46-13.43-24.93-13.42-25.52,0-1,26.29-44.44,29-48,1.32-1.76,2.81-1.83,29.46-1,15.46.38,28.63,1.21,29.21,1.71,1.76,1.42,27.27,48.08,27.24,49.76s-27.42,47-29.43,48.63c-1.21.87-8.35,1-27.87.68C1417.82,869.71,1405,869.18,1403.76,868.86Zm439.54-44.65c-1.56-1.51-26.78-48-26.76-49.26,0-1.57,26.81-45.91,29.44-48.72,1.32-1.56,3.8-1.71,22.53-1.37,11.59.21,24.37.73,28.42,1.1l7.42.83L1918,751.42c7.38,13.56,13.51,25.22,13.5,25.82,0,1.48-28.63,48.25-30,49.11S1844.17,825.11,1843.3,824.21ZM1491.43,818c-2.82-3.41-26.69-47.58-26.66-49.35,0-1.58,22.84-40,27.82-46.88l1.93-2.73,28.24.51,28.14.51,2.31,3.79c6,9.49,25.53,46.17,25.5,47.75,0,1.78-27.33,47.19-29,48.34-.6.39-13.59.55-28.94.27C1495.46,819.78,1492.79,819.53,1491.43,818ZM1315,815.33c-2-1.82-27.67-48.19-27.63-50.16,0-1.29,27.43-47.48,29.24-49.23.21-.19,13.19-.06,28.84.33,25.47.66,28.73.91,30.09,2.42.88.9,7.31,12.17,14.32,24.94,11.22,20.64,12.55,23.52,11.62,25.58-1.85,3.92-27,44.82-28.61,46.67-1.41,1.46-4.09,1.61-29,1.15C1323.54,816.66,1316.21,816.24,1315,815.33Zm618.27-40.63c-2.42-2.81-27.75-49.17-27.33-50,.2-.4,7-11.53,15-24.91l14.62-24.12,29.32.73,29.23.83L2008,702.41l13.82,25.13-13.49,22.26c-7.46,12.21-14.51,23.43-15.53,25l-1.93,2.63-28-.51C1937.34,776.45,1934.67,776.21,1933.31,774.7Zm-166.68-2.23-10.79-.79-13.34-24.23-13.23-24.13,1.64-3.23c3.49-6.35,27.29-45.21,28.91-47s3-1.72,28.76-.76c21,.77,27.33,1.28,28.31,2.29,1.26,1.4,26,45.59,27,48.27.57,1.49-27.35,48.08-30.06,50.1C1812.09,774.28,1787,774,1766.63,772.47Zm-185.78-3.86c-.59-.7-7.12-12.17-14.51-25.54-11.51-20.84-13.23-24.52-12.2-26.28.61-1.17,7.26-12.31,14.82-24.71l13.8-22.75,28.44.52c26,.47,28.63.71,30,2.32,2.52,3,26.68,47.77,26.65,49.35,0,1.38-26.2,45.23-28.83,48.34C1637.39,771.61,1582.4,770.51,1580.85,768.61Zm-176.1-2.6c-1.86-1.22-28.42-50.17-27.9-51.35.31-.68,7-11.72,14.82-24.61l14.3-23.43,29,.53,29.13.52,13.63,24.44c7.48,13.46,13.61,25.12,13.6,25.91.08,1.19-21.81,38.31-28.13,47.67-1.43,2.14-1.53,2.14-29.47,1.64C1418.41,767.05,1405.34,766.42,1404.75,766Zm441.89-43.33c-1.18-.81-28.24-49.57-28.22-50.76,0-.49,6.66-11.53,14.63-24.71l14.61-23.92,29.53.53,29.63.54,13.24,23.93c7.29,13.17,13.23,24.73,13.21,25.71.06,1.88-26.72,46.61-29.25,49.13-1.21,1.07-6.76,1.26-28.86.86C1860.1,723.72,1847.23,723.09,1846.64,722.68Zm-176.38-3.19c-1.67-1.12-27.27-48.08-27.24-50,0-.88,6.57-12.42,14.64-25.5l14.51-23.92,27.75.3c15.27.08,28.24.52,28.83,1s7.22,11.78,14.7,25.34l13.73,24.63-13,21.29c-7.15,11.72-14.1,22.95-15.43,25l-2.44,3.61-27.55-.5C1683.72,720.52,1670.85,719.89,1670.26,719.49Zm-177-4.1c-.77-1-7.4-12.67-14.59-25.83l-13.14-24.13,14.71-24.22,14.82-24.31,28.74.22,28.74.33,1.84,2.7c3.66,5.49,26.2,46.87,26.18,48.05,0,1.48-28.54,48.26-30,49.12-.6.38-13.39.54-28.45.27C1497.33,717.14,1494.66,716.9,1493.3,715.39Zm-177.37-3.11c-1.47-.92-26.68-47.87-26.65-49.65s28.14-48.46,30-49.71,56.38,1.12,57.64,2.63c3,3.21,27.25,49.16,26.73,50.53-1,2.55-27.29,45.32-29,47.26-1.52,1.75-3,1.72-29.85.55C1329.29,713.21,1316.32,712.48,1315.93,712.28Zm-191.79-28.06c-7.29-13.17-13.42-24.63-13.7-25.52-.47-1.59,27.25-48.48,29.55-49.91,1.41-1,56.3,0,57.77,1,1,.61,26.61,46.29,27.74,49.57.38,1-15,27.37-27.42,47.19l-2,3.12-29.33-.73-29.32-.83ZM1583,666.57c-.59-.41-7.22-11.78-14.7-25.44-12.09-22-13.43-24.92-12.4-26.88,3.69-6.65,27-44.43,28.29-45.79,1.42-1.55,4.1-1.7,28.87-1.25,15.06.27,27.84.9,28.43,1.3,1.37.92,28.23,49.58,28.21,51.06,0,1.18-26.19,44.54-28.42,47.17-1.42,1.45-4.1,1.6-29.36,1.14C1596.57,667.61,1583.59,667,1583,666.57ZM1406,663c-2.34-2-27.94-49.47-27.32-50.85.31-.68,7-11.82,14.82-24.7L1407.85,564l28.93.53,29,.52L1479.53,590c7.58,13.76,13.82,25.33,13.81,25.72,0,1.19-28.83,48-30,48.72-.61.38-13.4.55-28.46.27C1414.54,664.31,1407.21,663.88,1406,663Zm-175.49-2.89c-1.87-.72-5.82-7.11-15.51-24.76-7.1-13.06-13.13-24.43-13.42-25.22s6.08-12.23,14.15-25.41l14.61-23.92,29.63.53,29.53.54,13.72,24.83c11.7,21.44,13.41,25.12,12.49,26.88-5,9.29-28,46.29-29.21,47.25C1284.63,662.25,1234.38,661.63,1230.55,660.08Zm514.34-16c-7.58-13.66-13.71-25.32-13.7-25.91s6.55-11.73,14.63-24.91l14.51-23.93,28.34.22c26.07.28,28.44.42,29.8,2,1.16,1.5,23.14,41,26.58,48,1.15,2.39,1.86,1.22-23.17,42l-5.51,9-28.93-.72-28.83-.82ZM1848.32,620c-2.16-1.42-28.15-49.38-27.72-51,1-3.24,28.73-48,30.23-48.71.9-.38,14-.24,29,.23l27.44.89,13.14,24.13c7.29,13.16,13.62,24.73,14.1,25.63.77,1.2-2.41,7.06-13.14,24.74-7.76,12.69-14.71,23.82-15.51,24.59-1.21,1.07-6.37,1.27-28.86.86C1862,621.08,1849,620.45,1848.32,620Zm-177.15-4.69c-.68-.7-7-11.87-14.21-25-11.32-20.74-12.85-24-11.82-25.88,4.62-8.5,28-46.28,29.21-47.15s8.35-1.13,28.16-.77c24.38.44,26.66.58,28.31,2.29,2.53,2.61,27.09,47.48,27,49.45,0,2.57-28.85,49.33-30.64,49.6-.8.18-13.58-.05-28.24-.51C1680.46,616.7,1672,616.16,1671.17,615.35Zm-175.42-1.7c-.58-.4-7.21-11.88-14.79-25.54l-13.72-24.83,2.66-5c1.54-2.73,8.19-13.77,14.82-24.51l12-19.52,29.23.53,29.13.52,13.24,23.94c7.3,13.16,13.43,24.72,13.71,25.62.56,1.69-27.15,48.27-29.56,49.81-.6.38-13.39.55-28.35.28S1496.34,614.06,1495.75,613.65Zm-185.14-17.17c-4.32-7.78-10.56-19.05-13.82-25l-5.84-11,13-21.29c7.15-11.71,14.09-22.94,15.42-24.89l2.44-3.71,27.55.5c15.06.28,27.94.9,28.52,1.31s7.22,11.78,14.71,25.44c12.08,21.94,13.42,24.92,12.39,26.88-4.1,7.43-28,46.19-28.91,46.76-.6.49-13.78.44-29.34,0l-28.13-.71Zm450.06-29.76c-2-1.61-27.66-48.38-27.62-50.35,0-1.48,25.79-44.35,28.42-47.37,1.41-1.55,4.09-1.7,29.46-1.24,20.91.38,28.14.81,29.11,1.81,2.24,2.21,27,48.07,26.94,49.95,0,1.68-25.39,44.26-28.43,47.76-1.41,1.45-4.09,1.6-29,1.15C1769.17,568.06,1761.85,567.63,1760.67,566.72Zm-190.31-27.43c-8.25-14.86-13.51-25.42-13.19-26.41,1-2.54,27.29-45.31,28.91-47.06,1.42-1.55,4.09-1.7,28.87-1.25,15.06.27,27.83.9,28.32,1.3,1.57,1,27.37,48.08,27.34,49.76,0,1-17.81,31.17-27.82,47l-2,3.12-28.33-.71-28.34-.81Zm-162,21.44c-2-1.31-27.27-48.17-26.94-49.94.22-.89,7-12.51,15-25.79l14.72-24.12,28.24.71,28.23.81,13.91,25.13,13.82,25-13,21.38c-7.15,11.72-14.1,22.94-15.42,25l-2.45,3.61L1437,562C1422,561.77,1409.09,561.14,1408.4,560.73Zm-179-6.1c-3.37-5.49-25.53-46-25.51-46.77,0-.59,24.33-40.72,28.21-46.48l2.44-3.7,27.65.5c24.87.45,27.84.7,29.59,2.31,2,1.81,27.1,47.09,27.06,48.86,0,.6-6.76,12-14.93,25.5L1289,559.36l-28.64-.52-28.64-.52Zm706.69,13.79c-2.71-3.31-26.68-47.87-26.65-49.55s25.49-44.35,28.43-47.66c1.41-1.55,4.09-1.7,29.56-1.24l28.14.51,2.31,3.79c5.87,9.39,25.52,46.18,25.49,47.66,0,.88-6.57,12.41-14.54,25.4l-14.51,23.83-28.43-.52C1940.12,570.17,1937.45,569.93,1936.09,568.42ZM1337,508.89l-16-.29-13.53-24.53C1300,470.51,1294,459,1294,458.26c0-2.07,28.23-47.66,30.24-48.91,1.4-.86,8.93-.83,29.14,0l27.24,1.09,13.15,23.44c7.2,12.86,13.13,24.42,13.11,25.61,0,2.56-26.73,46.9-29.85,49.51-2,1.64-3.3,1.71-13.1.94C1357.89,509.57,1345.81,509.05,1337,508.89Zm-193.2-4.78c-.58-.7-7-11.88-14.21-25-11.9-21.54-13-24-12-26.18,2.06-4.21,26.78-44.63,28.5-46.38,1.41-1.55,4.09-1.7,29-1.25,20.32.37,27.74.8,29,1.81,2,1.52,27.58,48,27.54,50,0,2.37-28.23,47.86-30.33,48.91C1198.35,507.37,1145.25,505.72,1143.79,504.11Zm892.1,16.56-10.79-.79L2011.86,496c-7.3-13.16-13.23-24.72-13.21-25.71-.07-2,27.94-48.46,29.95-49.8.6-.49,13.49-.35,28.64.12,22,.69,27.83,1.19,28.9,2.3.68.8,7.22,12.08,14.41,25.14,11.62,20.84,13,24.13,12.12,26.08-2,3.92-27,44.83-28.61,46.68-1.32,1.45-3.5,1.61-19.45,1.22C2054.7,521.7,2041.83,521.17,2035.89,520.67ZM1675,514.43c-1.38-.42-6.1-8-15.6-25.26-7.48-13.66-13.61-25.32-13.6-26s6.56-11.92,14.44-25.11c10.42-17.08,15.1-23.91,16.59-24.18,1.2-.27,14.27.16,29.23.83l27.14,1.18L1747,441l13.82,25.13-13.49,22.26c-7.46,12.21-14.41,23.43-15.43,25L1730,516l-26.46-.48C1689,515.27,1676.18,514.75,1675,514.43Zm-191.9-27.57c-7.48-13.46-13.61-25.12-13.6-25.91s6.57-12.22,14.64-25.41l14.61-23.92,28.25.22c25.86.27,28.34.41,29.7,2s22.47,39.5,26.1,47l1.63,3.19-7.87,13c-4.29,7-11,18.07-14.92,24.41l-7.05,11.43-28.93-.72-28.93-.82ZM966.92,500.8c-.78-.7-7.31-12.17-14.61-25.43l-13.23-24.13,14.1-23.15c7.66-12.69,14.71-23.92,15.52-24.79,1.41-1.55,4.09-1.7,29.36-1.25,15.36.28,28.33.91,28.92,1.32s7.22,11.78,14.7,25.44c12.19,22,13.42,24.92,12.4,26.88-3.79,6.74-27,44.43-28.3,45.89s-4.09,1.6-29.56,1.14C973.83,502.31,968,501.91,966.92,500.8Zm881.92,14.7c-1.56-1.8-24-42.29-25.91-46.67-.86-2.09.48-4.73,12.54-24.65,7.46-12.2,14.5-23.43,15.52-24.89l1.94-2.73,27,.49c20.11.37,27.34.79,28.51,1.8,1.76,1.41,27.67,48.19,27.64,49.86,0,1-26.7,45.42-28.94,48.35-.71.87-7.75,1-29,.66C1852.87,517.26,1850.2,517,1848.84,515.5Zm-614.56-60c-.87-.71-7.41-12-14.6-25.14-9-16.26-12.94-24.52-12.71-26,.32-1.18,6.87-12.61,14.64-25.3l14-23.05,28.93.72,28.83.82L1307,382c7.48,13.46,13.61,25.22,13.59,26.11.08,1.38-25.8,44.94-28.73,48.44-.81.88-7.76,1-28.46.67C1243,456.84,1235.56,456.41,1234.28,455.5Zm703.28,10.67c-2-2.31-26.29-47.37-26.27-48.85,0-1.68,26.82-46.11,29.24-48.53,1.21-1.17,5.87-1.28,29.45-.56,19.72.56,28.23,1.11,29.11,1.91.58.71,7,11.88,14.21,24.94,11.61,21,12.85,23.93,11.82,25.88-4.82,8.8-28.11,46.39-29.41,47.35C1993.59,470.05,1939.21,468,1937.56,466.17Zm-177.15-4.59c-5.1-8.29-25.52-46.17-25.5-47.36,0-.69,6.67-12,14.74-25.2l14.61-23.92,28,.21c19.72.16,28.43.61,29.31,1.42,1.27,1.11,25.55,44.59,26.88,48.07.37,1.19-3.84,9-13.54,24.93-7.67,12.7-14.71,23.92-15.52,24.89-1.42,1.46-4.1,1.61-29.07,1.16l-27.64-.51Zm-174.24-.79c-.68-.8-7.31-12.27-14.6-25.44l-13.24-24.13,15.13-24.9,15.12-24.9,28.44.52,28.44.51L1659,386.88c7.48,13.57,13.51,25.23,13.5,26,0,1.67-27,46.6-29.34,48.82C1641,463.66,1588.12,462.8,1586.17,460.79ZM1409.8,457.2c-1.65-2-27.65-49.17-27.63-50.06,0-.39,6.55-11.43,14.62-24.51l14.51-23.93,29.13.53,29.14.53,13.72,24.93c7.57,13.76,13.81,25.22,13.8,25.72s-6.76,11.72-14.93,25.1l-14.92,24.41-27.94-.51C1413.83,459,1411.16,458.71,1409.8,457.2Zm-354.33-7.41c-3.28-5-26.1-46.87-26.08-48.06,0-1.48,28.54-48.25,30-49.11s55.31,0,56.68,1c2.25,1.52,28.42,50.17,27.8,51.64-.73,1.86-27.1,45.32-28.52,47.07-.71.87-7.84,1-29.55.65l-28.53-.52Zm-189.74-26c-7.58-13.66-13.71-25.32-13.7-25.91s6.66-11.73,14.73-24.91l14.61-23.92,28.64.32c15.76.09,29.13.53,29.62,1,1.66,1.12,27.37,48.18,27.34,49.86,0,1.28-19.46,34.3-27.32,46.39l-2.34,3.61-28.93-.72-28.93-.82Zm986-9.47c-1.76-1.52-27.66-48.68-27.63-50.46,0-1.08,23.94-40.93,27.81-46.29l1.93-2.73,28,.51c15.35.28,28.43.91,29,1.31,1.67,1.12,27.28,47.79,27.25,49.66,0,1.48-26,45.34-29,49-.71.87-7.65,1-28.36.67C1860.18,415.7,1852.85,415.28,1851.68,414.37Zm-178.52-5.71c-6.25-10.18-25.52-46.07-25.5-47.55,0-1.68,25.5-44.36,28.43-47.66,1.42-1.56,4.1-1.7,29.46-1.24s28,.7,29.4,2.31c2.23,2.6,27,48.27,27,49.55s-26.3,44.93-28.73,47.65c-1.41,1.46-4.09,1.61-29.55,1.15l-28.15-.51Zm-176.38-3.19c-7.41-12.08-25.61-46.57-25.09-47.85,1-2.45,27.39-45.6,29-47.35,1.42-1.55,4-1.7,28.47-1.26,20,.36,27.25.79,28.42,1.8,1.86,1.41,27.67,47.89,27.64,49.66,0,1.19-3.6,7-22.71,38.29l-7,11.42-28.15-.51-28.24-.51Zm-173.94-.69c-1.95-2.11-27-48.07-26.95-49.75,0-.79,6.57-12.22,14.64-25.3L1325,305.8l27.75.31c15.26.08,28.24.51,28.82,1s7.22,11.88,14.71,25.44l13.62,24.73-14,23.15c-7.77,12.69-14.71,23.92-15.52,24.89-1.42,1.46-4.1,1.61-29,1.15C1330.94,406.11,1323.81,405.69,1322.84,404.78Zm-190.62-26.95c-7.49-13.46-13.62-24.93-13.61-25.62-.07-1.38,28.44-48.35,30-49.31.6-.38,13.39-.55,28.45-.27,20.31.36,27.64.79,28.81,1.8,1.76,1.42,27.66,48.58,27.63,50.26,0,1-26.8,45.52-28.83,47.95-.81.87-7.65,1.05-29.94.44l-28.83-.82Zm-163.42,20c-2.52-3.1-26.68-47.87-26.66-49.45,0-1.38,26.21-45.23,28.84-48.24.81-1,7.85-1.15,29-.76,15.26.27,28.33.91,28.92,1.31s6.25,10.18,12.59,21.65c16.3,29.62,15.73,28.32,14.4,30.77-.62,1.17-7.26,12.31-14.83,24.81l-13.79,22.65-28.54-.52C972.83,399.62,970.16,399.38,968.8,397.87Zm440.73-45.42c-5.29-8.49-25.53-45.87-25.5-47.06,0-1.48,27.31-46.4,29.33-48.43,2-1.84,54.63-1.09,57,.93.88.61,7.7,12.38,15.18,25.94l13.53,24.83-14.52,23.92c-8.07,13.19-15.41,24.21-16.3,24.59s-14.08.24-29-.23l-27.35-.8Zm-164.16.88-10.39-.79-13.63-24.82L1207.73,303l1.64-3.13c4.62-8.61,27.39-45.22,28.7-46.18,1.71-1.35,23-1.16,45.19.42l11.78.81,13.25,23.93c7.29,13.17,13.22,24.73,13.2,25.71.07,1.88-28,48.66-30,49.71C1290.24,355.13,1260.32,354.48,1245.37,353.33Zm693.3,8.81c-4.52-7.49-25.53-46-25.51-47,0-1.38,28.74-48.35,30-49.21.6-.39,13.69-.55,29-.27l28,.51,2.31,3.79c5.39,8.69,25.52,46.18,25.5,47.46s-26.3,45.23-28.83,48.24c-.81.88-8,1.05-29.65.65l-28.64-.52ZM1750.49,337.7c-7.49-13.46-13.62-25.22-13.6-26.21-.07-1.78,25.09-44.17,28.33-47.76,1.42-1.56,4.09-1.7,29.36-1.25,15.36.28,28.33.91,28.92,1.32,1.67,1.11,27.27,48.08,27.24,49.95,0,1.48-26,45.24-28.94,48.74-.71.87-7.46,1.05-29.35.45l-28.34-.81ZM1602.31,359l-15-.86-13.62-24.83c-7.48-13.66-13.61-25.42-13.6-26.11,0-1.87,28.23-47.57,29.83-48.43.9-.37,14.18-.23,29.44.34l27.83,1,13.63,24.63c7.38,13.56,13.51,25.22,13.5,25.91,0,1.38-27.32,46.4-29.33,48.44C1643.41,360.64,1628.15,360.66,1602.31,359Zm-545.44-12.84c-6.16-10.09-25.62-46.27-25.6-47.56,0-.69,6.57-12,14.64-25.1l14.51-23.83,28.24.32c15.56.08,28.74.62,29.42,1,1,.61,26.61,46.29,27.74,49.57.29.7-6.27,12.33-14.44,25.8l-15,24.51-28.64-.52-28.64-.52Zm91-47c-.68-.81-7.31-12.18-14.5-25.34-12.09-21.84-13-23.93-11.91-26.28,3.19-6.66,28-46.19,29.4-47,1-.48,14.08-.34,29.24.23l27.44,1L1221.41,227c7.67,14,13.91,25.52,13.9,25.82,0,1.09-28.93,47.85-30,48.62-.6.38-13.49.35-28.55,0C1153.85,300.73,1149,300.34,1147.83,299.14Zm704.74,12.08c-2.52-3.11-26.68-47.87-26.65-49.45,0-.79,6.56-12.13,14.63-25.21l14.51-23.82L1884,213l29,.32,2.21,3.7c5.2,8.48,25.62,46.17,25.61,47.16,0,.59-6.77,12-14.94,25.39L1911,314l-28.44-.51C1856.6,313,1853.93,312.72,1852.57,311.22ZM1676.19,308c-2.43-2.81-26.79-47.38-27-49.06s25.8-44.85,28.74-48.25c1.41-1.55,3.79-1.61,29.85-.94l28.34.81L1749.78,235c7.49,13.46,13.62,25.12,13.61,25.91.07,1.19-22.43,39.38-28.13,47.67-1.43,2.14-1.53,2.14-29.57,1.63C1680.22,309.77,1677.55,309.53,1676.19,308ZM1502.27,306c-1.68-.52-5.72-7-15.7-25.06-7.39-13.46-13.42-24.92-13.41-25.61s6.66-11.83,14.73-25l14.61-23.92,28.35.22,28.24.31,1.93,2.7c5.7,8.59,26.2,47.37,25.68,48.74-1,2.45-27.4,45.61-29,47.55-1.41,1.46-4,1.61-27.38,1.18C1516,306.8,1503.45,306.27,1502.27,306Zm-177.37-3.41c-1.27-.81-27.18-47.48-27.83-50.16-.46-1.69,24.19-43.69,28.14-48,1.41-1.56,4.09-1.71,29.46-1.25s28,.71,29.4,2.31c2.62,3.11,26.68,47.78,26.65,49.45s-25.59,44.46-28.43,47.76c-1.41,1.46-4,1.61-28.87,1.16C1338.36,303.58,1325.59,303,1324.9,302.54Zm440.42-44.24c-.78-1-7.4-12.67-14.59-25.93l-13.15-24,14.92-24.51,15-24.51,28.54.52,28.64.52,1.83,2.79c3.77,5.5,26.1,46.88,26.08,48.26s-26.3,45.33-28.84,48.44c-.81.88-7.85,1-29,.66C1769.35,260.05,1766.68,259.81,1765.32,258.3Zm-175.8-2.3c-.59-.4-7.22-11.88-14.7-25.44l-13.63-24.73,13.49-22.16c7.46-12.21,14.4-23.34,15.42-24.9l2-2.63,28.34.71,28.33.81,13.73,24.74c7.58,13.66,13.71,25.32,13.7,25.81,0,1-20.88,36-27.31,46l-2.34,3.61-28-.51C1603.18,257,1590.1,256.41,1589.52,256Zm-176.38-3.19c-1.57-1.12-27.28-48-27.24-49.76s27-46.5,29.43-48.73c1.11-1.16,6.27-1.27,29.26-.65l27.93.8,13.63,24.43c7.49,13.47,13.62,24.83,13.62,25.32.07,1.19-27.12,46.21-29.34,48.74-1.42,1.45-4,1.6-28.87,1.15C1426.5,253.84,1413.72,253.21,1413.14,252.81ZM1223.23,225c-7.58-13.66-13.71-25.52-13.69-26.31,0-1.48,25.89-44.45,28.42-47.17,1.41-1.55,4.09-1.7,29.56-1.24l28,.51,1.83,2.8c3.76,5.79,26.11,46.77,26.08,48.05s-3.4,7-22.7,38.39l-7,11.42-28.44-.71-28.33-.81ZM1855,209.48c-1.76-1.12-27.27-48.08-27.23-50,0-1,6.57-12.42,14.64-25.51l14.51-23.82,28.24.31c15.56.09,28.74.52,29.32,1,1.08.71,25.18,43.3,27.37,48.38,1,2.18-.49,4.92-14,27l-15,24.51-28.34-.52C1868.88,210.52,1855.61,209.88,1855,209.48Zm-177-4.1c-1.94-2.3-25.83-45.78-26.38-48.06-.18-1,5.56-11.55,14.55-26.29l15-24.61,28.14.51,28.14.51,2.31,3.8c4.24,6.79,25.53,46,25.51,47,0,1.38-28.73,48.24-30,49.11-.6.38-13.39.55-28.45.27C1682.1,207.13,1679.43,206.89,1678.07,205.38Zm-176.38-3.19c-2.52-3.11-26.69-47.87-26.66-49.45,0-1.38,26.21-45.24,28.84-48.25.81-1,7.85-1.14,29.05-.76,25.37.46,28,.71,29.4,2.31,2.33,2.81,26.69,47.68,26.66,49.16,0,1.08-20.17,35-27.31,46.1l-2.34,3.61-28.15-.51C1505.72,203.94,1503.05,203.69,1501.69,202.19Zm-189.55-26.05c-7.48-13.56-13.51-25.22-13.5-26.11,0-1.58,27.12-46.4,29.34-48.63,2-1.84,54.64-1.08,57,.94,2,1.61,27.67,48.28,27.63,50.35,0,.79-6.57,12.22-14.54,25.21l-14.51,23.82-28.93-.52-28.94-.53Zm-164.78,18.64c-1-1.6-7.3-12.77-14.11-25-10.94-19.84-12.08-22.53-11.15-24.58,1.85-3.92,27-44.83,28.6-46.58,1.42-1.55,4.1-1.7,29.56-1.24l28.15.51,2.31,3.8c4.81,7.68,25.52,46.07,25.5,47.15s-3.6,7.15-22.7,38.29l-7,11.42-28.64-.51-28.64-.52Zm606-62.86c-7.58-13.67-13.81-25.23-13.8-25.53,0-1,28.93-48.24,30-48.91.6-.39,13.69-.54,29.05-.27,22.29.41,28.14.81,29.21,1.92.78.7,7.31,12.17,14.5,25.33l13.24,24-13.49,22.26c-7.46,12.2-14.41,23.43-15.42,25l-2,2.63-28.63-.71-28.73-.82Zm-175.7-2.3c-7.48-13.56-13.52-25.12-13.5-25.81,0-1.68,28.54-48.55,30-49.51,1.31-.87,43.62-.2,51.83.74l5.93.8,13,23.63c7.3,13,13.14,24.33,13.12,25.22s-6.77,12.51-14.95,26l-14.91,24.51-28.54-.52-28.54-.52Zm-163.22,19.65c-1.35-1.7-22.85-40.2-26.1-46.87l-1.53-3.29,14.41-23.63c8-13.08,14.91-24,15.61-24.4s13.69-.54,29-.26l28,.51,2.31,3.69c5.1,8.39,25.53,46.17,25.5,47.46s-26.4,45.42-28.83,48.34c-.81.88-7.85,1-29.06.66C1418.47,151,1415.79,150.77,1414.43,149.27Zm-189.74-26c-7.29-13.16-13.23-24.72-13.21-25.81-.06-1.87,26.63-46.51,29.25-49,1.21-1.06,6.66-1.26,28.86-.85,15.06.27,27.94.9,28.52,1.3,1.67,1,28.43,49.88,27.92,50.76-.2.39-7,11.62-15.13,25l-14.61,24.12-29.13-.73-29.23-.82Zm-164,19.54C1058.26,140,1034,95.09,1034,93.61c0-.79,6.66-12.12,14.63-25.31l14.62-23.92,29.13.53,29.23.53,13.63,24.43c7.48,13.47,13.62,25,13.6,25.82.08,1.28-3.19,6.75-22.61,38.48l-7,11.43-28.54-.52C1064.72,144.61,1062,144.36,1060.68,142.86Zm443-42.42c-2.14-2.21-26.77-48.27-26.74-49.85.06-3.16,28.45-48.84,30.84-49.49,1.1-.38,14.37-.13,29.53.53l27.43,1.29,13.63,24.63c7.38,13.56,13.52,24.93,13.51,25.32,0,.79-28.32,47.27-30,49.31-.91,1.07-5.87,1.08-29.34.06C1516.9,101.67,1503.94,100.74,1503.64,100.44ZM1150.4,93.25c-.58-.7-7-12.17-14.3-25.34L1123,44l14-23.14c7.76-12.79,14.81-24,15.62-24.89,1.41-1.56,4-1.71,28.37-1.27,19.32.35,27.54.9,29.21,1.82,1.47.81,6.86,9.4,15.21,24.66,7.2,12.86,13.14,23.93,13.33,24.43.38,1-28.56,49.33-30.16,50.19-.5.39-13.58.25-29-.23C1156.82,94.84,1151.27,94.45,1150.4,93.25Z" transform="translate(-0.7 7.55)"/></g></g></g></svg>