<svg xmlns="http://www.w3.org/2000/svg" xmlns:xlink="http://www.w3.org/1999/xlink" viewBox="0 0 2108.63 1113.75"><defs><style>.cls-1{fill:none;}.cls-2{clip-path:url(#clip-path);}.cls-3{fill:url(#Безымянный_градиент_22);}.cls-4{opacity:0.79;fill:url(#Безымянный_градиент_117);}</style><clipPath id="clip-path" transform="translate(189.33 7.55)"><path class="cls-1" d="M0,32.73V822.92c13.9,10,30.18,17.72,45.81,24.75,86.55,39,177.45,78,272.28,73.37,80.85-3.89,167.07-38.48,238.89-1.17,16.74,8.71,31.57,21,48.94,28.38s39.15,9,53.77-3c20.27-16.57,16.37-47.62,17.36-73.78a152.27,152.27,0,0,1,23-74.71c15.88-25.39,48.4-47.17,74.48-32.41,19.23,10.88,24.52,36.2,23.72,58.26s-5.58,44.81,1.35,65.76,32.32,38,51.14,26.48c23.92-14.69,11-51.8,19.07-78.66,10.22-34,54.76-45.79,89-36.29s62.37,33.32,93.86,49.74c86.43,45,190.95,31.51,286.08,10.24,43.67-9.76,99.4-16.48,123.86,21,37.93,58.05-52.11,137.2-20.3,198.82,18,35,76,38.27,97.91,5.59,32.43-48.36-20.38-116.42,1.49-170.37,13.55-33.4,52.26-50,88.27-52s71.71,7.06,107.75,8.65c65.91,2.87,132.43-20.88,182.29-63.92V16.88c-94,38.85-217.57,91-350.69,80.05-149.78-12.32-195.62-49.3-320.47-77.23C934.26-50.68,799.61,88.88,409.72,105.35,308.54,109.63,163.42,92.32,0,32.73Z"/></clipPath><linearGradient id="Безымянный_градиент_22" x1="7174.58" y1="-1.79" x2="7174.58" y2="1106.2" gradientTransform="matrix(-1, 0, 0, 1, 8133.88, 0)" gradientUnits="userSpaceOnUse"><stop offset="0" stop-color="#ff8900"/><stop offset="1" stop-color="#ffb300"/></linearGradient><linearGradient id="Безымянный_градиент_117" x1="7962.75" y1="14.18" x2="7503.69" y2="809.29" gradientTransform="matrix(-1, 0, 0, 1, 8133.88, 0)" gradientUnits="userSpaceOnUse"><stop offset="0" stop-color="#af4700"/><stop offset="0.91" stop-color="#f8aa00"/><stop offset="1" stop-color="#ffb300"/></linearGradient></defs><g id="Слой_2" data-name="Слой 2"><g id="фон"><g class="cls-2"><path class="cls-3" d="M-.7,30.94V821.13c13.9,10,30.17,17.72,45.8,24.75,86.56,39,177.46,78,272.29,73.37,80.85-3.89,167.07-38.47,238.89-1.16,16.74,8.7,31.57,21,48.94,28.37s39.15,9,53.76-3c20.27-16.57,16.38-47.61,17.36-73.77a152.52,152.52,0,0,1,23-74.72c15.89-25.39,48.41-47.16,74.49-32.41,19.22,10.89,24.52,36.2,23.72,58.26s-5.58,44.81,1.35,65.76,32.31,38,51.13,26.48c23.93-14.69,11-51.8,19.08-78.66,10.22-34,54.76-45.79,89-36.28s62.36,33.32,93.86,49.73c86.43,45.05,191,31.51,286.08,10.24,43.67-9.76,99.4-16.47,123.85,21,37.94,58-52.1,137.2-20.29,198.81,18.05,35,76,38.28,97.91,5.59,32.43-48.36-20.38-116.42,1.49-170.37,13.55-33.4,52.26-50,88.27-52s71.71,7.06,107.75,8.65c65.91,2.88,132.43-20.88,182.29-63.92V15.09c-94,38.85-217.57,91-350.69,80.05C1418.83,82.82,1373,45.84,1248.14,17.91,933.56-52.47,798.91,87.09,409,103.56,307.83,107.85,162.72,90.53-.7,30.94Z" transform="translate(189.33 7.55)"/><path class="cls-4" d="M463.84,872.46l29.44-.54,29.34-.53,14.16-25.63c7.74-14.16,14.54-26,15.13-26.44s14-1,29.72-1.33l28.65-.52,14.25-25.92c13.39-24.43,14.15-26.13,13-28.57-.72-1.47-6.94-11.92-13.77-23.25S610.74,718.25,610,717c-1.13-2.05-.08-4.34,11.4-25.38,7-12.77,13.49-24.34,14.45-25.83l1.82-2.8,29.54-.54,29.44-.53,13.55,22.26c7.34,12.21,14.36,23.43,15.48,25l2,2.83,29.73-1.24c16.39-.69,29.72-1.33,29.81-1.43s6.41-11.76,14.16-25.92l14.06-25.73L800.1,632.27,784.62,607l-29.74.54c-16.39.3-30.33.15-30.93-.23-1-.57-24.32-38.45-28.21-45.69-1.94-3.62-3-1.23,14.24-32.24l11.29-20.45,29.53-1,29.43-1,14.06-25.43,14-25.42,12.83-.83c24.08-1.62,43.64-1.78,45.15-.43.71.78,7.93,12.2,16,25.38l14.57,24.12L927,503.5l30.23-.84,13.58-24.73c7.46-13.56,13.87-25,14.26-25.44s13.82-1.13,29.91-1.72l29.33-1,11.29-20.44c6.12-11.27,12.63-23,14.45-26.13s3-6,2.45-6.27-7.11-10.92-14.75-23.62-14.77-24-15.68-25c-1.41-1.65-3.19-1.72-27.88-.58-14.41.66-27.45.9-28.74.63-2.09-.56-5.54-5.43-17.66-25.55l-15.18-24.9-28.85.53-28.84.52L893,296.31c-1-1.56-8-13-15.58-25.38l-13.66-22.76-28.65.52c-15.7.29-29.15.14-29.75-.25S797.65,237,789.7,224l-14.57-23.82,1.63-3.09c.86-1.7,7.26-13.36,14.25-26l12.72-22.94,29.24-1c17.67-.62,29.71-1.43,30.2-2,1.74-2,27.93-50.66,27.81-51.74,0-.6-6.74-12-15-25.5L861,43.37l-29.55.05-29.64,0L787.26,19.54C779.21,6.36,772.48-5.17,772.07-6c-.52-1.67-2.8-1.73-30.16-1.23l-29.54.54-2,3.29c-1.05,1.7-7.65,13.57-14.54,26.13L683.18,45.62l-29.53,1-29.53,1-14,25.43L596.1,98.54l-27.76.8c-24.69.65-27.85.6-29.07-.86-.8-.87-7.93-12.19-15.77-25.18L509.13,49.77,479.79,50l-29.25.33-2.44-3.71c-1.32-2-8.45-13.56-15.88-25.87L418.77-1.4l-25.29.55c-14,.26-27.36.9-29.82,1.24l-4.34.77-14,25.43L331.39,52l-29.52,1-29.53,1-13.78,25-13.87,25-27.26,1.08c-21.82.89-27.65.9-29.25-.16-1.1-.77-8.62-12.08-16.57-25.36l-14.67-24-30.22.75-30.23.84L82.91,82C75.45,95.66,69,107.13,68.65,107.44s-13.81,1.13-29.91,1.72l-29.23,1L-4.27,135.12c-7.56,13.76-14,25.43-14.15,25.92S-12.18,173-4,186.35s14.78,24.91,14.8,25.7c0,1.48-25.13,47.54-27.54,50.45-1.36,1.51-4,1.75-30.3,2.23l-28.75.52L-90,291.18c-8,14.66-14,26.51-13.64,27.3s7,12,14.88,24.9,14.38,24,14.29,24.72-6.1,12.25-13.56,25.71l-13.59,24.44-29.53,1-29.43,1L-174.23,445c-7.46,13.66-14.07,25.23-14.65,25.83-.78.81-.56,1.79.76,3.64,1,1.37,8.14,13,15.78,25.78l14.06,23.14,28.95-.53c25.68-.46,29.05-.33,30.26,1,.8,1,7.83,12.2,15.67,25.19L-69,572.65l28.65-.22,28.65-.33L2.74,595.93c8,13.08,14.67,24.41,15,25.2.51,1.27-23.75,47-27,50.93-1.36,1.51-4,1.76-29.81,2.22s-28.44.72-29.8,2.32c-.77.91-7.57,12.78-15,26.34l-13.49,24.63L-82,753l15.49,25.49,28.94-.53c21.84-.39,29.15-.23,30.06.74.6.58,7.63,11.91,15.67,25.09l14.47,23.92,29.74-.24,29.84-.35,2.31-3.69c1.24-2.1,7.56-13.47,14-25.23S110.78,776.4,111.36,776s13.82-1,29.33-1.33c25.68-.46,28.35-.71,29.7-2.21.78-1,7.09-12.28,14.08-24.94s13-23.44,13.4-23.64c1.27-.81,51.93-2.92,54.61-2.28,2.18.56,5.33,5.24,17.76,25.55l15.08,24.9,28.15-.52c15.51-.28,28.66-.12,29.26.26s7.82,11.8,16.17,25.38l15,24.6,28.84-.52c26.38-.48,29-.33,30.46,1.22.81.87,8,12.49,16.09,25.87ZM492.06,870c-19.47.35-26.58.19-27.79-.68-2-1.64-29.31-46.85-29.34-48.63s25.4-48.34,27.16-49.76c.58-.5,13.71-1.33,29.12-1.71,26.57-.78,28.05-.71,29.37,1,2.73,3.6,28.92,47,28.94,48,0,.59-6,12.06-13.37,25.52-9.95,18.05-14,24.54-15.65,25.06C519.32,869.18,506.48,869.71,492.06,870ZM24.33,826.35c-1.4-.86-29.92-47.63-29.95-49.11,0-.6,6.1-12.26,13.46-25.82l13.59-24.63,7.4-.83c4-.37,16.78-.89,28.34-1.1,18.67-.34,21.14-.19,22.45,1.37C82.24,729,108.94,773.38,109,775c0,1.29-25.12,47.75-26.67,49.26C81.43,825.11,25.63,827.21,24.33,826.35Zm379.56-6.11c-15.31.28-28.26.12-28.86-.27-1.7-1.15-28.91-46.56-28.95-48.34,0-1.58,19.47-38.26,25.42-47.75l2.3-3.79,28.06-.51,28.15-.51,1.93,2.73c5,6.91,27.71,45.3,27.73,46.88,0,1.77-23.76,45.94-26.57,49.35C431.75,819.53,429.08,819.78,403.89,820.24ZM580.13,817c-24.8.46-27.47.31-28.88-1.15-1.61-1.85-26.67-42.75-28.52-46.67-.92-2.06.41-4.94,11.59-25.58,7-12.77,13.4-24,14.27-24.94,1.36-1.51,4.62-1.76,30-2.42,15.61-.39,28.55-.52,28.75-.33,1.81,1.75,29.14,47.94,29.16,49.23,0,2-25.5,48.34-27.55,50.16C607.79,816.24,600.48,816.66,580.13,817Zm-617-40.12-28,.51-1.93-2.63c-1-1.56-8-12.78-15.47-25l-13.45-22.26,13.77-25.13,13.77-25.13,29.14-.83,29.24-.73L4.83,699.84c8.05,13.38,14.78,24.51,15,24.91.41.78-24.83,47.14-27.25,50C-8.8,776.21-11.46,776.45-36.85,776.91ZM111.7,773c-2.7-2-30.53-48.61-30-50.1.94-2.68,25.63-46.87,26.89-48.27,1-1,7.28-1.52,28.22-2.29,25.68-1,27.16-1,28.67.76s25.35,40.61,28.82,47l1.64,3.23-13.19,24.13-13.3,24.23-10.76.79C138.4,774,113.41,774.28,111.7,773ZM286,769.86c-2.63-3.11-28.73-47-28.75-48.34,0-1.58,24.06-46.35,26.57-49.35,1.36-1.61,4-1.85,29.9-2.32l28.36-.52,13.75,22.75c7.54,12.4,14.17,23.54,14.78,24.71,1,1.76-.69,5.44-12.17,26.28C351,756.44,344.53,767.91,344,768.61,342.41,770.51,287.58,771.61,286,769.86Zm204.61-2.53c-27.86.5-28,.5-29.38-1.64-6.3-9.36-28.12-46.48-28-47.67,0-.79,6.1-12.45,13.56-25.91l13.59-24.44,29-.52,28.94-.53,14.27,23.43C540.4,702.94,547,714,547.33,714.66c.52,1.18-26,50.13-27.82,51.35C518.93,766.42,505.89,767.05,490.58,767.33ZM50.53,724c-22,.4-27.57.21-28.77-.86C19.24,720.61-7.47,675.88-7.4,674c0-1,5.9-12.54,13.17-25.71L19,624.36l29.54-.54L78,623.29l14.56,23.92c7.95,13.18,14.58,24.22,14.59,24.71,0,1.19-27,50-28.13,50.76C78.38,723.09,65.55,723.72,50.53,724Zm175.84-3.2-27.46.5-2.44-3.61c-1.32-2-8.24-13.27-15.37-25L168.16,671.4l13.68-24.63c7.46-13.56,14.07-24.93,14.66-25.34s13.52-.94,28.74-1l27.66-.3L267.37,644c8.05,13.08,14.58,24.62,14.6,25.5,0,1.88-25.5,48.84-27.16,50C254.23,719.89,241.39,720.52,226.37,720.79Zm176.14-3.2c-15,.27-27.76.11-28.36-.27-1.5-.86-29.92-47.64-29.95-49.12,0-1.18,22.45-42.56,26.1-48.05l1.83-2.7,28.65-.33,28.66-.22,14.77,24.31,14.67,24.22-13.1,24.13c-7.17,13.16-13.78,24.83-14.55,25.83C429.88,716.9,427.21,717.14,402.51,717.59Zm176.73-3.7c-26.76,1.17-28.24,1.2-29.76-.55-1.71-1.94-27.89-44.71-28.92-47.26-.52-1.37,23.64-47.32,26.65-50.53,1.26-1.51,55.66-4,57.46-2.63s29.93,47.83,30,49.71-25.1,48.73-26.56,49.65C607.67,712.48,594.74,713.21,579.24,713.89Zm206.83-5.74-29.24.83-29.24.73-2-3.12c-12.42-19.82-27.72-46.2-27.34-47.19,1.12-3.28,26.68-49,27.65-49.57,1.47-1,56.2-2,57.6-1,2.3,1.43,29.93,48.32,29.47,49.91-.28.89-6.4,12.35-13.67,25.52ZM313,667.88c-25.19.46-27.87.31-29.28-1.14-2.22-2.63-28.31-46-28.33-47.17,0-1.48,26.76-50.14,28.13-51.06.58-.4,13.32-1,28.33-1.3,24.7-.45,27.37-.3,28.78,1.25,1.31,1.36,24.53,39.14,28.21,45.79,1,2-.31,4.84-12.36,26.88-7.45,13.66-14.07,25-14.65,25.44S328.28,667.61,313,667.88Zm176.53-3.21c-15,.28-27.76.11-28.36-.27-1.2-.77-29.92-47.53-29.95-48.72,0-.39,6.21-12,13.77-25.72L458.63,565l28.95-.52,28.85-.53,14.26,23.44c7.84,12.88,14.47,24,14.78,24.7.61,1.38-24.91,48.83-27.24,50.85C517.06,663.88,509.75,664.31,489.5,664.67Zm147.87-3.87c-1.21-1-24.11-38-29.13-47.25-.92-1.76.79-5.44,12.46-26.88l13.68-24.83,29.44-.54,29.54-.53,14.56,23.92C716,597.87,722.31,609.3,722,610.1s-6.3,12.16-13.37,25.22c-9.66,17.65-13.6,24-15.46,24.76C689.36,661.63,639.27,662.25,637.37,660.8Zm-470.64,8.26-28.74.82-28.84.72-5.5-9c-25-40.81-24.24-39.64-23.1-42,3.43-7,25.34-46.47,26.5-48,1.35-1.6,3.72-1.74,29.71-2l28.26-.22,14.46,23.93c8.05,13.18,14.58,24.41,14.59,24.91s-6.1,12.25-13.66,25.91ZM48.66,621.35c-22.42.41-27.57.21-28.77-.86-.81-.77-7.73-11.9-15.47-24.59-10.7-17.68-13.87-23.54-13.1-24.74.48-.9,6.79-12.47,14.06-25.63l13.1-24.13,27.36-.89c15-.47,28.05-.61,29-.23C76.28,521,104,565.75,104.92,569c.43,1.67-25.48,49.63-27.63,51C76.61,620.45,63.68,621.08,48.66,621.35Zm177.51-4c-14.62.46-27.36.69-28.16.51-1.78-.27-30.5-47-30.55-49.6,0-2,24.45-46.84,27-49.45,1.65-1.71,3.92-1.85,28.22-2.29,19.76-.36,26.88-.2,28.08.77s24.52,38.65,29.12,47.15c1,1.86-.49,5.14-11.78,25.88-7.17,13.17-13.49,24.34-14.17,25S244.64,616.7,226.17,617.34ZM400.55,615c-14.92.27-27.67.1-28.27-.28-2.4-1.54-30-48.12-29.47-49.81.28-.9,6.4-12.46,13.67-25.62l13.2-23.94,29-.52,29.14-.53,11.92,19.52c6.62,10.74,13.25,21.78,14.78,24.51l2.66,5-13.68,24.83c-7.56,13.66-14.17,25.14-14.75,25.54S415.46,614.68,400.55,615Zm204.88-4.22-28.06.71c-15.5.47-28.65.52-29.25,0-.9-.57-24.73-39.33-28.82-46.76-1-2,.31-4.94,12.36-26.88,7.46-13.66,14.07-25,14.66-25.44s13.42-1,28.43-1.31l27.47-.5,2.44,3.71c1.32,2,8.24,13.18,15.37,24.89L633,560.48l-5.83,11c-3.25,6-9.47,17.25-13.77,25ZM135.85,568.43c-24.8.45-27.47.3-28.88-1.15-3-3.5-28.31-46.08-28.34-47.76,0-1.88,24.62-47.74,26.86-49.95,1-1,8.17-1.43,29-1.81,25.29-.46,28-.31,29.37,1.24,2.62,3,28.31,45.89,28.33,47.37,0,2-25.59,48.74-27.54,50.35C163.5,567.63,156.2,568.06,135.85,568.43Zm204.87-4.22-28.24.81-28.25.71-2-3.12c-10-15.81-27.71-46-27.73-47,0-1.68,25.69-48.74,27.26-49.76.48-.4,13.22-1,28.23-1.3,24.7-.45,27.37-.3,28.78,1.25,1.62,1.75,27.79,44.52,28.83,47.06.31,1-4.93,11.55-13.16,26.41ZM487.34,562l-27.47.5-2.43-3.61c-1.33-2-8.25-13.27-15.38-25l-12.94-21.38,13.77-25,13.87-25.13,28.15-.81,28.15-.71L527.73,485c8,13.28,14.79,24.9,15,25.79.33,1.77-24.91,48.63-26.86,49.94C515.19,561.14,502.35,561.77,487.34,562ZM692,558.32l-28.55.52-28.55.52-14.88-24.51c-8.15-13.47-14.88-24.9-14.89-25.5,0-1.77,24.94-47.05,27-48.86,1.75-1.61,4.71-1.86,29.5-2.31l27.57-.5,2.43,3.7c3.86,5.76,28.12,45.89,28.13,46.48,0,.79-22.08,41.28-25.44,46.77ZM-39.92,570.64l-28.35.52-14.47-23.83c-7.94-13-14.48-24.52-14.49-25.4,0-1.48,19.56-38.27,25.42-47.66l2.3-3.79,28.05-.51c25.39-.46,28.06-.31,29.48,1.24,2.92,3.31,28.31,46,28.34,47.66s-23.87,46.24-26.57,49.55C-11.57,569.93-14.23,570.17-39.92,570.64ZM560.21,510c-9.77.77-11.06.7-13.06-.94-3.12-2.61-29.81-46.95-29.76-49.51,0-1.19,5.89-12.75,13.07-25.61l13.11-23.44,27.16-1.09c20.14-.86,27.65-.89,29,0,2,1.25,30.11,46.84,30.14,48.91,0,.69-6,12.25-13.46,25.81L603,508.6l-15.9.29C578.28,509.05,566.23,509.57,560.21,510Zm162.19-4c-2.1-1.05-30.2-46.54-30.24-48.91,0-2,25.5-48.44,27.45-50,1.27-1,8.67-1.44,28.92-1.81,24.8-.45,27.47-.3,28.88,1.25,1.71,1.75,26.36,42.17,28.42,46.38,1,2.15-.12,4.64-12,26.18-7.17,13.16-13.59,24.34-14.17,25C778.23,505.72,725.29,507.37,722.4,505.94Zm-860.74,16c-15.9.39-18.08.23-19.39-1.22-1.62-1.85-26.57-42.76-28.52-46.68-.93-1.95.49-5.24,12.07-26.08,7.18-13.06,13.69-24.34,14.37-25.14,1.06-1.11,6.89-1.61,28.81-2.3,15.11-.47,28-.61,28.56-.12,2,1.34,29.92,47.83,29.86,49.8,0,1-5.9,12.55-13.17,25.71l-13.2,23.93-10.76.79C-115.63,521.17-128.46,521.7-138.34,522Zm360-6.44-26.38.48-1.92-2.63c-1-1.57-7.95-12.79-15.38-25l-13.45-22.26L178.29,441l13.77-25.13,27.06-1.18c14.91-.67,27.95-1.1,29.14-.83,1.48.27,6.15,7.1,16.54,24.18,7.85,13.19,14.38,24.42,14.4,25.11s-6.1,12.36-13.56,26c-9.47,17.25-14.18,24.84-15.55,25.26C248.91,514.75,236.17,515.27,221.65,515.54Zm206.16-4.24-28.84.82-28.84.72-7-11.43c-3.87-6.34-10.59-17.38-14.87-24.41l-7.85-13,1.62-3.19c3.62-7.47,24.68-45.27,26-47s3.82-1.75,29.61-2l28.16-.22,14.56,23.92c8.05,13.19,14.58,24.62,14.6,25.41s-6.1,12.45-13.56,25.91Zm499-8.58c-25.39.46-28.06.31-29.47-1.14s-24.43-39.15-28.21-45.89c-1-2,.21-4.84,12.36-26.88,7.46-13.66,14.07-25,14.66-25.44s13.52-1,28.83-1.32c25.19-.45,27.86-.3,29.27,1.25.81.87,7.83,12.1,15.48,24.79l14,23.15-13.19,24.13C963.31,488.63,956.8,500.1,956,500.8,955,501.91,949.13,502.31,926.8,502.72Zm-879.34,15c-21.14.38-28.16.21-28.86-.66-2.23-2.93-28.83-47.36-28.85-48.35,0-1.67,25.8-48.45,27.55-49.86,1.17-1,8.38-1.43,28.43-1.8l27-.49,1.93,2.73c1,1.46,8,12.69,15.47,24.89,12,19.92,13.36,22.56,12.51,24.65-1.9,4.38-24.29,44.87-25.84,46.67C75.42,517,72.75,517.26,47.46,517.72Zm613-60.51c-20.65.38-27.57.21-28.37-.67-2.93-3.5-28.73-47.06-28.66-48.44,0-.89,6.1-12.65,13.56-26.11l13.59-24.44,28.74-.82,28.84-.72,14,23.05c7.74,12.69,14.28,24.12,14.59,25.3.23,1.48-3.67,9.74-12.66,26-7.18,13.16-13.69,24.43-14.57,25.14C688.19,456.41,680.79,456.84,660.44,457.21Zm-730.09,11.1c-1.3-1-24.52-38.55-29.32-47.35-1-1.95.21-4.84,11.78-25.88C-80,382-73.6,370.85-73,370.14c.88-.8,9.36-1.35,29-1.91,23.51-.72,28.15-.61,29.36.56,2.42,2.42,29.12,46.85,29.15,48.53,0,1.48-24.16,46.54-26.19,48.85C-13.33,468-67.54,470.05-69.65,468.31Zm232.27-3-27.56.51c-24.89.45-27.56.3-29-1.16-.81-1-7.83-12.19-15.48-24.89C80.93,423.81,76.74,416,77.11,414.8c1.32-3.48,25.53-47,26.8-48.07.87-.81,9.56-1.26,29.22-1.42l28-.21L175.66,389c8.05,13.18,14.68,24.51,14.69,25.2,0,1.19-20.33,39.07-25.42,47.36Zm119.22-3.55c-2.32-2.22-29.22-47.15-29.25-48.82,0-.79,6-12.45,13.46-26l13.49-24.43,28.35-.51,28.35-.52,15.08,24.9,15.08,24.9-13.2,24.13c-7.27,13.17-13.88,24.64-14.56,25.44C336.7,462.8,284,463.66,281.84,461.72Zm203.23-2.31-27.86.51-14.87-24.41c-8.15-13.38-14.88-24.71-14.88-25.1s6.2-12,13.76-25.72l13.67-24.93,29.05-.53,29-.53,14.47,23.93c8,13.08,14.57,24.12,14.58,24.51,0,.89-25.91,48.06-27.55,50.06C513.12,458.71,510.46,459,485.07,459.41Zm380.83-6.92-28.45.52c-21.63.39-28.75.22-29.46-.65-1.41-1.75-27.7-45.21-28.43-47.07-.62-1.47,25.47-50.12,27.72-51.64,1.37-1,55.11-2,56.51-1s29.92,47.63,30,49.11c0,1.19-22.74,43.07-26,48.06Zm177.32-3.72-28.84.82-28.84.72-2.34-3.61C975.37,434.61,956,401.59,956,400.31c0-1.68,25.59-48.74,27.25-49.86.49-.5,13.82-.94,29.53-1l28.56-.32L1055.87,373c8.05,13.18,14.58,24.42,14.69,24.91s-6.1,12.25-13.66,25.91ZM45,416.08c-20.65.37-27.57.2-28.28-.67-2.93-3.7-28.83-47.56-28.85-49,0-1.87,25.5-48.54,27.16-49.66.58-.4,13.61-1,28.93-1.31l27.86-.51,1.92,2.73c3.86,5.36,27.71,45.21,27.73,46.29,0,1.78-25.8,48.94-27.55,50.46C72.77,415.28,65.47,415.7,45,416.08Zm204.59-3.72-28.05.51c-25.39.46-28.06.31-29.47-1.15-2.43-2.72-28.62-46.27-28.64-47.65s24.64-46.95,26.87-49.55c1.35-1.61,4-1.85,29.3-2.31s28-.32,29.38,1.24c2.92,3.3,28.31,46,28.34,47.66,0,1.48-19.19,37.37-25.42,47.55Zm175.85-3.2-28.16.51-28.05.51-7-11.42c-19.05-31.25-22.62-37.1-22.64-38.29,0-1.77,25.71-48.25,27.56-49.66,1.17-1,8.37-1.44,28.33-1.8,24.4-.44,27-.29,28.38,1.26,1.62,1.75,27.9,44.9,28.93,47.35.52,1.28-17.63,35.77-25,47.85Zm147.19-2.68c-24.79.46-27.47.31-28.88-1.15-.8-1-7.73-12.2-15.47-24.89l-14-23.15,13.58-24.73c7.46-13.56,14.07-25,14.66-25.44s13.52-.93,28.74-1L599,305.8l14.47,23.93c8,13.08,14.58,24.51,14.59,25.3,0,1.68-24.92,47.64-26.86,49.75C600.21,405.69,593.1,406.11,572.65,406.48Zm205-4.22-28.74.82c-22.23.61-29,.43-29.85-.44-2-2.43-28.73-47-28.75-47.95,0-1.68,25.8-48.84,27.55-50.26,1.17-1,8.47-1.44,28.72-1.8,15-.28,27.77-.11,28.37.27,1.5,1,29.93,47.93,29.85,49.31,0,.69-6.1,12.16-13.56,25.62Zm146.71-2.17-28.45.52L882.14,378c-7.54-12.5-14.17-23.64-14.79-24.81-1.32-2.45-1.89-1.15,14.37-30.77,6.31-11.47,12-21.24,12.55-21.65s13.62-1,28.83-1.31c21-.39,28.06-.22,28.87.76,2.62,3,28.72,46.86,28.75,48.24,0,1.58-24.06,46.35-26.58,49.45C952.79,399.38,950.12,399.62,924.34,400.09Zm-411.9-43.95-27.26.8c-14.91.47-28,.5-28.95.23S448,345.77,440,332.58L425.5,308.66,439,283.83c7.47-13.56,14.27-25.33,15.15-25.94,2.33-2,54.79-2.77,56.8-.93,2,2,29.22,47,29.25,48.43,0,1.19-20.15,38.57-25.43,47.06Zm119.94-1.88c-1.9-1.05-29.93-47.83-29.86-49.71,0-1,5.9-12.54,13.17-25.71l13.2-23.93,11.74-.81c22.11-1.58,43.35-1.77,45.06-.42,1.3,1,24,37.57,28.61,46.18l1.64,3.13-13.59,24.73-13.58,24.82-10.36.79C663.51,354.48,633.68,355.13,632.38,354.26ZM-15.09,365.83l-28.55.52c-21.63.4-28.75.23-29.56-.65-2.52-3-28.72-47-28.75-48.24s20-38.77,25.43-47.46l2.3-3.79,28-.51c15.31-.28,28.36-.12,29,.27,1.3.86,29.92,47.83,30,49.21,0,1-20.93,39.47-25.43,47Zm176.33-3.7-28.25.81c-21.83.6-28.55.42-29.26-.45-2.93-3.5-28.83-47.26-28.85-48.74,0-1.87,25.49-48.84,27.15-49.95.59-.41,13.52-1,28.84-1.32,25.19-.45,27.86-.31,29.27,1.25,3.23,3.59,28.31,46,28.24,47.76,0,1-6.09,12.75-13.55,26.21Zm118.73-3c-2-2-29.22-47.06-29.25-48.44,0-.69,6.1-12.35,13.47-25.91l13.58-24.63,27.75-1c15.21-.57,28.45-.71,29.34-.34,1.6.86,29.71,46.56,29.74,48.43,0,.69-6.1,12.45-13.55,26.11l-13.58,24.83-14.91.86C296.8,360.66,281.58,360.64,280,359.09Zm584.16-9.24-28.55.52-28.55.52-15-24.51c-8.15-13.47-14.69-25.1-14.4-25.8,1.12-3.28,26.67-49,27.65-49.57.69-.4,13.82-.94,29.33-1l28.16-.32,14.47,23.83c8,13.08,14.57,24.41,14.59,25.1,0,1.29-19.38,37.47-25.52,47.56ZM746.84,301.44c-15,.37-27.86.4-28.46,0-1.1-.77-29.92-47.53-29.94-48.62,0-.3,6.21-11.86,13.86-25.82l13.87-25.23,27.35-1c15.11-.57,28.15-.71,29.15-.23,1.4.76,26.13,40.29,29.32,47,1.13,2.35.18,4.44-11.88,26.28-7.17,13.16-13.78,24.53-14.46,25.34C774.49,300.34,769.65,300.73,746.84,301.44Zm-703.69,12L14.8,314-.07,289.54c-8.15-13.37-14.88-24.8-14.9-25.39,0-1,20.35-38.68,25.53-47.16l2.21-3.7,29-.32,28.85-.23L85,236.56c8,13.08,14.58,24.42,14.59,25.21,0,1.58-24.05,46.34-26.57,49.45C71.7,312.72,69,313,43.15,313.44Zm176.34-3.21c-28,.51-28.06.51-29.48-1.63-5.68-8.29-28.12-46.48-28-47.67,0-.79,6.09-12.45,13.56-25.91l13.58-24.44,28.25-.81c26-.67,28.35-.61,29.76.94,2.93,3.4,28.72,46.67,28.65,48.25S251.32,305.21,248.9,308C247.54,309.53,244.88,309.77,219.49,310.23Zm174.86-3.18c-23.32.43-25.89.28-27.3-1.18-1.62-1.94-27.9-45.1-28.93-47.55-.52-1.37,19.92-40.15,25.59-48.74l1.93-2.7,28.16-.31,28.26-.22,14.57,23.92c8,13.18,14.67,24.41,14.68,25s-6,12.15-13.37,25.61C428,298.94,424,305.43,422.29,306,421.11,306.27,408.57,306.8,394.35,307.05Zm176.33-3.2c-24.79.45-27.36.3-28.77-1.16-2.83-3.3-28.32-46.18-28.35-47.76s24-46.34,26.57-49.45c1.36-1.6,4-1.85,29.31-2.31s28-.31,29.38,1.25c3.93,4.27,28.51,46.27,28,48-.64,2.68-26.47,49.35-27.74,50.16C598.44,303,585.7,303.58,570.68,303.85ZM130.73,260.51c-21.14.39-28.16.22-29-.66C99.24,256.74,73,212.69,73,211.41s22.25-42.76,26-48.26l1.83-2.79,28.55-.52,28.45-.52,15,24.51,14.87,24.51-13.1,24c-7.17,13.26-13.78,24.93-14.55,25.93C158.68,259.81,156,260.05,130.73,260.51Zm175.65-3.19-28,.51-2.34-3.61c-6.41-10-27.2-45-27.22-46,0-.49,6.1-12.15,13.66-25.81l13.68-24.74,28.25-.81,28.25-.71,2,2.63c1,1.56,7.94,12.69,15.38,24.9l13.45,22.16L350,230.56c-7.46,13.56-14.07,25-14.65,25.44S321.69,257,306.38,257.32Zm176.43-3.21c-24.79.45-27.36.3-28.77-1.15-2.22-2.53-29.33-47.55-29.25-48.74,0-.49,6.11-11.85,13.57-25.32L452,154.47l27.85-.8c22.91-.62,28.05-.51,29.16.65,2.42,2.23,29.32,47.05,29.35,48.73s-25.6,48.64-27.16,49.76C510.57,253.21,497.83,253.84,482.81,254.11Zm204-4.2-28.24.81-28.35.71-7-11.42c-19.25-31.34-22.62-37.2-22.64-38.39s22.26-42.26,26-48.05l1.82-2.8,28-.51c25.39-.46,28.06-.31,29.47,1.24,2.52,2.72,28.31,45.69,28.33,47.17,0,.79-6.09,12.65-13.65,26.31ZM41.18,210.8l-28.25.52L-2,186.81C-15.49,164.74-16.92,162-16,159.82c2.18-5.08,26.21-47.67,27.29-48.38.58-.51,13.72-.94,29.23-1l28.16-.31,14.46,23.82c8,13.09,14.58,24.52,14.6,25.51,0,2-25.39,48.93-27.15,50C70,209.88,56.79,210.52,41.18,210.8Zm177.13-3.22c-15,.28-27.77.11-28.37-.27-1.3-.87-29.92-47.73-29.94-49.11,0-1,21.2-40.17,25.43-47l2.3-3.8,28.06-.51,28.05-.51,15,24.61c9,14.74,14.69,25.3,14.51,26.29-.55,2.28-24.37,45.76-26.3,48.06C245.67,206.89,243,207.13,218.31,207.58Zm175.15-3.18-28,.51-2.34-3.61c-7.12-11.13-27.21-45-27.23-46.1,0-1.48,24.26-46.35,26.58-49.16,1.36-1.6,4-1.85,29.31-2.31,21.14-.38,28.16-.21,29,.76,2.62,3,28.72,46.87,28.74,48.25,0,1.58-24.06,46.34-26.57,49.45C421.52,203.69,418.85,203.94,393.46,204.4Zm204.89-3.73-28.84.53-28.85.52L526.19,177.9c-7.94-13-14.48-24.42-14.49-25.21,0-2.07,25.5-48.74,27.54-50.35,2.34-2,54.8-2.78,56.81-.94,2.21,2.23,29.22,47,29.25,48.63,0,.89-6,12.55-13.46,26.11Zm175.94-3.19-28.55.52-28.55.51-7-11.42c-19-31.14-22.62-37.1-22.64-38.29s20.63-39.47,25.43-47.15l2.3-3.8,28.06-.51c25.39-.46,28.06-.31,29.47,1.24,1.61,1.75,26.67,42.66,28.52,46.58.93,2.05-.21,4.74-11.12,24.58-6.79,12.27-13.11,23.44-14.07,25Zm-616.2-40.63-28.64.82-28.55.71-2-2.63c-1-1.56-7.94-12.79-15.38-25L70.05,108.5l13.2-24C90.42,71.3,96.93,59.83,97.71,59.13c1.07-1.11,6.89-1.51,29.12-1.92,15.31-.27,28.36-.12,29,.27,1.1.67,29.93,47.93,29.94,48.91,0,.3-6.2,11.86-13.76,25.53Zm175.56-2.7-28.45.52-28.45.52-14.88-24.51c-8.15-13.48-14.88-25.2-14.9-26s5.81-12.25,13.08-25.22l13-23.63L279,55c8.18-.94,50.37-1.61,51.67-.74,1.5,1,29.92,47.83,30,49.51,0,.69-6,12.25-13.46,25.81Zm146.9-2.67c-21.14.38-28.16.22-29-.66-2.42-2.92-28.72-47.16-28.75-48.34S443.17,63.41,448.26,55l2.3-3.69,28-.51c15.31-.28,28.36-.12,29,.26S515.1,62.4,523,75.48l14.37,23.63-1.52,3.29c-3.24,6.67-24.68,45.17-26,46.87C508.5,150.77,505.84,151,480.55,151.48Zm205.27-4.22-29.13.82-29,.73-14.57-24.12c-8.15-13.38-14.88-24.61-15.09-25-.51-.88,26.18-49.74,27.84-50.76.58-.4,13.42-1,28.43-1.3,22.13-.41,27.57-.21,28.78.85,2.61,2.52,29.22,47.16,29.15,49,0,1.09-5.89,12.65-13.16,25.81Zm146.81-2.18-28.45.52-7-11.43C777.8,102.44,774.54,97,774.61,95.69c0-.79,6.1-12.35,13.57-25.82l13.58-24.43,29.15-.53,29-.53L874.52,68.3c8,13.19,14.58,24.52,14.59,25.31,0,1.48-24.16,46.34-26.57,49.25C861.18,144.36,858.52,144.61,832.63,145.08ZM392.2,102.24c-23.41,1-28.35,1-29.26-.06-1.71-2-29.93-48.52-29.95-49.31,0-.39,6.11-11.76,13.47-25.32L360.05,2.92,387.4,1.63C402.51,1,415.74.72,416.84,1.1c2.38.65,30.69,46.33,30.74,49.49,0,1.58-24.53,47.64-26.66,49.85C420.63,100.74,407.7,101.67,392.2,102.24Zm351.88-6.69c-15.41.48-28.45.62-29,.23-1.6-.86-30.45-49.2-30.07-50.19.19-.5,6.11-11.57,13.29-24.43C706.67,5.9,712.05-2.69,713.52-3.5c1.66-.92,9.85-1.47,29.11-1.82,24.31-.44,26.88-.29,28.29,1.27.81.87,7.83,12.1,15.57,24.89l14,23.14-13.1,23.93c-7.27,13.17-13.68,24.64-14.26,25.34C772.22,94.45,766.69,94.84,744.08,95.55Z" transform="translate(189.33 7.55)"/></g></g></g></svg>