<svg xmlns="http://www.w3.org/2000/svg" xmlns:xlink="http://www.w3.org/1999/xlink" viewBox="0 0 700.72 894.7"><defs><style>.cls-1{isolation:isolate;}.cls-2{fill:#5c1e00;}.cls-3{fill:url(#Безымянный_градиент_69);}.cls-4{fill:url(#Безымянный_градиент_69-2);}.cls-5{opacity:0.37;}.cls-6{fill:url(#Безымянный_градиент_75);}.cls-7{fill:url(#Безымянный_градиент_69-3);}.cls-8{fill:url(#Безымянный_градиент_75-2);}.cls-9{fill:url(#Безымянный_градиент_69-4);}.cls-10{fill:url(#Безымянный_градиент_75-3);}.cls-11{fill:url(#Безымянный_градиент_69-5);}.cls-12{fill:url(#Безымянный_градиент_75-4);}.cls-13{fill:url(#Безымянный_градиент_69-6);}.cls-14{fill:url(#Безымянный_градиент_75-5);}.cls-15{mix-blend-mode:overlay;}.cls-16{fill:url(#Безымянный_градиент_214);}.cls-17{opacity:0.26;}.cls-18{fill:url(#Безымянный_градиент_58);}</style><linearGradient id="Безымянный_градиент_69" x1="476.83" y1="9.14" x2="476.83" y2="312.87" gradientUnits="userSpaceOnUse"><stop offset="0" stop-color="#754c24"/><stop offset="1" stop-color="#5c1e00"/></linearGradient><linearGradient id="Безымянный_градиент_69-2" x1="5469.53" y1="-5705.02" x2="5703.12" y2="-5705.02" gradientTransform="matrix(1, 0, 0, -1, -5283.73, -5458.54)" xlink:href="#Безымянный_градиент_69"/><linearGradient id="Безымянный_градиент_75" x1="7017.94" y1="-5704.5" x2="7134.09" y2="-5704.5" gradientTransform="matrix(0.29, 0.56, 0.89, -0.46, 3311.46, -6377.87)" gradientUnits="userSpaceOnUse"><stop offset="0" stop-color="#fc9" stop-opacity="0.8"/><stop offset="0.68" stop-color="#94683f" stop-opacity="0.67"/><stop offset="1" stop-color="#603813" stop-opacity="0.6"/></linearGradient><linearGradient id="Безымянный_градиент_69-3" x1="5510.78" y1="-5976.56" x2="5676.6" y2="-5976.56" gradientTransform="matrix(1, 0, 0, -1, -5524.56, -5599.23)" xlink:href="#Безымянный_градиент_69"/><linearGradient id="Безымянный_градиент_75-2" x1="4318.49" y1="-5976.05" x2="4400.88" y2="-5976.05" gradientTransform="matrix(0.85, 1.65, 0.89, -0.46, 1678.83, -9546.01)" xlink:href="#Безымянный_градиент_75"/><linearGradient id="Безымянный_градиент_69-4" x1="5444.78" y1="-5772.9" x2="5719.03" y2="-5772.9" gradientTransform="matrix(1, 0, 0, -1, -5337.14, -5499.35)" xlink:href="#Безымянный_градиент_69"/><linearGradient id="Безымянный_градиент_75-3" x1="6764.66" y1="-5772.39" x2="6901.03" y2="-5772.39" gradientTransform="matrix(0.3, 0.59, 0.89, -0.46, 3264.34, -6469.31)" xlink:href="#Безымянный_градиент_75"/><linearGradient id="Безымянный_градиент_69-5" x1="5461.28" y1="-5908.67" x2="5708.42" y2="-5908.67" gradientTransform="matrix(1, 0, 0, -1, -5459.43, -5570.3)" xlink:href="#Безымянный_градиент_69"/><linearGradient id="Безымянный_градиент_75-4" x1="4843.68" y1="-5908.16" x2="4959.19" y2="-5908.16" gradientTransform="matrix(0.61, 1.18, 0.89, -0.46, 2377.42, -8190.4)" xlink:href="#Безымянный_градиент_75"/><linearGradient id="Безымянный_градиент_69-6" x1="5428.28" y1="-5840.79" x2="5729.64" y2="-5840.79" gradientTransform="matrix(1, 0, 0, -1, -5395.89, -5538.75)" xlink:href="#Безымянный_градиент_69"/><linearGradient id="Безымянный_градиент_75-5" x1="5452.55" y1="-5840.27" x2="5602.28" y2="-5840.27" gradientTransform="matrix(0.46, 0.89, 0.89, -0.46, 2819.41, -7332.71)" xlink:href="#Безымянный_градиент_75"/><linearGradient id="Безымянный_градиент_214" y1="518.51" x2="346.98" y2="518.51" gradientUnits="userSpaceOnUse"><stop offset="0" stop-color="#b1531d"/><stop offset="1" stop-color="#ffb300"/></linearGradient><linearGradient id="Безымянный_градиент_58" x1="16.63" y1="512.53" x2="156.8" y2="512.53" gradientUnits="userSpaceOnUse"><stop offset="0" stop-color="#fc9"/><stop offset="0.65" stop-color="#ffbc36"/><stop offset="1" stop-color="#ffb300"/></linearGradient></defs><g class="cls-1"><g id="Слой_2" data-name="Слой 2"><g id="ілюстрації"><path class="cls-2" d="M688,5,317.9,195.68a65.54,65.54,0,1,0,60,116.51L700.72,145.86V0A65.49,65.49,0,0,0,688,5Z"/><path class="cls-3" d="M700.72,9.14v99L344.45,291.67C333,297.55,321.23,303.38,310,307.43c-22.07,8-41.79,9.08-51.55-9.85A50.33,50.33,0,0,1,253,274.41c0-23.19,15.06-47.16,40.27-60.16l4.31-2.22L675.47,17.27A80,80,0,0,1,700.72,9.14Z"/><rect class="cls-2" x="175.45" y="232.51" width="292.72" height="70.03" rx="24.94" transform="translate(412.2 -141.09) rotate(62.74)"/><rect class="cls-4" x="190.28" y="215.4" width="233.78" height="62.15" rx="22.13" transform="translate(385.56 -139.48) rotate(62.74)"/><g class="cls-5"><path class="cls-6" d="M271.92,216.37a7,7,0,0,1-2.43-2.57c-6.41-12-12.25-24.43-14.76-38-.94-5-1.17-11,4.88-15.08a14.43,14.43,0,0,1,3.94-1.83c5.6-1.62,10.69-.22,14.85,2,10.67,5.81,15.73,16.8,20.33,27.28l7.4,16.85c1,2.34,2.06,4.78,1.73,7.47-.65,5.23-6.64,9.94-12.61,11.17a24,24,0,0,1-15.67-2.5c-.45-.23-.88-.48-1.3-.75Z"/></g><rect class="cls-2" x="-23.43" y="356.79" width="207.63" height="70.03" rx="24.94" transform="translate(391.84 140.87) rotate(62.74)"/><rect class="cls-7" x="-13.78" y="346.25" width="165.82" height="62.15" rx="22.13" transform="translate(372.87 143.03) rotate(62.74)"/><g class="cls-5"><path class="cls-8" d="M76.58,428.37a51.45,51.45,0,0,1-7.7-11C56.21,393,44.13,368.27,35.35,342.87c-2.71-7.84-5.14-16.58-3.12-22.28,1.67-4.75,6.26-6.19,11.1-4.78s9.89,5.31,14.51,9.89C73.55,341.28,84.67,364,95,385.62Q103.3,403,111.6,420.35c2.3,4.81,4.66,9.82,5.45,14.69,1.54,9.47-3.73,15.58-10.52,15.22S92,444.38,85.17,437.67Z"/></g><rect class="cls-2" x="89.72" y="263.5" width="343.4" height="70.03" rx="24.94" transform="translate(407.02 -70.61) rotate(62.74)"/><rect class="cls-9" x="107.63" y="242.48" width="274.25" height="62.15" rx="22.13" transform="translate(375.81 -69.32) rotate(62.74)"/><g class="cls-5"><path class="cls-10" d="M207.35,239.79a7.45,7.45,0,0,1-2.07-2.42c-8-15.08-15.49-30.6-19.51-47.2-1.47-6.09-2.31-13.19,3.65-17.46a11.33,11.33,0,0,1,3.82-1.75c5.77-1.46,11.31.71,15.94,3.84,11.78,7.95,18.17,21.52,24,34.45L242.63,230c1.3,2.88,2.63,5.88,2.55,9.05-.17,6.17-6,11.18-12.15,12.06-5.93.85-11.87-1.4-16.9-4.63-.36-.23-.72-.49-1.07-.76Z"/></g><rect class="cls-2" x="-14" y="325.69" width="309.46" height="70.03" rx="24.94" transform="translate(396.9 70.38) rotate(62.74)"/><rect class="cls-11" x="1.85" y="307.29" width="247.14" height="62.15" rx="22.13" transform="translate(368.75 71.88) rotate(62.74)"/><g class="cls-5"><path class="cls-12" d="M118.73,363.88a27.78,27.78,0,0,1-3.92-5.67c-14.23-27.15-27.95-54.84-38-83.15-.4-1.1-.78-2.22-1.16-3.34-4.66-14.06,12.91-25,23.26-14.36l.22.22c16.4,16.9,28.33,41.23,39.43,64.32q8.91,18.57,17.84,37.14c2.47,5.15,5,10.5,6,15.66,1.83,10.05-3.34,16.35-10.24,15.77-6.71-.57-14.47-6.3-21.46-13.31-.38-.39-.76-.8-1.13-1.22Z"/></g><rect class="cls-2" x="12.4" y="294.59" width="377.34" height="70.03" rx="24.94" transform="translate(401.96 -0.11) rotate(62.74)"/><rect class="cls-13" x="32.39" y="270.96" width="301.36" height="62.15" rx="22.13" transform="translate(367.69 0.95) rotate(62.74)"/><g class="cls-5"><path class="cls-14" d="M161,297.84a21.8,21.8,0,0,1-3.36-4.74C144.55,268.19,132,242.75,123,216.61c-2.64-7.69-5-16.27-2.93-21.89,1.71-4.69,6.29-6.14,11.1-4.8s9.8,5.15,14.36,9.61c15.51,15.2,26.39,37.48,36.49,58.63q8.12,17,16.24,34c2.25,4.72,4.56,9.63,5.31,14.41,1.45,9.3-3.85,15.36-10.61,15.05s-14.41-5.65-21.16-12.2Z"/></g><g class="cls-15"><path class="cls-16" d="M159.9,163.69c-9.21-16.49-30.58-25-48.62-19.47S80.41,168.9,82.09,187.71c.31,3.39,1,7-.32,10.1-2,4.65-7.42,6.47-12.06,8.45-26.76,11.43-40.27,46.67-28,73.06A59.55,59.55,0,0,0,2.22,320.47c-3.12,12-2.35,24.68-1.3,37,9.79,116.2,40.94,230.62,39.71,347.23-.51,48.63-6.67,97.17-4.89,145.77.54,14.67,2.41,30.73,14.07,40.3a15.89,15.89,0,0,0,10,3.88c11.06,0,15.64-12.4,17.73-22.61A648.46,648.46,0,0,0,83,643.5c-3.48-22.38-8.12-44.56-11.85-66.89-2-12.24-3.79-25-.19-36.87s14.1-22.56,26.5-22.35c12.73.21,23,11.83,25.87,24.23,3.48,14.83-1.12,30.46-4.48,45a11.71,11.71,0,0,0,5.23,12.8c5.27,3.07,10.16-.38,13.63-4.1,11.11-11.88,15.58-28.54,17.1-44.73.49-5.29.78-10.83,3.47-15.41,10.09-17.22,40.45-5.26,54.41-19.53,5.42-5.54,8.62-15.12,18.53-11.69a17.51,17.51,0,0,1,3.4,1.72,64.6,64.6,0,0,0,96.72-38.35c1.22-4.68,2-9.57,4.32-13.79,1.67-3,4.07-5.46,6-8.27a31,31,0,0,0,3.51-27.68c-3.85-10.55-13.05-18-21.4-25.55-21.86-19.68-40.17-42.92-58.36-66-11.14-14.15-22.45-28.6-28.79-45.45-4.44-11.78-6.31-24.4-10.79-36.16-5.16-13.54-13.64-25.56-22.73-36.85-7.87-9.77-16.42-19.37-21-31.06-3.65-9.38-4.14-20.63.29-29.38a3.24,3.24,0,0,0-3.95-4.56c-9.64,3.2-17.64,11.54-19.77,21.53"/></g><g class="cls-17"><path class="cls-18" d="M156.61,200.32c1.89-15.06-10.79-29.88-25.94-30.8s-29.58,12.72-29.52,27.89c0,4.87,1.25,10.07-1,14.41-1.74,3.38-5.2,5.44-8.33,7.6a69.93,69.93,0,0,0-29.69,52.45c-.27,4.38-.15,8.9-1.73,13-2,5.07-6.27,8.79-10.11,12.64C24.93,323,15.79,361,16.69,396.91s10.61,71,17.79,106.25c7.58,37.13,9.87,64.42,11.9,102.26.09,1.68,0,11,0,12.63,0,9.83-1.4,15.45-1.4,25.28,0,56.33,1.4,108-2.38,164.18-1,15.51-2.08,32.41,4.44,46a3.61,3.61,0,0,0,6.72-.55c8.55-29.77,16.07-60,17-90.94.89-29.52-4.27-58.85-8.43-88.09a1318.35,1318.35,0,0,1-13-171.9c-.3-29.51.5-59.65,10.51-87.41,11.07-30.71,32.62-56.37,47.94-85.19,8.68-16.32,15.34-33.62,22-50.88,10-26.14,16.84-52.12,26.9-78.26"/></g></g></g></g></svg>