<svg xmlns="http://www.w3.org/2000/svg" xmlns:xlink="http://www.w3.org/1999/xlink" viewBox="0 0 1554.83 1121.95"><defs><style>.cls-1{isolation:isolate;}.cls-2{fill:#5c1e00;}.cls-3{fill:url(#Безымянный_градиент_69);}.cls-4{fill:url(#Безымянный_градиент_69-2);}.cls-5{opacity:0.37;}.cls-6{fill:url(#Безымянный_градиент_75);}.cls-7{fill:url(#Безымянный_градиент_69-3);}.cls-8{fill:url(#Безымянный_градиент_75-2);}.cls-9{fill:url(#Безымянный_градиент_69-4);}.cls-10{fill:url(#Безымянный_градиент_75-3);}.cls-11{fill:url(#Безымянный_градиент_69-5);}.cls-12{fill:url(#Безымянный_градиент_75-4);}.cls-13{fill:url(#Безымянный_градиент_69-6);}.cls-14{fill:url(#Безымянный_градиент_75-5);}.cls-15{mix-blend-mode:overlay;}.cls-16{fill:url(#Безымянный_градиент_214);}.cls-17{opacity:0.26;}.cls-18{fill:url(#Безымянный_градиент_58);}.cls-19{fill:url(#Безымянный_градиент_217);}.cls-20{fill:url(#Безымянный_градиент_58-2);}</style><linearGradient id="Безымянный_градиент_69" x1="1264.56" y1="15.83" x2="1264.56" y2="319.6" gradientUnits="userSpaceOnUse"><stop offset="0" stop-color="#754c24"/><stop offset="1" stop-color="#5c1e00"/></linearGradient><linearGradient id="Безымянный_градиент_69-2" x1="5030.51" y1="-3726.82" x2="5264.1" y2="-3726.82" gradientTransform="matrix(1, 0, 0, -1, -4080.57, -3473.62)" xlink:href="#Безымянный_градиент_69"/><linearGradient id="Безымянный_градиент_75" x1="7231.46" y1="-3726.31" x2="7347.61" y2="-3726.31" gradientTransform="matrix(0.29, 0.56, 0.89, -0.46, 2255.28, -5584.35)" gradientUnits="userSpaceOnUse"><stop offset="0" stop-color="#fc9" stop-opacity="0.8"/><stop offset="0.68" stop-color="#94683f" stop-opacity="0.67"/><stop offset="1" stop-color="#603813" stop-opacity="0.6"/></linearGradient><linearGradient id="Безымянный_градиент_69-3" x1="5072.66" y1="-3998.36" x2="5238.48" y2="-3998.36" gradientTransform="matrix(1, 0, 0, -1, -4322.67, -3614.31)" xlink:href="#Безымянный_градиент_69"/><linearGradient id="Безымянный_градиент_75-2" x1="3370.96" y1="-3997.85" x2="3453.35" y2="-3997.85" gradientTransform="matrix(0.85, 1.65, 0.89, -0.46, 1489.65, -7070.07)" xlink:href="#Безымянный_градиент_75"/><linearGradient id="Безымянный_градиент_69-4" x1="5006.66" y1="-3794.71" x2="5280.91" y2="-3794.71" gradientTransform="matrix(1, 0, 0, -1, -4135.24, -3514.42)" xlink:href="#Безымянный_градиент_69"/><linearGradient id="Безымянный_градиент_75-3" x1="6884.15" y1="-3794.19" x2="7020.52" y2="-3794.19" gradientTransform="matrix(0.3, 0.59, 0.89, -0.46, 2233.3, -5627)" xlink:href="#Безымянный_градиент_75"/><linearGradient id="Безымянный_градиент_69-5" x1="5023.16" y1="-3930.48" x2="5270.3" y2="-3930.48" gradientTransform="matrix(1, 0, 0, -1, -4257.53, -3585.38)" xlink:href="#Безымянный_градиент_69"/><linearGradient id="Безымянный_градиент_75-4" x1="4129.71" y1="-3929.96" x2="4245.22" y2="-3929.96" gradientTransform="matrix(0.61, 1.18, 0.89, -0.46, 1818.66, -6431.61)" xlink:href="#Безымянный_градиент_75"/><linearGradient id="Безымянный_градиент_69-6" x1="4990.16" y1="-3862.59" x2="5291.52" y2="-3862.59" gradientTransform="matrix(1, 0, 0, -1, -4193.99, -3553.83)" xlink:href="#Безымянный_градиент_69"/><linearGradient id="Безымянный_градиент_75-5" x1="5014.43" y1="-3862.08" x2="5164.16" y2="-3862.08" gradientTransform="matrix(0.46, 0.89, 0.89, -0.46, 2025.44, -6030.36)" xlink:href="#Безымянный_градиент_75"/><linearGradient id="Безымянный_градиент_214" x1="763.78" y1="525.24" x2="1110.76" y2="525.24" gradientUnits="userSpaceOnUse"><stop offset="0" stop-color="#b1531d"/><stop offset="1" stop-color="#ffb300"/></linearGradient><linearGradient id="Безымянный_градиент_58" x1="780.41" y1="519.26" x2="920.57" y2="519.26" gradientUnits="userSpaceOnUse"><stop offset="0" stop-color="#fc9"/><stop offset="0.65" stop-color="#ffbc36"/><stop offset="1" stop-color="#ffb300"/></linearGradient><linearGradient id="Безымянный_градиент_217" y1="1038.13" x2="1280.76" y2="1038.13" gradientUnits="userSpaceOnUse"><stop offset="0" stop-color="#b1531d"/><stop offset="0.24" stop-color="#b4561c"/><stop offset="0.44" stop-color="#bc6019"/><stop offset="0.62" stop-color="#ca7114"/><stop offset="0.79" stop-color="#dd890d"/><stop offset="0.95" stop-color="#f6a803"/><stop offset="1" stop-color="#ffb300"/></linearGradient><linearGradient id="Безымянный_градиент_58-2" x1="467.85" y1="1095.17" x2="467.85" y2="1011.75" xlink:href="#Безымянный_градиент_58"/></defs><g class="cls-1"><g id="Слой_2" data-name="Слой 2"><g id="ілюстрації"><path class="cls-2" d="M1451.77,11.68,1081.68,202.41a65.53,65.53,0,1,0,60,116.5L1464.5,152.59c149.69-78.86,87.21-179.7,0-145.86A66.09,66.09,0,0,0,1451.77,11.68Z"/><path class="cls-3" d="M1464.5,15.87c48.58-1.6,77.52,48.67,0,98.95L1108.23,298.4c-11.41,5.88-23.22,11.71-34.41,15.75-22.07,8-41.79,9.09-51.55-9.84a50.36,50.36,0,0,1-5.54-23.17c0-23.2,15.06-47.16,40.27-60.17l4.31-2.22L1439.25,24A80,80,0,0,1,1464.5,15.87Z"/><rect class="cls-2" x="939.23" y="239.23" width="292.72" height="70.03" rx="24.94" transform="translate(832.09 -816.38) rotate(62.74)"/><rect class="cls-4" x="954.06" y="222.13" width="233.78" height="62.15" rx="22.13" transform="translate(805.45 -814.77) rotate(62.74)"/><g class="cls-5"><path class="cls-6" d="M1035.7,223.09a6.91,6.91,0,0,1-2.43-2.56c-6.41-12-12.25-24.43-14.76-38-.94-5-1.17-11,4.88-15.07a14.43,14.43,0,0,1,3.94-1.83c5.6-1.62,10.69-.22,14.85,2,10.67,5.8,15.73,16.79,20.33,27.27l7.4,16.86c1,2.34,2.06,4.77,1.73,7.46-.65,5.24-6.64,9.95-12.61,11.17a24,24,0,0,1-15.67-2.49,13,13,0,0,1-1.3-.76Z"/></g><rect class="cls-2" x="740.35" y="363.52" width="207.63" height="70.03" rx="24.94" transform="translate(811.73 -534.41) rotate(62.74)"/><rect class="cls-7" x="750" y="352.98" width="165.82" height="62.15" rx="22.13" transform="translate(792.76 -532.25) rotate(62.74)"/><g class="cls-5"><path class="cls-8" d="M840.36,435.1a51.45,51.45,0,0,1-7.7-11C820,399.77,807.91,375,799.13,349.6,796.42,341.76,794,333,796,327.32c1.67-4.75,6.26-6.19,11.1-4.78s9.89,5.31,14.51,9.89c15.71,15.58,26.83,38.33,37.15,59.92l16.61,34.73c2.3,4.81,4.66,9.82,5.45,14.69,1.54,9.47-3.73,15.58-10.52,15.21S855.79,451.11,849,444.4Z"/></g><rect class="cls-2" x="853.5" y="270.23" width="343.4" height="70.03" rx="24.94" transform="translate(826.91 -745.89) rotate(62.74)"/><rect class="cls-9" x="871.41" y="249.21" width="274.25" height="62.15" rx="22.13" transform="translate(795.7 -744.61) rotate(62.74)"/><g class="cls-5"><path class="cls-10" d="M971.13,246.52a7.48,7.48,0,0,1-2.07-2.43c-8-15.07-15.49-30.6-19.51-47.19-1.47-6.09-2.31-13.19,3.65-17.46a11.55,11.55,0,0,1,3.82-1.76c5.77-1.46,11.31.72,15.94,3.84,11.78,8,18.17,21.53,24,34.45l9.42,20.79c1.3,2.88,2.63,5.88,2.55,9.05-.17,6.16-6,11.18-12.15,12.06-5.93.84-11.87-1.4-16.9-4.63-.36-.23-.72-.49-1.07-.76Z"/></g><rect class="cls-2" x="749.78" y="332.42" width="309.46" height="70.03" rx="24.94" transform="translate(816.79 -604.91) rotate(62.74)"/><rect class="cls-11" x="765.63" y="314.02" width="247.14" height="62.15" rx="22.13" transform="translate(788.64 -603.41) rotate(62.74)"/><g class="cls-5"><path class="cls-12" d="M882.51,370.61a28.06,28.06,0,0,1-3.92-5.67c-14.23-27.15-28-54.84-38-83.15-.4-1.1-.78-2.22-1.16-3.34-4.66-14.06,12.91-25,23.26-14.37l.22.23c16.39,16.9,28.33,41.23,39.43,64.32q8.91,18.57,17.84,37.14c2.47,5.14,5,10.5,6,15.66,1.83,10.05-3.34,16.35-10.24,15.76-6.71-.56-14.47-6.29-21.46-13.3-.38-.4-.76-.8-1.13-1.22Z"/></g><rect class="cls-2" x="776.18" y="301.32" width="377.34" height="70.03" rx="24.94" transform="translate(821.85 -675.4) rotate(62.74)"/><rect class="cls-13" x="796.17" y="277.69" width="301.36" height="62.15" rx="22.13" transform="translate(787.58 -674.34) rotate(62.74)"/><g class="cls-5"><path class="cls-14" d="M924.77,304.56a21.5,21.5,0,0,1-3.36-4.73c-13.08-24.91-25.65-50.35-34.61-76.49-2.63-7.7-5-16.27-2.92-21.89,1.71-4.69,6.29-6.15,11.1-4.8s9.8,5.14,14.36,9.61c15.51,15.19,26.39,37.48,36.49,58.63q8.11,17,16.24,34c2.25,4.71,4.56,9.62,5.31,14.4,1.45,9.31-3.85,15.36-10.61,15.06s-14.41-5.66-21.16-12.2Z"/></g><g class="cls-15"><path class="cls-16" d="M923.68,170.41c-9.21-16.48-30.58-25-48.62-19.47s-30.87,24.69-29.19,43.49c.31,3.4,1,7-.32,10.11-2,4.65-7.42,6.47-12.06,8.45-26.76,11.43-40.27,46.67-28,73.06A59.55,59.55,0,0,0,766,327.2c-3.12,12-2.35,24.67-1.3,37.05,9.79,116.2,40.94,230.62,39.71,347.22-.51,48.64-6.67,97.18-4.89,145.78.54,14.67,2.41,30.72,14.07,40.3a15.89,15.89,0,0,0,10,3.88c11.06,0,15.64-12.4,17.73-22.61a648.46,648.46,0,0,0,5.46-228.59c-3.48-22.38-8.12-44.56-11.85-66.89-2.05-12.24-3.79-25-.19-36.88s14.1-22.56,26.5-22.35c12.73.22,23,11.84,25.87,24.24,3.48,14.83-1.12,30.45-4.48,45a11.71,11.71,0,0,0,5.23,12.8c5.27,3.07,10.16-.38,13.63-4.1,11.1-11.88,15.58-28.54,17.1-44.73.49-5.29.78-10.83,3.47-15.41,10.09-17.22,40.45-5.26,54.41-19.53,5.42-5.54,8.62-15.12,18.53-11.69a17,17,0,0,1,3.4,1.72A64.59,64.59,0,0,0,1095.14,474c1.22-4.67,2-9.57,4.32-13.78,1.67-3,4.07-5.46,6-8.27a31,31,0,0,0,3.51-27.69c-3.85-10.55-13-18-21.4-25.54-21.86-19.68-40.17-42.92-58.36-66-11.14-14.15-22.45-28.59-28.79-45.45-4.44-11.77-6.31-24.39-10.79-36.15-5.16-13.54-13.64-25.56-22.73-36.85-7.87-9.77-16.42-19.37-21-31.07-3.65-9.37-4.14-20.62.29-29.37a3.25,3.25,0,0,0-4-4.57c-9.64,3.21-17.64,11.54-19.77,21.54"/></g><g class="cls-17"><path class="cls-18" d="M920.39,207c1.89-15-10.79-29.87-25.94-30.79S864.87,189,864.93,204.14c0,4.87,1.25,10.07-1,14.4-1.74,3.39-5.2,5.45-8.33,7.6a70,70,0,0,0-29.69,52.46c-.27,4.38-.15,8.89-1.73,13-2,5.07-6.27,8.79-10.11,12.64-25.39,25.46-34.53,63.46-33.63,99.41s10.61,71,17.79,106.24c7.58,37.13,9.87,64.42,11.9,102.26.09,1.68,0,11,0,12.64,0,9.83-1.4,15.45-1.4,25.27,0,56.33,1.4,108-2.38,164.19-1,15.51-2.08,32.41,4.44,46a3.61,3.61,0,0,0,6.72-.54c8.55-29.77,16.07-60,17-90.94.89-29.53-4.27-58.85-8.43-88.09a1318.49,1318.49,0,0,1-13-171.9c-.3-29.51.5-59.65,10.51-87.42,11.07-30.7,32.62-56.36,47.94-85.18,8.68-16.32,15.34-33.63,22-50.88,10-26.14,16.84-52.12,26.9-78.27"/></g><g class="cls-15"><path class="cls-19" d="M801.84,961c-5.49-8.59-18.76-8.25-27.36-2.76S760.27,972.69,753.19,980C737.81,996,716,1003.71,694.81,1010.1c-209.21,63.16-433.16,43.17-650.94,61.35C26.68,1072.89,6.15,1077,0,1093.09c4.32,8.28,15.28,9.88,24.6,10.47q179.37,11.25,359,16.69c65.3,2,130.78,3.37,195.83-2.55,68.56-6.24,136.09-20.55,204.14-30.91a1786.2,1786.2,0,0,1,474.05-8.44c8.81,1,20.54.26,22.79-8.32,2.07-7.93-6.38-14.39-13.82-17.83-74.08-34.28-160.52-19-241.6-28.46-8.21-1-16.6-2.26-23.84-6.26-5.92-3.27-10.79-8.21-16.69-11.52-19.56-11-44-1.63-66.29-3.62-41.06-3.66-73.32-45.51-114.42-42.42"/></g><g class="cls-17"><path class="cls-20" d="M790.52,1012.33c-12.74,4.22-26.15,8.44-38.9,12.67-17,5.62-34,11.25-51.63,15.8-72.9,18.8-153,18.32-230.93,19.46-127,1.87-253.88,8.7-380,19.13,32.13,7.11,66.25,8.69,100,10.22,113.73,5.16,228.66,10.29,341.15-2.22,28.69-3.19,57.08-7.51,85.45-11.83,78.75-12,158.27-24.18,231-47.87-13.47-11.31-35.08-18-56.14-15.36"/></g></g></g></g></svg>