<?xml version="1.0" encoding="utf-8"?>
<!-- Generator: Adobe Illustrator 22.1.0, SVG Export Plug-In . SVG Version: 6.00 Build 0)  -->
<svg version="1.1" id="Layer_1" xmlns="http://www.w3.org/2000/svg" xmlns:xlink="http://www.w3.org/1999/xlink" x="0px" y="0px"
	 viewBox="0 0 1920 384.9" style="enable-background:new 0 0 1920 384.9;" xml:space="preserve">
<style type="text/css">
	.st0{fill:url(#SVGID_1_);}
	.st1{opacity:0.79;fill:url(#SVGID_2_);enable-background:new    ;}
</style>
<g id="Слой_2">
	<g id="фон">
		
			<linearGradient id="SVGID_1_" gradientUnits="userSpaceOnUse" x1="960" y1="-102" x2="960" y2="-486.9374" gradientTransform="matrix(1 0 0 -1 0 -102)">
			<stop  offset="0" style="stop-color:#FF8900"/>
			<stop  offset="1" style="stop-color:#FFB300"/>
		</linearGradient>
		<path class="st0" d="M1920,0v99.8l-0.7,0.5c-13.7,9.8-29.7,17.3-45.1,24.3c-86.6,39-177.5,77.9-272.3,73.4
			c-80.8-3.9-167.1-38.5-238.9-1.2c-16.7,8.7-31.6,21-48.9,28.4s-39.2,9-53.8-3c-20.3-16.6-16.4-47.6-17.4-73.8
			c-1-26.5-9-52.2-23-74.7c-15.9-25.4-48.4-47.2-74.5-32.4c-9,5.1-15,13.3-18.6,23l-0.2,0.4c-4.1,10.8-5.3,23.3-4.9,34.9
			c0.8,22.1,5.6,44.8-1.3,65.8c-0.3,1-0.7,1.9-1.1,2.8v0.1c-8.2,19.6-32.1,34.6-50,23.6c-23.9-14.7-11-51.8-19.1-78.7
			c-10.2-34-54.8-45.8-89-36.3s-62.4,33.3-93.9,49.7c-86.4,45-191,31.5-286.1,10.2c-43.7-9.8-99.4-16.5-123.9,21
			c-2.3,3.5-4.1,7.1-5.6,11c0,0,0,0,0,0.1c-21,55.2,51.5,125.9,28.2,182.8c0,0.1,0,0.1-0.1,0.2c-0.7,1.6-1.4,3.2-2.2,4.7
			c-18,35-76,38.3-97.9,5.6c-32.4-48.4,20.4-116.4-1.5-170.4c-13.5-33.4-52.3-50-88.3-52s-71.7,7.1-107.8,8.7
			c-66,2.8-132.5-20.9-182.4-64V0H1920z"/>
		
			<linearGradient id="SVGID_2_" gradientUnits="userSpaceOnUse" x1="1915.2312" y1="387.7533" x2="1508.5258" y2="-316.6762" gradientTransform="matrix(1 0 0 -1 0 -102)">
			<stop  offset="0" style="stop-color:#AF4700"/>
			<stop  offset="0.91" style="stop-color:#F8AA00"/>
			<stop  offset="1" style="stop-color:#FFB300"/>
		</linearGradient>
		<path class="st1" d="M1862.1,3.6c11.6,0.2,24.3,0.7,28.3,1.1l7.4,0.8l13.6,24.6c2.9,5.4,5.6,10.4,7.8,14.6l0.7,1.3v-4l-0.7-1.3
			c-8.2-14.7-20.1-36.8-19.8-37.3c0.1-0.1,0.8-1.4,2.1-3.5h-2.7c-0.4,0.6-0.9,1.3-1.4,1.8c-1.2,1.1-6.7,1.3-28.8,0.9
			c-15-0.3-27.8-0.9-28.4-1.3c-0.4-0.4-0.7-0.9-1-1.4h-2.6c0.3,0.5,0.5,1.1,0.8,1.6c0.6,1.5-27.3,48.1-30,50.1
			c-1.7,1.3-26.7,1-47-0.6l-10.8-0.8l-13.3-24.2L1723.3,2l1-2H1662c0,0.1,0.1,0.2,0.1,0.2c0,1.4-26.1,45.2-28.8,48.3
			c-1.6,1.8-56.4,0.7-58-1.3c-0.6-0.7-7.1-12.2-14.5-25.5c-6.6-11.9-9.9-18.3-11.4-21.8h-3.2l1.6,2.6c6,9.5,25.4,46.1,25.4,47.7
			c0,1.8-27.3,47.2-29,48.3c-0.6,0.4-13.6,0.5-28.9,0.3c-25.2-0.5-27.9-0.7-29.2-2.2c-2.8-3.4-26.6-47.5-26.6-49.3
			c0-1.6,22.8-40,27.7-46.9l0.4-0.5h-3.2c-5.1,9.5-21.2,36.6-26.4,44.4c-1.4,2.2-1.5,2.1-29.4,1.6c-15.3-0.3-28.3-0.9-28.9-1.3
			c-1.4-1-17.9-31-24.8-44.7h-2.6c2.5,4.2,7.4,12.9,12.6,22.3c11.2,20.6,12.5,23.5,11.6,25.6c-1.8,3.9-26.9,44.8-28.5,46.7
			c-1.4,1.5-4.1,1.6-28.9,1.2c-20.3-0.4-27.7-0.8-28.8-1.7c-2-1.8-27.6-48.1-27.6-50.2c0-1,17.8-31.3,25.6-43.9h-1.7
			c-2.6,4.3-6.7,11.1-11.2,18.4c-6.8,11.3-13,21.8-13.8,23.3c-1.1,2.5-0.4,4.1,13,28.6l14.3,25.9l28.7,0.5
			c15.7,0.3,29.1,0.9,29.7,1.3s7.4,12.3,15.1,26.4l14.2,25.6l29.3,0.5l29.4,0.5L1470,127c8-13.4,15.3-25,16.1-25.9
			c1.4-1.5,4.1-1.7,30.5-1.2l28.8,0.5l15-24.6c8.3-13.6,15.6-25,16.2-25.4s13.8-0.5,29.3-0.3l28.2,0.5l15.1-24.9
			c12.4-20.3,15.6-25,17.8-25.5c2.7-0.6,53.3,1.5,54.6,2.3c0.4,0.2,6.4,10.9,13.4,23.6c7,12.8,13.3,23.9,14.1,24.9
			c1.3,1.5,4,1.8,29.7,2.2c15.5,0.3,28.7,0.9,29.3,1.3s6.3,10.4,12.8,22.2s12.7,23.1,14,25.2l2.3,3.7l29.8,0.3l29.7,0.2l14.5-23.9
			c3-4.9,5.8-9.5,8.2-13.4l0.7-1.1v-3.1l-0.7,1.2c-8.4,14.2-23.3,38.4-24.3,39c-1.3,0.9-57.1-1.2-58-2.1
			c-1.6-1.5-26.7-47.9-26.7-49.3c0-1.6,26.7-45.9,29.3-48.7C1841,3.4,1843.5,3.2,1862.1,3.6z M1455,148c-1.2,0.9-8.3,1-27.8,0.7
			c-14.4-0.3-27.3-0.8-28.4-1.1c-1.7-0.5-5.7-7-15.7-25.1c-7.3-13.5-13.4-24.9-13.4-25.5c0-1,26.2-44.4,28.9-48
			c1.3-1.8,2.8-1.8,29.4-1c15.4,0.4,28.5,1.2,29.1,1.7c1.8,1.4,27.2,48,27.2,49.8S1457,146.3,1455,148z M1918.5-487l0.8,1.5l0.7,1.3
			v-2.7H1918.5z"/>
	</g>
</g>
</svg>
