<svg xmlns="http://www.w3.org/2000/svg" xmlns:xlink="http://www.w3.org/1999/xlink" viewBox="0 0 1920 486.99"><defs><style>.cls-1{fill:url(#Безымянный_градиент_22);}.cls-2{opacity:0.79;fill:url(#Безымянный_градиент_117);}.cls-3{fill:none;}</style><linearGradient id="Безымянный_градиент_22" x1="960" x2="960" y2="486.99" gradientUnits="userSpaceOnUse"><stop offset="0" stop-color="#ff8900"/><stop offset="1" stop-color="#ffb300"/></linearGradient><linearGradient id="Безымянный_градиент_117" x1="1651.56" y1="-154.99" x2="1248.87" y2="542.48" gradientUnits="userSpaceOnUse"><stop offset="0" stop-color="#af4700"/><stop offset="0.91" stop-color="#f8aa00"/><stop offset="1" stop-color="#ffb300"/></linearGradient></defs><g id="Слой_2" data-name="Слой 2"><g id="фон"><rect class="cls-1" width="1920" height="486.99"/><path class="cls-2" d="M1920,58V54.21l-.63,1-.07.11-14.8,24.3-28.35-.52c-25.88-.47-28.55-.72-29.9-2.22-2.52-3.11-26.57-47.81-26.57-49.45,0-.79,6.54-12.12,14.59-25.21L1835.64,0h-2.41c-7,11.76-14.41,24-15.69,25.55-.81.88-7.83,1.05-29,.66-25.29-.46-28-.7-29.31-2.21-.73-.95-6.75-11.56-13.5-24h-2.39l.4.72c7.46,13.44,13.56,25.08,13.56,25.91.08,1.19-22.36,39.38-28,47.67-1.42,2.14-1.52,2.14-29.48,1.63-25.39-.46-28-.7-29.41-2.21-2.42-2.81-26.71-47.38-26.87-49.06,0-.82,6.86-12.81,13.92-24.66h-2.06c-4.86,8.13-9.64,16-12.17,19.92l-2.34,3.61-28-.51c-15.31-.28-28.34-.91-28.93-1.32s-6-9.83-12.59-21.7h-1.94c6.26,11.81,12,23.29,11.72,24-1,2.45-27.31,45.61-28.93,47.55-1.41,1.46-4,1.61-27.3,1.19-14.22-.26-26.76-.79-27.94-1.1-1.67-.53-5.7-7-15.65-25.07C1474,33.14,1468,21.69,1468,21c0-.53,5.34-9.61,12.23-21H1477c-5.7,9.4-10.82,17.62-11.73,18.66-1.41,1.45-4,1.6-28.77,1.15-15-.27-27.76-.9-28.34-1.3S1402.72,9.72,1397.33,0h-2c5.57,10.43,10.4,19.86,10.4,20.64,0,1.57-25.52,44.45-28.35,47.76-1.41,1.45-4,1.6-28.77,1.15-15-.27-27.76-.9-28.44-1.31-1.27-.81-27.1-47.48-27.74-50.16-.2-.72,4.15-8.76,9.5-18.08h-2.32l-3.5,5.71-7,11.42-28.35-.71-28.24-.81L1223.93,0h-3c5.71,10.49,9.88,18.29,9.88,18.54,0,1.09-28.84,47.85-29.94,48.62-.6.39-13.44.35-28.46,0-22.81-.71-27.65-1.1-28.81-2.3-.68-.8-7.29-12.18-14.46-25.34-12.06-21.84-13-23.93-11.88-26.28,1-2,3.94-7.11,7.65-13.22h-1.72c-5,8.09-8.8,13.87-9.3,14.15s-14,.53-29.75.25l-28.65-.53-13.66,22.76C1034.34,49,1027.32,60.45,1026.3,62l-1.93,2.63-28.84-.52-28.85-.53L951.5,88.49c-12.12,20.12-15.57,25-17.66,25.55-1.29.27-14.33,0-28.74-.62-24.69-1.14-26.47-1.08-27.88.58-.91,1-7.93,12.19-15.68,25s-14.36,23.44-14.75,23.63.63,3.07,2.45,6.26,8.33,14.86,14.45,26.13L875,215.44l29.33,1c16.09.59,29.62,1.33,29.91,1.73s6.8,11.87,14.26,25.43l13.58,24.73,30.23.85,30.22.74,14.57-24.12c8.05-13.18,15.27-24.6,16-25.37,1.51-1.36,21.07-1.2,45.15.42l12.83.83,14,25.43,14.06,25.43,29.43,1,29.53,1,11.29,20.45c17.22,31,16.18,28.62,14.24,32.24-3.89,7.24-27.21,45.12-28.21,45.69-.6.39-14.54.53-30.93.23l-29.74-.54L1119.2,398l-15.39,25.38,14.06,25.73c7.75,14.16,14.16,25.83,14.16,25.93s13.42.73,29.81,1.43l29.73,1.23,2-2.83c1.12-1.56,8.14-12.78,15.48-25l13.55-22.26,29.44.53,29.54.54,1.82,2.8c1,1.5,7.47,13.07,14.45,25.83,11.48,21,12.53,23.33,11.4,25.38-.25.44-1.16,2-2.54,4.31h1.7a61.71,61.71,0,0,1,3.53-5.35c.2-.19,13.14-.05,28.75.33,25.38.66,28.64.91,30,2.42a24.46,24.46,0,0,1,1.68,2.6H1375c-1.93-3.83-3.1-6.37-3-6.63.3-.68,6.93-11.72,14.77-24.6L1401,432.32l28.94.53,29,.53,13.59,24.43c7.45,13.44,13.56,25.08,13.56,25.91a20.27,20.27,0,0,1-1.6,3.27h3.18l1.57-2.22,28.15.51,28.06.51.73,1.2h3.23c-1.11-2.64-1.18-3.75-.74-4.5.61-1.17,7.24-12.31,14.78-24.71L1577.25,435l28.36.52c25.88.47,28.54.71,29.9,2.32,2.44,2.92,25.27,45.29,26.51,49.12h58.37l-27.46-.49c-15-.28-27.86-.91-28.44-1.31-1.66-1.12-27.16-48-27.16-50,0-.88,6.55-12.41,14.6-25.5l14.47-23.92,27.66.31c15.22.07,28.16.51,28.74,1s7.2,11.78,14.66,25.34l13.68,24.64-12.94,21.28c-7.13,11.72-14,22.95-15.37,25l-2.44,3.6h4l.61-1.2c3.47-6.35,27.21-45.21,28.82-47s3-1.72,28.67-.76c20.94.78,27.25,1.29,28.22,2.29,1.15,1.28,21.75,38.07,26.11,46.63h2.59c-5-8.09-27.17-48.25-27.17-49.37,0-.49,6.64-11.52,14.59-24.71L1841.35,389l29.44.54,29.54.53,13.2,23.94c2.07,3.75,4,7.36,5.77,10.64.24.45.48.89.7,1.32v-2.89c-.23-.42-.47-.85-.7-1.29-8-14.68-18.06-34.13-17.73-34.95s7-12.12,15-25.2l2.74-4.51.7-1.16v-2.88l-.7,1.17c-1.3,2.19-2.77,4.63-4.42,7.35-7.74,12.69-14.66,23.82-15.47,24.6-1.2,1.06-6.35,1.26-28.77.85-15-.27-28-.9-28.63-1.31-2.15-1.42-28.06-49.37-27.63-51,.94-3.24,28.64-48,30.13-48.72.9-.38,13.94-.24,29,.23l27.36.89,13.1,24.13c1.89,3.41,3.71,6.72,5.38,9.76l.7,1.28V317.6l-.7-1.28c-7.53-13.8-16.36-30.69-16.36-31.74s8.6-15.8,16.36-28.69c.24-.39.47-.78.7-1.17v-3.67l-.7,1.18c-7.75,13.08-17.3,28.83-18.6,30.53-.7.87-7.72,1-28.86.66-25.29-.46-28-.71-29.31-2.21-1.55-1.81-23.94-42.3-25.84-46.68-.85-2.08.49-4.73,12.51-24.65,7.44-12.2,14.46-23.43,15.47-24.89l1.93-2.73,27,.49c20,.37,27.26.79,28.43,1.8,1,.81,9.89,16.48,17.3,30l.7,1.28v-3.38l-.7-1.29c-7-13-14.51-27.33-14.51-28.18s7.24-13.29,14.51-25.36l.7-1.16v-4l-.7,1.2c-7.19,12.23-15.19,25.46-16.74,27.42-.71.87-7.63,1-28.28.67-20.45-.37-27.75-.8-28.92-1.71-1.75-1.52-27.55-48.63-27.55-50.46,0-1.08,23.87-40.93,27.73-46.29l1.92-2.73,27.86.51c15.32.28,28.35.91,28.93,1.32.87.58,8.22,13.53,15,26.07.24.43.47.86.7,1.29V106.2l-.7-1.29c-6.4-11.75-12.65-23.48-12.65-24s6-10.82,12.65-21.76C1919.53,58.74,1919.77,58.36,1920,58ZM1699.68,77.91c25.29.46,28,.7,29.3,2.31,2.23,2.6,26.87,48.23,26.87,49.55s-26.21,44.94-28.64,47.66c-1.41,1.45-4.08,1.6-29.47,1.14l-28-.51-2.31-3.7c-6.23-10.17-25.42-46-25.42-47.55,0-1.68,25.42-44.36,28.34-47.66C1671.72,77.6,1674.39,77.45,1699.68,77.91Zm-380.16,97.14c1.4-.86,8.91-.83,29,0l27.16,1.09,13.11,23.44c7.18,12.86,13.09,24.42,13.07,25.61,0,2.57-26.64,46.9-29.76,49.51-2,1.64-3.29,1.72-13.06.95-6-.41-18.07-.92-26.86-1.08l-15.9-.29-13.49-24.53c-7.45-13.55-13.46-25.09-13.46-25.82C1289.41,221.89,1317.52,176.3,1319.52,175.05Zm-32.29,47.19c-.8.88-7.72,1-28.37.67-20.35-.37-27.75-.8-29-1.71-.88-.71-7.39-12-14.57-25.14-9-16.26-12.89-24.52-12.66-26,.31-1.18,6.85-12.61,14.59-25.3l14-23,28.84.72,28.74.82,13.59,24.44c7.45,13.45,13.56,25.2,13.56,26.11C1316,175.18,1290.16,218.74,1287.23,222.24Zm290.07,4.29,1.62,3.19-7.85,13-14.87,24.41-7,11.42-28.84-.72-28.84-.82-13.59-24.44c-7.45-13.45-13.56-25.1-13.56-25.91s6.55-12.22,14.6-25.4l14.56-23.93,28.16.22c25.79.27,28.26.41,29.61,2S1573.68,219.06,1577.3,226.53Zm-24.4-49.61L1568,152l15.08-24.9,28.35.52,28.35.51,13.49,24.44c7.45,13.54,13.46,25.18,13.46,26,0,1.67-26.93,46.6-29.25,48.83-2.11,1.93-54.86,1.07-56.8-.94-.68-.8-7.29-12.27-14.56-25.44ZM1477,201.21l-14.87,24.41-27.86-.51c-25.39-.46-28-.7-29.41-2.21-1.64-2-27.55-49.13-27.55-50.06,0-.39,6.53-11.43,14.58-24.51l14.47-23.93,29,.53,29.05.53,13.67,24.93c7.55,13.75,13.76,25.21,13.76,25.72S1485.11,187.83,1477,201.21Zm-159.88,75.08,27.47.5c15,.28,27.85.91,28.43,1.31s7.2,11.78,14.66,25.44c12,21.94,13.38,24.93,12.36,26.88-4.09,7.43-27.92,46.19-28.82,46.77-.6.48-13.75.44-29.25,0l-28.06-.71-7.94-14.26c-4.3-7.78-10.52-19.05-13.77-25l-5.83-11,12.94-21.28c7.13-11.72,14-22.95,15.37-24.9Zm59.49.2c.21-.89,7-12.51,15-25.79l14.67-24.12,28.15.71,28.15.81,13.87,25.13,13.77,25-12.94,21.38c-7.13,11.72-14,22.95-15.38,25l-2.43,3.6-27.47-.5c-15-.27-27.85-.9-28.53-1.3C1401.48,325.12,1376.24,278.26,1376.57,276.49ZM1464.74,324c1.53-2.74,8.16-13.78,14.78-24.51L1491.44,280l29.14.53,29,.53,13.2,23.93c7.27,13.16,13.39,24.73,13.67,25.62.56,1.69-27.07,48.28-29.47,49.81-.6.39-13.35.55-28.27.28s-27.65-.9-28.24-1.31-7.19-11.87-14.75-25.54L1462.08,329Zm100.16-19c-8.23-14.86-13.47-25.42-13.16-26.4,1-2.55,27.21-45.32,28.83-47.06,1.41-1.56,4.08-1.71,28.78-1.26,15,.27,27.75.9,28.23,1.3,1.57,1,27.26,48,27.26,49.76,0,1-17.76,31.17-27.73,47l-2,3.13-28.25-.71-28.24-.81Zm88.76-50.12c-7.45-13.65-13.56-25.3-13.56-26s6.55-11.93,14.4-25.11c10.39-17.09,15.06-23.92,16.54-24.19,1.19-.27,14.23.16,29.14.83l27.06,1.18,27.54,50.26-13.45,22.26c-7.43,12.21-14.36,23.44-15.38,25l-1.92,2.63-26.38-.48c-14.52-.27-27.26-.79-28.44-1.11C1667.84,279.71,1663.13,272.12,1653.66,254.87ZM1584.44,24.48c.89-.38,14.13-.24,29.34.33l27.75,1,13.58,24.63c7.36,13.55,13.47,25.2,13.47,25.91,0,1.39-27.23,46.4-29.25,48.44-1.61,1.55-16.83,1.57-42.59-.08l-14.91-.87L1568.25,99c-7.44-13.64-13.55-25.38-13.55-26.11C1554.73,71,1582.84,25.34,1584.44,24.48Zm-60.61,50.23c20,.36,27.16.79,28.33,1.8,1.85,1.41,27.56,47.84,27.56,49.66,0,1.19-3.59,7-22.64,38.29l-7,11.42-28-.51-28.16-.51-2.3-3.69c-7.39-12.08-25.54-46.57-25-47.84,1-2.45,27.31-45.61,28.93-47.36C1496.86,74.42,1499.43,74.27,1523.83,74.71Zm-115.46-52c2-1.84,54.47-1.09,56.8.93.88.61,7.68,12.38,15.15,25.94l13.48,24.83-14.47,23.93c-8,13.18-15.36,24.2-16.26,24.58s-14,.24-29-.23l-27.26-.79-2.31-3.7c-5.28-8.49-25.43-45.83-25.43-47.06C1379.15,69.61,1406.35,24.69,1408.37,22.66Zm-88,48.84,27.66.31c15.22.08,28.16.51,28.74,1s7.2,11.87,14.66,25.44L1405,123l-14,23.14c-7.74,12.69-14.67,23.92-15.47,24.89-1.41,1.46-4.09,1.61-28.88,1.16-20.45-.38-27.56-.8-28.53-1.71-1.94-2.11-26.86-48-26.86-49.75,0-.79,6.54-12.22,14.59-25.3ZM1205,65.56c4.61-8.61,27.31-45.21,28.61-46.18,1.71-1.35,23-1.16,45.06.43l11.74.8,13.2,23.94c7.27,13.16,13.19,24.72,13.17,25.71.07,1.87-28,48.65-29.86,49.7-1.3.87-31.13.23-46-.93l-10.36-.78L1217,93.42l-13.59-24.73Zm-60.63,3c.6-.38,13.35-.55,28.37-.27,20.25.37,27.55.79,28.72,1.8,1.75,1.42,27.55,48.53,27.55,50.26,0,1-26.72,45.52-28.75,48-.8.87-7.62,1-29.85.45l-28.74-.82-13.59-24.44c-7.45-13.44-13.56-24.89-13.56-25.62C1114.44,116.53,1142.87,69.56,1144.37,68.6ZM1042,39.2l14.47-23.83,28.16.32c15.51.08,28.64.62,29.33,1,1,.61,26.53,46.29,27.65,49.57.29.7-6.25,12.33-14.4,25.8l-15,24.51-28.55-.52-28.55-.52-2.21-3.69c-6.14-10.07-25.52-46.23-25.52-47.56C1027.46,63.61,1034,52.28,1042,39.2Zm-74.7,26.68c.81-1,7.83-1.14,28.87-.76,15.21.28,28.25.91,28.83,1.31s6.24,10.19,12.55,21.65c16.26,29.62,15.69,28.33,14.37,30.77-.62,1.17-7.25,12.31-14.79,24.81l-13.75,22.65L995,165.79c-25.78-.47-28.45-.71-29.8-2.22-2.52-3.1-26.58-47.83-26.58-49.45C938.61,112.74,964.71,68.89,967.33,65.88ZM933.76,216l-28.84-.73-28.84-.82L862.4,189.54c-7.55-13.65-13.66-25.3-13.66-25.91s6.64-11.73,14.69-24.91L878,114.8l28.56.32c15.71.09,29,.53,29.53,1,1.66,1.12,27.25,48.12,27.25,49.86,0,1.28-19.4,34.3-27.23,46.4Zm116.42,5.37c-3.78,6.74-26.9,44.43-28.21,45.89s-4.08,1.6-29.47,1.14c-22.33-.41-28.15-.81-29.22-1.91-.78-.71-7.29-12.18-14.56-25.44l-13.19-24.13,14.05-23.14c7.65-12.7,14.67-23.93,15.48-24.8,1.41-1.55,4.08-1.7,29.27-1.24,15.31.27,28.25.9,28.83,1.31s7.2,11.78,14.66,25.44C1050,216.55,1051.2,219.43,1050.18,221.39Zm31.67-2.68-28.45-.52-1.83-2.7c-3.27-5-26-46.83-26-48.05,0-1.48,28.45-48.26,30-49.12s55.14,0,56.51,1c2.25,1.52,28.34,50.17,27.72,51.64-.73,1.86-27,45.32-28.43,47.07C1110.6,218.93,1103.48,219.1,1081.85,218.71Zm115.05,52.93c-2.89,1.43-55.83-.22-57.28-1.83-.58-.7-7-11.87-14.17-25-11.86-21.54-13-24-12-26.18,2.06-4.21,26.71-44.63,28.42-46.37,1.41-1.56,4.08-1.71,28.88-1.26,20.25.37,27.65.8,28.92,1.81,2,1.52,27.45,47.92,27.45,50C1227.1,225.1,1199,270.59,1196.9,271.64Zm2.63,1.93c0-.6,24.27-40.73,28.13-46.49l2.43-3.7,27.57.5c24.79.45,27.75.7,29.5,2.31,2,1.82,27,47,27,48.87,0,.59-6.74,12-14.89,25.49l-14.88,24.51-28.55-.52-28.55-.52-2.3-3.69C1221.61,314.84,1199.53,274.37,1199.53,273.57Zm-5.79,198.72-2,3.12-29.24-.73-29.24-.83L1120,449.92c-7.27-13.16-13.39-24.63-13.67-25.52-.46-1.59,27.17-48.47,29.47-49.91,1.4-1,56.13,0,57.6,1,1,.61,26.53,46.29,27.65,49.57C1221.46,426.1,1206.16,452.47,1193.74,472.29Zm88.19-45.79c-1.9,1.45-52,.84-55.82-.71-1.86-.73-5.8-7.12-15.46-24.77-7.07-13.06-13.09-24.42-13.37-25.22s6-12.23,14.1-25.41l14.56-23.92,29.54.53,29.44.54,13.68,24.83c11.67,21.44,13.38,25.12,12.46,26.88C1306,388.54,1283.14,425.54,1281.93,426.5Zm116.81,5.29c-1,2.54-27.21,45.31-28.92,47.25-1.52,1.75-3,1.72-29.76.55-15.5-.68-28.43-1.41-28.83-1.61-1.46-.92-26.56-47.8-26.56-49.65s28-48.46,30-49.7,56.2,1.12,57.46,2.62C1375.1,384.46,1399.26,430.41,1398.74,431.79Zm59.42-1.69c-.6.39-13.35.55-28.36.28-20.25-.37-27.56-.8-28.73-1.71-2.33-2-27.85-49.47-27.24-50.84.31-.69,6.94-11.82,14.78-24.71l14.26-23.44,28.85.53,29,.52,13.67,24.93c7.56,13.76,13.77,25.33,13.77,25.72C1488.08,382.57,1459.36,429.33,1458.16,430.1Zm87,52.92c-.6.38-13.35.55-28.36.27-24.7-.45-27.37-.69-28.72-2.2-.77-1-7.38-12.67-14.55-25.83l-13.1-24.13,14.67-24.22,14.77-24.31,28.66.23,28.65.32,1.83,2.7c3.65,5.49,26.1,46.83,26.1,48.06C1575.07,435.39,1546.65,482.16,1545.15,483Zm90.46-50.58c-1.41,1.45-4.09,1.6-29.28,1.15-15.31-.28-28.24-.91-28.83-1.32s-7.2-11.78-14.65-25.44c-12-22-13.39-24.92-12.36-26.88,3.68-6.65,26.9-44.43,28.21-45.79,1.41-1.55,4.08-1.7,28.78-1.25,15,.27,27.75.9,28.33,1.3,1.37.92,28.13,49.54,28.13,51.06C1663.92,386.46,1637.83,429.81,1635.61,432.44Zm85.68-48.89c-.8.18-13.54-.05-28.16-.51-18.47-.63-27-1.18-27.73-2s-7-11.87-14.17-25c-11.29-20.74-12.81-24-11.78-25.89,4.6-8.5,27.92-46.28,29.12-47.15s8.32-1.13,28.08-.77c24.3.44,26.57.58,28.22,2.29,2.52,2.61,27,47.43,27,49.45C1751.79,336.52,1723.07,383.29,1721.29,383.55Zm117.46,1.74c1.14,2.39,1.86,1.22-23.1,42l-5.5,9-28.84-.72-28.74-.82-13.68-24.93c-7.55-13.65-13.66-25.3-13.66-25.91s6.54-11.73,14.59-24.91l14.46-23.93,28.26.22c26,.28,28.36.42,29.71,2C1813.41,338.82,1835.32,378.32,1838.75,385.29Zm1.92-100.07c0,1.68-25.31,44.26-28.34,47.76-1.41,1.46-4.08,1.6-28.88,1.15-20.35-.37-27.65-.8-28.82-1.7-2-1.62-27.54-48.32-27.54-50.36,0-1.48,25.71-44.35,28.33-47.37,1.41-1.55,4.08-1.7,29.37-1.24,20.85.38,28,.81,29,1.81C1816.05,237.48,1840.67,283.28,1840.67,285.22Zm1.52-104.72c.37,1.19-3.82,9-13.5,24.93-7.65,12.7-14.67,23.92-15.48,24.9-1.41,1.45-4.08,1.6-29,1.15l-27.56-.5-2.31-3.7c-5.09-8.29-25.42-46.13-25.42-47.35,0-.7,6.64-12,14.69-25.21l14.56-23.92,28,.21c19.66.16,28.35.62,29.22,1.42C1816.66,133.54,1840.87,177,1842.19,180.5Zm-26.62-52.31c-.71.88-7.43,1.05-29.26.46l-28.25-.81-13.59-24.44C1737,90,1730.92,78.22,1730.92,77.19c-.07-1.78,25-44.17,28.24-47.76,1.41-1.55,4.08-1.7,29.27-1.25,15.32.28,28.25.91,28.84,1.32,1.66,1.11,27.15,48,27.15,50C1844.4,80.93,1818.5,124.69,1815.57,128.19ZM1919.3,453.46c-6.89,11.9-16.64,28-20.4,33.53h2.65l12.92-21.44,4.83-8,.7-1.15v-4.14C1919.77,452.66,1919.54,453.06,1919.3,453.46ZM1918.51,0l.79,1.45.7,1.28V0Z" transform="translate(0 0)"/><polyline class="cls-3" points="0 0 1123.24 0 1124.96 0 1220.98 0 1223.93 0 1299.62 0 1301.94 0 1395.34 0 1397.33 0 1476.99 0 1480.22 0 1569.46 0 1571.4 0 1655.39 0 1657.45 0 1743.37 0 1745.76 0 1833.23 0 1835.64 0 1918.51 0 1920 0"/></g></g></svg>