<svg xmlns="http://www.w3.org/2000/svg" xmlns:xlink="http://www.w3.org/1999/xlink" viewBox="0 0 633.4 523.1"><defs><style>.cls-1,.cls-10,.cls-11,.cls-12,.cls-13,.cls-14,.cls-15,.cls-16,.cls-17,.cls-18,.cls-19,.cls-2,.cls-20,.cls-21,.cls-22,.cls-3,.cls-4,.cls-5,.cls-6,.cls-7,.cls-8,.cls-9{opacity:0.97;}.cls-1{fill:url(#Безымянный_градиент_102);}.cls-2{fill:url(#Безымянный_градиент_102-2);}.cls-3{fill:url(#Безымянный_градиент_102-3);}.cls-4{fill:url(#Безымянный_градиент_102-4);}.cls-5{fill:url(#Безымянный_градиент_102-5);}.cls-6{fill:url(#Безымянный_градиент_102-6);}.cls-7{fill:url(#Безымянный_градиент_102-7);}.cls-8{fill:url(#Безымянный_градиент_102-8);}.cls-9{fill:url(#Безымянный_градиент_102-9);}.cls-10{fill:url(#Безымянный_градиент_102-10);}.cls-11{fill:url(#Безымянный_градиент_102-11);}.cls-12{fill:url(#Безымянный_градиент_102-12);}.cls-13{fill:url(#Безымянный_градиент_102-13);}.cls-14{fill:url(#Безымянный_градиент_102-14);}.cls-15{fill:url(#Безымянный_градиент_102-15);}.cls-16{fill:url(#Безымянный_градиент_102-16);}.cls-17{fill:url(#Безымянный_градиент_102-17);}.cls-18{fill:url(#Безымянный_градиент_102-18);}.cls-19{fill:url(#Безымянный_градиент_102-19);}.cls-20{fill:url(#Безымянный_градиент_102-20);}.cls-21{fill:url(#Безымянный_градиент_102-21);}.cls-22{fill:url(#Безымянный_градиент_102-22);}</style><linearGradient id="Безымянный_градиент_102" x1="-2222.84" y1="-3396.08" x2="-2222.84" y2="-3497.37" gradientTransform="translate(3608.48 -2011.32) rotate(-90)" gradientUnits="userSpaceOnUse"><stop offset="0" stop-color="#cd6b00"/><stop offset="1" stop-color="#e18700"/></linearGradient><linearGradient id="Безымянный_градиент_102-2" x1="-2126.3" y1="-3341.11" x2="-2126.3" y2="-3442.4" xlink:href="#Безымянный_градиент_102"/><linearGradient id="Безымянный_градиент_102-3" x1="-2222.84" y1="-3284.46" x2="-2222.84" y2="-3385.75" xlink:href="#Безымянный_градиент_102"/><linearGradient id="Безымянный_градиент_102-4" x1="-2257.39" y1="-3225.46" x2="-2257.39" y2="-3291.74" gradientTransform="translate(-17.91 -3849.2) rotate(-150)" xlink:href="#Безымянный_градиент_102"/><linearGradient id="Безымянный_градиент_102-5" x1="-2194.21" y1="-3189.49" x2="-2194.21" y2="-3255.77" gradientTransform="translate(-17.91 -3849.2) rotate(-150)" xlink:href="#Безымянный_градиент_102"/><linearGradient id="Безымянный_градиент_102-6" x1="-2257.39" y1="-3152.42" x2="-2257.39" y2="-3218.7" gradientTransform="translate(-17.91 -3849.2) rotate(-150)" xlink:href="#Безымянный_градиент_102"/><linearGradient id="Безымянный_градиент_102-7" x1="-2355.65" y1="-3464.18" x2="-2355.65" y2="-3530.46" gradientTransform="translate(-17.91 -3849.2) rotate(-150)" xlink:href="#Безымянный_градиент_102"/><linearGradient id="Безымянный_градиент_102-8" x1="-2292.47" y1="-3428.21" x2="-2292.47" y2="-3494.49" gradientTransform="translate(-17.91 -3849.2) rotate(-150)" xlink:href="#Безымянный_градиент_102"/><linearGradient id="Безымянный_градиент_102-9" x1="-2482.36" y1="-3464.69" x2="-2482.36" y2="-3530.97" gradientTransform="translate(-17.91 -3849.2) rotate(-150)" xlink:href="#Безымянный_градиент_102"/><linearGradient id="Безымянный_градиент_102-10" x1="-2419.19" y1="-3428.72" x2="-2419.19" y2="-3495" gradientTransform="translate(-17.91 -3849.2) rotate(-150)" xlink:href="#Безымянный_градиент_102"/><linearGradient id="Безымянный_градиент_102-11" x1="-2476.34" y1="-3308.73" x2="-2476.34" y2="-3375.01" gradientTransform="translate(-17.91 -3849.2) rotate(-150)" xlink:href="#Безымянный_градиент_102"/><linearGradient id="Безымянный_градиент_102-12" x1="-2609.01" y1="-3465.07" x2="-2609.01" y2="-3531.35" gradientTransform="translate(-17.91 -3849.2) rotate(-150)" xlink:href="#Безымянный_градиент_102"/><linearGradient id="Безымянный_градиент_102-13" x1="-2608.59" y1="-3392.87" x2="-2608.59" y2="-3459.14" gradientTransform="translate(-17.91 -3849.2) rotate(-150)" xlink:href="#Безымянный_градиент_102"/><linearGradient id="Безымянный_градиент_102-14" x1="-2690.82" y1="-3391.14" x2="-2690.82" y2="-3457.42" gradientTransform="translate(-17.91 -3849.2) rotate(-150)" xlink:href="#Безымянный_градиент_102"/><linearGradient id="Безымянный_градиент_102-15" x1="-2545.83" y1="-3429.1" x2="-2545.83" y2="-3495.38" gradientTransform="translate(-17.91 -3849.2) rotate(-150)" xlink:href="#Безымянный_градиент_102"/><linearGradient id="Безымянный_градиент_102-16" x1="-2355.65" y1="-3391.14" x2="-2355.65" y2="-3457.42" gradientTransform="translate(-17.91 -3849.2) rotate(-150)" xlink:href="#Безымянный_градиент_102"/><linearGradient id="Безымянный_градиент_102-17" x1="-2382.01" y1="-3224.59" x2="-2382.01" y2="-3290.86" gradientTransform="translate(-17.91 -3849.2) rotate(-150)" xlink:href="#Безымянный_градиент_102"/><linearGradient id="Безымянный_градиент_102-18" x1="-2318.83" y1="-3188.62" x2="-2318.83" y2="-3254.89" gradientTransform="translate(-17.91 -3849.2) rotate(-150)" xlink:href="#Безымянный_градиент_102"/><linearGradient id="Безымянный_градиент_102-19" x1="-2382.01" y1="-3151.55" x2="-2382.01" y2="-3217.82" gradientTransform="translate(-17.91 -3849.2) rotate(-150)" xlink:href="#Безымянный_градиент_102"/><linearGradient id="Безымянный_градиент_102-20" x1="-2100.13" y1="-3428.84" x2="-2100.13" y2="-3495.11" gradientTransform="translate(-17.91 -3849.2) rotate(-150)" xlink:href="#Безымянный_градиент_102"/><linearGradient id="Безымянный_градиент_102-21" x1="-2036.96" y1="-3392.87" x2="-2036.96" y2="-3459.14" gradientTransform="translate(-17.91 -3849.2) rotate(-150)" xlink:href="#Безымянный_градиент_102"/><linearGradient id="Безымянный_градиент_102-22" x1="-2100.13" y1="-3355.79" x2="-2100.13" y2="-3422.07" gradientTransform="translate(-17.91 -3849.2) rotate(-150)" xlink:href="#Безымянный_градиент_102"/></defs><g id="Слой_2" data-name="Слой 2"><g id="Слой_4" data-name="Слой 4"><polygon class="cls-1" points="111.11 182.28 111.11 240.76 161.75 270 212.4 240.76 212.4 182.28 161.75 153.05 111.11 182.28"/><polygon class="cls-2" points="166.08 85.74 166.08 144.22 216.72 173.46 267.37 144.22 267.37 85.74 216.72 56.5 166.08 85.74"/><polygon class="cls-3" points="222.73 182.28 222.73 240.76 273.37 270 324.02 240.76 324.02 182.28 273.37 153.05 222.73 182.28"/><polygon class="cls-4" points="274.61 120.65 307.75 139.79 340.88 120.65 340.88 82.39 307.75 63.26 274.61 82.39 274.61 120.65"/><polygon class="cls-5" points="237.88 57.91 271.02 77.05 304.16 57.91 304.16 19.65 271.02 0.52 237.88 19.65 237.88 57.91"/><polygon class="cls-6" points="311.13 57.4 344.26 76.53 377.4 57.4 377.4 19.13 344.26 0 311.13 19.13 311.13 57.4"/><polygon class="cls-7" points="240.34 376.52 273.48 395.66 306.62 376.52 306.62 338.26 273.48 319.13 240.34 338.26 240.34 376.52"/><polygon class="cls-8" points="203.61 313.79 236.75 332.92 269.89 313.79 269.89 275.52 236.75 256.39 203.61 275.52 203.61 313.79"/><polygon class="cls-9" points="349.82 440.32 382.96 459.46 416.1 440.32 416.1 402.06 382.96 382.93 349.82 402.06 349.82 440.32"/><polygon class="cls-10" points="313.1 377.58 346.24 396.72 379.38 377.58 379.38 339.32 346.24 320.19 313.1 339.32 313.1 377.58"/><polygon class="cls-11" points="422.58 302.25 455.72 321.38 488.86 302.25 488.86 263.98 455.72 244.85 422.58 263.98 422.58 302.25"/><polygon class="cls-12" points="459.31 503.97 492.45 523.1 525.59 503.97 525.59 465.7 492.45 446.57 459.31 465.7 459.31 503.97"/><polygon class="cls-13" points="495.05 441.23 528.19 460.37 561.33 441.23 561.33 402.97 528.19 383.83 495.05 402.97 495.05 441.23"/><polygon class="cls-14" points="567.13 480.86 600.26 499.99 633.4 480.86 633.4 442.59 600.26 423.46 567.13 442.59 567.13 480.86"/><polygon class="cls-15" points="422.58 441.23 455.72 460.37 488.86 441.23 488.86 402.97 455.72 383.83 422.58 402.97 422.58 441.23"/><polygon class="cls-16" points="276.86 313.27 310 332.4 343.14 313.27 343.14 275 310 255.87 276.86 275 276.86 313.27"/><polygon class="cls-17" points="382.96 182.21 416.1 201.34 449.24 182.21 449.24 143.94 416.1 124.81 382.96 143.94 382.96 182.21"/><polygon class="cls-18" points="346.24 119.47 379.38 138.6 412.51 119.47 412.51 81.2 379.38 62.07 346.24 81.2 346.24 119.47"/><polygon class="cls-19" points="419.48 118.95 452.62 138.09 485.76 118.95 485.76 80.69 452.62 61.55 419.48 80.69 419.48 118.95"/><polygon class="cls-20" points="36.73 218.16 69.87 237.29 103 218.16 103 179.89 69.87 160.76 36.73 179.89 36.73 218.16"/><polygon class="cls-21" points="0 155.42 33.14 174.55 66.28 155.42 66.28 117.15 33.14 98.02 0 117.15 0 155.42"/><polygon class="cls-22" points="73.25 154.9 106.39 174.03 139.53 154.9 139.53 116.63 106.39 97.5 73.25 116.63 73.25 154.9"/></g></g></svg>