<svg xmlns="http://www.w3.org/2000/svg" xmlns:xlink="http://www.w3.org/1999/xlink" viewBox="0 0 1920 236.08"><defs><style>.cls-1{fill:url(#Безымянный_градиент_22);}.cls-2{opacity:0.79;fill:url(#Безымянный_градиент_117);}.cls-3{fill:none;}</style><linearGradient id="Безымянный_градиент_22" x1="960" x2="960" y2="236.08" gradientUnits="userSpaceOnUse"><stop offset="0" stop-color="#ff8900"/><stop offset="1" stop-color="#ffb300"/></linearGradient><linearGradient id="Безымянный_градиент_117" x1="1606.21" y1="-63.3" x2="1355.83" y2="370.37" gradientUnits="userSpaceOnUse"><stop offset="0" stop-color="#af4700"/><stop offset="0.91" stop-color="#f8aa00"/><stop offset="1" stop-color="#ffb300"/></linearGradient></defs><g id="Слой_2" data-name="Слой 2"><g id="фон"><path class="cls-1" d="M1920,32.72V236.08H0V16.87c94,38.85,217.57,91,350.69,80.05,149.78-12.31,195.63-49.3,320.47-77.23C852.27-20.82,973.75,8.24,1118.62,43.35l1.47.35c32.73,7.93,66.66,16.16,102.75,23.94l2,.44c27.93,6,57.17,11.74,88.14,16.88l1.89.31c21.94,3.61,44.76,6.92,68.6,9.8l1.82.22c34.67,4.16,71.51,7.42,111,9.41q6.77.35,13.64.64h.34q16.89.72,35.38.6,6.45,0,13.08-.2a952.93,952.93,0,0,0,108.87-9.12l1.72-.24c24.84-3.49,50.79-8,77.67-13.75.66-.13,1.31-.27,2-.42q36.18-7.74,74.5-18.41l1.7-.47C1855.93,54.69,1887.61,44.53,1920,32.72Z" transform="translate(0)"/><path class="cls-2" d="M1850.6,111.88l28.16.32c15.51.08,28.65.52,29.23,1,.49.31,5.61,9.11,11.31,19.14l.7,1.25v-3.17l-.7-1.27-9.51-17.2-29.23-1c-16.1-.58-29.52-1.32-29.91-1.72s-6.8-11.78-14.26-25.44l-10.47-19.07-.75-1.37-1.7.47.81,1.37c2.71,4.63,7.1,12.48,11.77,21.06l13.2,24-13.45,22.26c-7.44,12.21-14.36,23.43-15.38,25l-2,2.63-28.55-.71-28.64-.82-13.88-24.93c-7.55-13.66-13.76-25.21-13.76-25.53,0-.48,7-12.22,14.25-24.07l1.15-1.88c-.66.15-1.31.29-2,.42-.39.63-.77,1.26-1.14,1.88-7.25,11.93-13.73,21.62-14.74,22.33-1.6,1.05-7.43,1.05-29.25.16l-27.26-1.09-4.41-8-.87-1.57-1.72.24.81,1.58c2.42,4.67,3.91,7.8,3.91,8.26,0,.79-6.75,12.51-14.9,26L1642.55,157l-28.45-.52-28.45-.52-13.49-24.53c-5.84-10.61-10.79-20-12.66-23.91a17.26,17.26,0,0,1-.76-1.74q-6.63.15-13.08.2c8,.3,10,.71,10.95,1.61a1.72,1.72,0,0,1,.27.27c2.32,2.8,26.58,47.63,26.58,49.15,0,1.08-20.11,35-27.23,46.1l-2.34,3.61-28.05-.51c-25.39-.46-28.06-.71-29.41-2.21-2.51-3.11-26.57-47.81-26.57-49.45,0-1.34,24.7-42.85,28.47-47.91l.27-.34c.52-.62,3.6-.91,11.34-.93q-6.87-.3-13.64-.64c-.18.38-.5,1-.92,1.77-5,9.17-25.54,43.58-27.66,46.13-.81.88-7.83,1.05-29,.66-25.29-.46-28-.7-29.31-2.21-1.35-1.7-22.79-40.2-26-46.87l-1.52-3.29,2.35-3.86,1.06-1.74-1.82-.22c-.4.63-.77,1.2-1.12,1.73-1.25,2-2.09,3.2-2.33,3.47-1.22,1.46-4.38,1.5-29.07.85l-27.76-.8-7.17-13-1.15-2.08L1313,85,1314.1,87c4.24,7.95,7.39,14.12,7.21,14.43s-6.94,11.62-15.09,25l-14.57,24.12-29-.73-29.13-.82-13.21-23.94c-7.27-13.16-13.18-24.72-13.16-25.81s8.74-16.28,16.7-29.5l1-1.71-2-.44c-.33.57-.67,1.15-1,1.72-7.89,13.28-16.78,27.74-17.65,28.2-.5.39-13.54.25-29-.23-22.61-.7-28.14-1.1-29-2.3-.58-.7-7-12.17-14.26-25.34l-13.1-23.93.21-.35,1-1.71-1.47-.35-1,1.7-.11.19-29.64,0-29.55,0-15,24.4c-8.25,13.48-15,24.91-15,25.5-.12,1.08,26.07,49.73,27.81,51.74.49.6,12.53,1.41,30.2,2l29.24,1,12.72,22.93c7,12.67,13.39,24.33,14.25,26l1.63,3.09-14.57,23.82c-2.23,3.67-4.39,7.19-6.36,10.35H1125c8.44-13.93,20.69-33.2,21.66-33.73s14-.34,29.15.23l27.35,1L1217,228.8l4,7.28h3l-5.11-9.32c-7.55-13.64-13.65-25.48-13.65-26.31,0-1.48,25.81-44.45,28.33-47.17,1.41-1.55,4.08-1.7,29.47-1.24l28,.51,1.82,2.8c3.75,5.79,26,46.73,26,48.05,0,1.11-3,6.32-19.13,32.68h2.31c7.23-12.55,16.29-27.43,18.54-29.88,1.42-1.55,4.09-1.7,29.38-1.24s28,.7,29.31,2.31,9.35,16,16.17,28.81h2c-7.59-13.71-16.35-30.18-16.35-31.25,0-1.68,26.93-46.5,29.35-48.73,1.11-1.16,6.25-1.27,29.16-.65l27.85.8,13.59,24.43c7.45,13.46,13.57,24.81,13.57,25.33,0,.7-9.34,16.6-17.52,30.07h3.23l2.45-4,14.57-23.92,28.26.22,28.16.31,1.93,2.7c2.63,4,8.45,14.48,13.87,24.72h1.94l-2.06-3.74-13.59-24.73,13.45-22.16c7.44-12.21,14.36-23.34,15.38-24.9l2-2.63,28.25.72,28.25.8,13.68,24.74c7.55,13.65,13.66,25.3,13.66,25.81s-7.62,13.66-15,26.09h2.06c6.59-11,13.32-21.94,14.73-23.59s3.78-1.61,29.76-.94l28.25.81,13.18,23.72h2.39l-1-1.93-13.1-24,14.87-24.51,15-24.51,28.45.52,28.55.52,1.83,2.8c3.75,5.49,26,46.83,26,48.25,0,.63-6.33,11.55-13.06,22.89h2.41l13.09-21.56,28.85.23,29,.33,2.21,3.69c1.85,3,5.65,9.81,9.76,17.31h1.5V236c-.24-.43-.47-.86-.7-1.29-5.76-10.62-10.77-20.17-10.77-20.85s4.57-8.68,10.77-19l.7-1.16v-2.86l-.7,1.15-12.93,21.17-28.25-.52c-15.61-.28-28.84-.91-29.43-1.32-1.76-1.12-27.15-48-27.15-50,0-1,6.55-12.42,14.6-25.5Zm-735.48,35.5-28.45-.52c-25.89-.47-28.55-.71-29.91-2.22-2.41-2.91-26.57-47.71-26.57-49.25,0-.79,6.64-12.12,14.59-25.31l14.57-23.92,29,.53,29.15.53,13.58,24.43c7.46,13.46,13.57,25,13.57,25.82.07,1.28-3.19,6.75-22.55,38.49Zm94,41.49-7,11.43-57.1-1-1.83-2.7c-1-1.6-7.28-12.77-14.07-25-10.91-19.84-12-22.53-11.12-24.58,1.85-3.92,26.91-44.83,28.52-46.57,1.41-1.56,4.08-1.71,29.47-1.25l28.06.51,2.3,3.8c4.8,7.69,25.43,46,25.43,47.16S1228.18,157.73,1209.13,188.87Zm184-9.19-14.47,23.82-28.85-.52-28.84-.52-13.49-24.53C1300,164.37,1294,152.72,1294,151.82c0-1.58,27-46.41,29.25-48.64,2-1.84,54.47-1.08,56.81.94,2,1.61,27.54,48.21,27.54,50.35C1407.59,155.26,1401.05,166.69,1393.11,179.68Zm336.25,29.41c-.6.38-13.35.55-28.37.27-24.7-.44-27.36-.69-28.72-2.2-1.93-2.3-25.75-45.78-26.3-48.06-.18-1,5.55-11.55,14.51-26.29l15-24.61,28,.51,28.06.51,2.3,3.8c4.23,6.79,25.43,45.93,25.43,47C1759.28,161.36,1730.66,208.23,1729.36,209.09Z" transform="translate(0)"/><polyline class="cls-3" points="0 236.09 1123.24 236.09 1124.97 236.09 1220.98 236.09 1223.93 236.09 1299.63 236.09 1301.94 236.09 1395.34 236.09 1397.34 236.09 1476.99 236.09 1480.22 236.09 1569.46 236.09 1571.4 236.09 1655.39 236.09 1657.45 236.09 1743.37 236.09 1745.76 236.09 1833.23 236.09 1835.64 236.09 1918.5 236.09 1920 236.09"/></g></g></svg>