<svg xmlns="http://www.w3.org/2000/svg" xmlns:xlink="http://www.w3.org/1999/xlink" viewBox="0 0 1920 384.91"><defs><style>.cls-1{fill:url(#Безымянный_градиент_22);}</style><linearGradient id="Безымянный_градиент_22" x1="960" x2="960" y2="384.91" gradientUnits="userSpaceOnUse"><stop offset="0" stop-color="#ff8900"/><stop offset="1" stop-color="#ffb300"/></linearGradient></defs><g id="Слой_2" data-name="Слой 2"><g id="фон"><path class="cls-1" d="M1920,0V99.84l-.7.49c-13.74,9.8-29.73,17.35-45.1,24.27-86.56,39-177.46,77.94-272.29,73.36-80.85-3.89-167.07-38.47-238.89-1.16-16.74,8.7-31.57,21-48.94,28.38s-39.15,9-53.76-3c-20.27-16.57-16.38-47.61-17.36-73.77a152.52,152.52,0,0,0-23-74.72c-15.89-25.38-48.41-47.16-74.49-32.4-9,5.1-15,13.35-18.64,23l-.16.4c-4.08,10.81-5.34,23.3-4.92,34.88.8,22.06,5.58,44.81-1.35,65.76-.31.95-.66,1.89-1.05,2.81l0,.06c-8.18,19.6-32.1,34.64-50,23.61-23.93-14.69-11-51.8-19.08-78.66-10.22-34-54.76-45.79-89-36.28s-62.36,33.32-93.86,49.73c-86.43,45.05-191,31.51-286.08,10.24-43.67-9.76-99.4-16.47-123.85,21a57.46,57.46,0,0,0-5.62,11,.19.19,0,0,0,0,.07c-21,55.16,51.5,125.86,28.19,182.84a1.11,1.11,0,0,1-.07.16q-1,2.39-2.19,4.74c-18,35-76,38.28-97.91,5.59-32.43-48.36,20.38-116.42-1.49-170.37-13.55-33.4-52.26-50-88.27-52s-71.71,7.06-107.75,8.65C116.38,151.36,49.86,127.6,0,84.56V0Z"/></g></g></svg>