<svg xmlns="http://www.w3.org/2000/svg" xmlns:xlink="http://www.w3.org/1999/xlink" viewBox="0 0 1920 236.08"><defs><style>.cls-1{fill:url(#Безымянный_градиент_22);}</style><linearGradient id="Безымянный_градиент_22" x1="960" x2="960" y2="236.08" gradientUnits="userSpaceOnUse"><stop offset="0" stop-color="#ff8900"/><stop offset="1" stop-color="#ffb300"/></linearGradient></defs><g id="Слой_2" data-name="Слой 2"><g id="фон"><path class="cls-1" d="M1920,32.72V236.08H0V16.87c94,38.85,217.57,91,350.69,80.05,149.78-12.31,195.63-49.3,320.47-77.23C852.27-20.82,973.75,8.24,1118.62,43.35l1.47.35c32.73,7.93,66.66,16.16,102.75,23.94l2,.44c27.93,6,57.17,11.74,88.14,16.88l1.89.31c21.94,3.61,44.76,6.92,68.6,9.8l1.82.22c34.67,4.16,71.51,7.42,111,9.41q6.77.35,13.64.64h.34q16.89.72,35.38.6,6.45,0,13.08-.2a952.93,952.93,0,0,0,108.87-9.12l1.72-.24c24.84-3.49,50.79-8,77.67-13.75.66-.13,1.31-.27,2-.42q36.18-7.74,74.5-18.41l1.7-.47C1855.93,54.69,1887.61,44.53,1920,32.72Z"/></g></g></svg>